<?xml version="1.0" encoding="us-ascii" standalone="no"?><svg xmlns="http://www.w3.org/2000/svg" xmlns:xlink="http://www.w3.org/1999/xlink" contentStyleType="text/css" height="869px" preserveAspectRatio="none" style="width:1888px;height:869px;background:#FFFFFF;" version="1.1" viewBox="0 0 1888 869" width="1888px" zoomAndPan="magnify"><defs/><g><!--cluster Software dzuk--><g id="cluster_Software dzuk"><rect fill="none" height="757" rx="2.5" ry="2.5" style="stroke:#181818;stroke-width:1.0;" width="674.14" x="568" y="43.73"/><text fill="#000000" font-family="sans-serif" font-size="14" font-weight="bold" lengthAdjust="spacing" textLength="117" x="846.57" y="58.6531">Software dzuk</text></g><g id="elem_registra_cliente"><ellipse cx="704.737" cy="513.7334" fill="#F1F1F1" rx="112.617" ry="24.9234" style="stroke:#181818;stroke-width:0.5;"/><text fill="#000000" font-family="sans-serif" font-size="14" lengthAdjust="spacing" textLength="189" x="607.237" y="517.4449">Registrazione cliente</text></g><g id="elem_registra_impiegato"><ellipse cx="704.7439" cy="427.7288" fill="#F1F1F1" rx="120.7439" ry="26.5488" style="stroke:#181818;stroke-width:0.5;"/><text fill="#000000" font-family="sans-serif" font-size="14" lengthAdjust="spacing" textLength="207" x="599.7019" y="430.8204">Registrazione impiegato</text></g><g id="elem_registra_prodotto"><ellipse cx="704.7402" cy="599.73" fill="#F1F1F1" rx="116.6502" ry="25.73" style="stroke:#181818;stroke-width:0.5;"/><text fill="#000000" font-family="sans-serif" font-size="14" lengthAdjust="spacing" textLength="198" x="603.4708" y="603.1441">Registrazione prodotto</text></g><g id="elem_visualizza_inventario"><ellipse cx="1092.8051" cy="180.725" fill="#F1F1F1" rx="133.3251" ry="29.065" style="stroke:#181818;stroke-width:0.5;"/><text fill="#000000" font-family="sans-serif" font-size="14" lengthAdjust="spacing" textLength="234" x="975.8051" y="183.0327">Visualizzazione inventario</text></g><g id="elem_acquisto_prodotti"><ellipse cx="704.7375" cy="180.7335" fill="#F1F1F1" rx="96.9675" ry="21.7935" style="stroke:#181818;stroke-width:0.5;"/><text fill="#000000" font-family="sans-serif" font-size="14" lengthAdjust="spacing" textLength="153" x="625.2375" y="184.445">Acquisto prodotti</text></g><g id="elem_genera_report"><ellipse cx="704.7414" cy="765.7343" fill="#F1F1F1" rx="82.3214" ry="18.8643" style="stroke:#181818;stroke-width:0.5;"/><text fill="#000000" font-family="sans-serif" font-size="14" lengthAdjust="spacing" textLength="117" x="643.2414" y="769.4458">Genera report</text></g><g id="elem_visualizza_report"><ellipse cx="704.7375" cy="259.7335" fill="#F1F1F1" rx="96.9675" ry="21.7935" style="stroke:#181818;stroke-width:0.5;"/><text fill="#000000" font-family="sans-serif" font-size="14" lengthAdjust="spacing" textLength="153" x="625.2375" y="263.445">Visualizza report</text></g><g id="elem_genera_invio_fattura"><ellipse cx="704.7402" cy="685.73" fill="#F1F1F1" rx="116.6502" ry="25.73" style="stroke:#181818;stroke-width:0.5;"/><text fill="#000000" font-family="sans-serif" font-size="14" lengthAdjust="spacing" textLength="198" x="603.4708" y="689.1441">Genera e invia fattura</text></g><g id="elem_visualizza_spedizioni"><ellipse cx="704.737" cy="341.7334" fill="#F1F1F1" rx="112.617" ry="24.9234" style="stroke:#181818;stroke-width:0.5;"/><text fill="#000000" font-family="sans-serif" font-size="14" lengthAdjust="spacing" textLength="189" x="607.237" y="345.4449">Visualizza spedizioni</text></g><g id="elem_conferma_spedizione"><ellipse cx="704.7375" cy="101.7335" fill="#F1F1F1" rx="96.9675" ry="21.7935" style="stroke:#181818;stroke-width:0.5;"/><text fill="#000000" font-family="sans-serif" font-size="14" lengthAdjust="spacing" textLength="153" x="625.2375" y="105.445">Conferma consegna</text></g><!--entity gestore--><g id="elem_gestore"><ellipse cx="1484.64" cy="402.62" fill="#F1F1F1" rx="8" ry="8" style="stroke:#181818;stroke-width:0.5;"/><path d="M1484.64,410.62 L1484.64,437.62 M1471.64,418.62 L1497.64,418.62 M1484.64,437.62 L1471.64,452.62 M1484.64,437.62 L1497.64,452.62 " fill="none" style="stroke:#181818;stroke-width:0.5;"/><text fill="#000000" font-family="sans-serif" font-size="14" lengthAdjust="spacing" textLength="171" x="1399.14" y="467.0431">Gestore Cooperativa</text></g><!--entity imp--><g id="elem_imp"><ellipse cx="73.5" cy="480.62" fill="#F1F1F1" rx="8" ry="8" style="stroke:#181818;stroke-width:0.5;"/><path d="M73.5,488.62 L73.5,515.62 M60.5,496.62 L86.5,496.62 M73.5,515.62 L60.5,530.62 M73.5,515.62 L86.5,530.62 " fill="none" style="stroke:#181818;stroke-width:0.5;"/><text fill="#000000" font-family="sans-serif" font-size="14" lengthAdjust="spacing" textLength="81" x="33" y="545.0431">Impiegato</text></g><!--entity cliente--><g id="elem_cliente"><ellipse cx="1680.64" cy="199.62" fill="#F1F1F1" rx="8" ry="8" style="stroke:#181818;stroke-width:0.5;"/><path d="M1680.64,207.62 L1680.64,234.62 M1667.64,215.62 L1693.64,215.62 M1680.64,234.62 L1667.64,249.62 M1680.64,234.62 L1693.64,249.62 " fill="none" style="stroke:#181818;stroke-width:0.5;"/><text fill="#000000" font-family="sans-serif" font-size="14" lengthAdjust="spacing" textLength="63" x="1649.14" y="264.0431">Cliente</text></g><!--entity utente--><g id="elem_utente"><ellipse cx="1680.64" cy="14" fill="#F1F1F1" rx="8" ry="8" style="stroke:#181818;stroke-width:0.5;"/><path d="M1680.64,22 L1680.64,49 M1667.64,30 L1693.64,30 M1680.64,49 L1667.64,64 M1680.64,49 L1693.64,64 " fill="none" style="stroke:#181818;stroke-width:0.5;"/><text fill="#000000" font-family="sans-serif" font-size="14" lengthAdjust="spacing" textLength="54" x="1631.14" y="78.4231">Utente</text><text fill="#000000" font-family="sans-serif" font-size="14" lengthAdjust="spacing" textLength="99" x="1631.14" y="95.6539">Non loggato</text></g><!--entity pescatore--><g id="elem_pescatore"><ellipse cx="1680.64" cy="661.62" fill="#F1F1F1" rx="8" ry="8" style="stroke:#181818;stroke-width:0.5;"/><path d="M1680.64,669.62 L1680.64,696.62 M1667.64,677.62 L1693.64,677.62 M1680.64,696.62 L1667.64,711.62 M1680.64,696.62 L1693.64,711.62 " fill="none" style="stroke:#181818;stroke-width:0.5;"/><text fill="#000000" font-family="sans-serif" font-size="14" lengthAdjust="spacing" textLength="81" x="1640.14" y="726.0431">Pescatore</text></g><!--entity cliente_pescheria--><g id="elem_cliente_pescheria"><ellipse cx="1836.14" cy="143.62" fill="#F1F1F1" rx="8" ry="8" style="stroke:#181818;stroke-width:0.5;"/><path d="M1836.14,151.62 L1836.14,178.62 M1823.14,159.62 L1849.14,159.62 M1836.14,178.62 L1823.14,193.62 M1836.14,178.62 L1849.14,193.62 " fill="none" style="stroke:#181818;stroke-width:0.5;"/><text fill="#000000" font-family="sans-serif" font-size="14" lengthAdjust="spacing" textLength="81" x="1795.64" y="208.0431">Pescheria</text></g><!--entity cliente_ristorante--><g id="elem_cliente_ristorante"><ellipse cx="1836.14" cy="255.62" fill="#F1F1F1" rx="8" ry="8" style="stroke:#181818;stroke-width:0.5;"/><path d="M1836.14,263.62 L1836.14,290.62 M1823.14,271.62 L1849.14,271.62 M1836.14,290.62 L1823.14,305.62 M1836.14,290.62 L1849.14,305.62 " fill="none" style="stroke:#181818;stroke-width:0.5;"/><text fill="#000000" font-family="sans-serif" font-size="14" lengthAdjust="spacing" textLength="90" x="1791.14" y="320.0431">Ristorante</text></g><!--entity tempo--><g id="elem_tempo"><ellipse cx="73.5" cy="796.62" fill="#F1F1F1" rx="8" ry="8" style="stroke:#181818;stroke-width:0.5;"/><path d="M73.5,804.62 L73.5,831.62 M60.5,812.62 L86.5,812.62 M73.5,831.62 L60.5,846.62 M73.5,831.62 L86.5,846.62 " fill="none" style="stroke:#181818;stroke-width:0.5;"/><text fill="#000000" font-family="sans-serif" font-size="14" lengthAdjust="spacing" textLength="45" x="51" y="861.0431">Tempo</text></g><!--entity sistema_fatture--><g id="elem_sistema_fatture"><ellipse cx="73.5" cy="648" fill="#F1F1F1" rx="8" ry="8" style="stroke:#181818;stroke-width:0.5;"/><path d="M73.5,656 L73.5,683 M60.5,664 L86.5,664 M73.5,683 L60.5,698 M73.5,683 L86.5,698 " fill="none" style="stroke:#181818;stroke-width:0.5;"/><text fill="#000000" font-family="sans-serif" font-size="14" lengthAdjust="spacing" textLength="63" x="6" y="712.4231">Sistema</text><text fill="#000000" font-family="sans-serif" font-size="14" lengthAdjust="spacing" textLength="135" x="6" y="729.6539">di interscambio</text></g><!--entity fattorino--><g id="elem_fattorino"><ellipse cx="73.5" cy="148.62" fill="#F1F1F1" rx="8" ry="8" style="stroke:#181818;stroke-width:0.5;"/><path d="M73.5,156.62 L73.5,183.62 M60.5,164.62 L86.5,164.62 M73.5,183.62 L60.5,198.62 M73.5,183.62 L86.5,198.62 " fill="none" style="stroke:#181818;stroke-width:0.5;"/><text fill="#000000" font-family="sans-serif" font-size="14" lengthAdjust="spacing" textLength="81" x="33" y="213.0431">Fattorino</text></g><!--reverse link cliente to cliente_ristorante--><g id="link_cliente_cliente_ristorante"><path d="M1731.76,248.02 C1750.81,254.97 1772.35,262.83 1790.83,269.57 " fill="none" id="cliente-backto-cliente_ristorante" style="stroke:#181818;stroke-width:1.0;"/><polygon fill="none" points="1729.72,254.36,1713.33,240.93,1734.52,241.21,1729.72,254.36" style="stroke:#181818;stroke-width:1.0;"/></g><!--reverse link cliente to cliente_pescheria--><g id="link_cliente_cliente_pescheria"><path d="M1732,211.36 C1752.5,203.88 1775.87,195.36 1795.17,188.32 " fill="none" id="cliente-backto-cliente_pescheria" style="stroke:#181818;stroke-width:1.0;"/><polygon fill="none" points="1734.52,218.26,1713.33,218.54,1729.72,205.11,1734.52,218.26" style="stroke:#181818;stroke-width:1.0;"/></g><!--link imp to registra_cliente--><g id="link_imp_registra_cliente"><path d="M114.34,510.92 C208.76,511.37 448.92,512.52 591.85,513.2 " fill="none" id="imp-registra_cliente" style="stroke:#181818;stroke-width:1.0;"/><path d="M219,465.73 L219,506.73 L504,506.73 L504,475.73 L494,465.73 L219,465.73 " fill="#FEFFDD" style="stroke:#181818;stroke-width:0.5;"/><path d="M494,465.73 L494,475.73 L504,475.73 L494,465.73 " fill="#FEFFDD" style="stroke:#181818;stroke-width:0.5;"/><text fill="#000000" font-family="sans-serif" font-size="13" lengthAdjust="spacing" textLength="264" x="225" y="482.73">L'impiegato deve essere abilitato</text><text fill="#000000" font-family="sans-serif" font-size="13" lengthAdjust="spacing" textLength="256" x="225" y="498.73">per la registrazione dei clienti</text></g><!--link imp to registra_impiegato--><g id="link_imp_registra_impiegato"><path d="M114.43,487.84 C138.88,475.04 171.28,460.2 202,452.73 C331.14,421.36 484.31,418.48 587.14,421.28 " fill="none" id="imp-registra_impiegato" style="stroke:#181818;stroke-width:1.0;"/><path d="M207,374.73 L207,415.73 L516,415.73 L516,384.73 L506,374.73 L207,374.73 " fill="#FEFFDD" style="stroke:#181818;stroke-width:0.5;"/><path d="M506,374.73 L506,384.73 L516,384.73 L506,374.73 " fill="#FEFFDD" style="stroke:#181818;stroke-width:0.5;"/><text fill="#000000" font-family="sans-serif" font-size="13" lengthAdjust="spacing" textLength="264" x="213" y="391.73">L'impiegato deve essere abilitato</text><text fill="#000000" font-family="sans-serif" font-size="13" lengthAdjust="spacing" textLength="288" x="213" y="407.73">per la registrazione degli impiegati</text></g><!--link registra_cliente to gestore--><g id="link_registra_cliente_gestore"><path d="M807.44,503.15 C962.39,487.01 1254.77,456.57 1398.92,441.56 " fill="none" id="registra_cliente-gestore" style="stroke:#181818;stroke-width:1.0;"/></g><!--link registra_cliente to cliente--><g id="link_registra_cliente_cliente"><path d="M771.78,534.15 C927.28,577.88 1322.04,663.15 1570.14,488.73 C1643.22,437.36 1667.77,327.08 1675.83,268.37 " fill="none" id="registra_cliente-cliente" style="stroke:#181818;stroke-width:1.0;"/><path d="M1263.14,543.73 L1263.14,568.73 L1364.14,568.73 L1364.14,553.73 L1354.14,543.73 L1263.14,543.73 " fill="#FEFFDD" style="stroke:#181818;stroke-width:0.5;"/><path d="M1354.14,543.73 L1354.14,553.73 L1364.14,553.73 L1354.14,543.73 " fill="#FEFFDD" style="stroke:#181818;stroke-width:0.5;"/><text fill="#000000" font-family="sans-serif" font-size="13" lengthAdjust="spacing" textLength="80" x="1269.14" y="560.73">Secondario</text></g><!--link registra_impiegato to registra_cliente--><!--link registra_impiegato to gestore--><g id="link_registra_impiegato_gestore"><path d="M825.59,428.5 C984.23,429.52 1260.04,431.3 1398.78,432.19 " fill="none" id="registra_impiegato-gestore" style="stroke:#181818;stroke-width:1.0;"/></g><!--link registra_prodotto to imp--><g id="link_registra_prodotto_imp"><path d="M605.63,585.86 C464.88,565.95 211.87,530.16 114.34,516.37 " fill="none" id="registra_prodotto-imp" style="stroke:#181818;stroke-width:1.0;"/></g><!--link registra_prodotto to pescatore--><g id="link_registra_prodotto_pescatore"><path d="M793.34,616.71 C901.91,636.91 1092.86,669.66 1258.14,683.73 C1397.97,695.64 1564.81,694.2 1639.74,692.73 " fill="none" id="registra_prodotto-pescatore" style="stroke:#181818;stroke-width:1.0;"/><path d="M1263.14,653.73 L1263.14,678.73 L1364.14,678.73 L1364.14,663.73 L1354.14,653.73 L1263.14,653.73 " fill="#FEFFDD" style="stroke:#181818;stroke-width:0.5;"/><path d="M1354.14,653.73 L1354.14,663.73 L1364.14,663.73 L1354.14,653.73 " fill="#FEFFDD" style="stroke:#181818;stroke-width:0.5;"/><text fill="#000000" font-family="sans-serif" font-size="13" lengthAdjust="spacing" textLength="80" x="1269.14" y="670.73">Secondario</text></g><!--link visualizza_inventario to cliente--><g id="link_visualizza_inventario_cliente"><path d="M1218.05,191.13 C1355.92,202.66 1569.43,220.52 1648.66,227.14 " fill="none" id="visualizza_inventario-cliente" style="stroke:#181818;stroke-width:1.0;"/></g><!--link visualizza_inventario to utente--><g id="link_visualizza_inventario_utente"><path d="M1201.39,163.46 C1252.4,154.79 1314.09,143.62 1369.14,131.73 C1462.25,111.63 1569.73,83.07 1630.69,66.37 " fill="none" id="visualizza_inventario-utente" style="stroke:#181818;stroke-width:1.0;"/></g><!--link acquisto_prodotti to cliente--><g id="link_acquisto_prodotti_cliente"><path d="M773.14,196.58 C824.01,207.72 895.71,221.68 959.49,227.73 C1225.22,252.97 1548.61,237.51 1648.66,231.67 " fill="none" id="acquisto_prodotti-cliente" style="stroke:#181818;stroke-width:1.0;"/></g><!--link acquisto_prodotti to visualizza_inventario--><g id="link_acquisto_prodotti_visualizza_inventario"><path d="M802.17,180.73 C847.87,180.73 903.3,180.73 953.39,180.73 " fill="none" id="acquisto_prodotti-to-visualizza_inventario" style="stroke:#181818;stroke-width:1.0;stroke-dasharray:7.0,7.0;"/><polygon fill="#181818" points="958.15,180.73,949.15,176.73,953.15,180.73,949.15,184.73,958.15,180.73" style="stroke:#181818;stroke-width:1.0;"/><text fill="#000000" font-family="sans-serif" font-size="13" lengthAdjust="spacing" textLength="72" x="856.49" y="176.73">&#171;Include&#187;</text></g><!--link tempo to genera_report--><g id="link_tempo_genera_report"><path d="M96.04,826.88 C163.62,827.05 377.32,825.45 552,800.73 C585.19,796.04 621.83,787.68 650.79,780.31 " fill="none" id="tempo-genera_report" style="stroke:#181818;stroke-width:1.0;"/></g><!--link gestore to genera_report--><g id="link_gestore_genera_report"><path d="M1465.7,471.68 C1446.8,508.38 1413.61,562.16 1369.14,592.73 C1270.76,660.39 919.14,728.25 771.63,754.45 " fill="none" id="gestore-genera_report" style="stroke:#181818;stroke-width:1.0;"/></g><!--link gestore to visualizza_report--><g id="link_gestore_visualizza_report"><path d="M1398.94,412.61 C1388.9,410.27 1378.8,407.94 1369.14,405.73 C1153.26,356.53 897.21,300.97 776.03,274.84 " fill="none" id="gestore-visualizza_report" style="stroke:#181818;stroke-width:1.0;"/></g><!--link visualizza_report to genera_report--><!--link tempo to genera_invio_fattura--><g id="link_tempo_genera_invio_fattura"><path d="M96.24,820.23 C115.74,814.51 145.16,806.11 171,799.73 C326.89,761.29 510.28,723.7 616.16,702.74 " fill="none" id="tempo-genera_invio_fattura" style="stroke:#181818;stroke-width:1.0;stroke-dasharray:7.0,7.0;"/></g><!--link sistema_fatture to genera_invio_fattura--><g id="link_sistema_fatture_genera_invio_fattura"><path d="M141.24,686.63 C247.52,686.46 456.56,686.13 587.71,685.92 " fill="none" id="sistema_fatture-genera_invio_fattura" style="stroke:#181818;stroke-width:1.0;"/><path d="M311,655.73 L311,680.73 L412,680.73 L412,665.73 L402,655.73 L311,655.73 " fill="#FEFFDD" style="stroke:#181818;stroke-width:0.5;"/><path d="M402,655.73 L402,665.73 L412,665.73 L402,655.73 " fill="#FEFFDD" style="stroke:#181818;stroke-width:0.5;"/><text fill="#000000" font-family="sans-serif" font-size="13" lengthAdjust="spacing" textLength="80" x="317" y="672.73">Secondario</text></g><!--link fattorino to visualizza_spedizioni--><g id="link_fattorino_visualizza_spedizioni"><path d="M114.34,189.05 C217.81,215.86 496.29,288 630.06,322.65 " fill="none" id="fattorino-visualizza_spedizioni" style="stroke:#181818;stroke-width:1.0;"/></g><!--link fattorino to conferma_spedizione--><g id="link_fattorino_conferma_spedizione"><path d="M114.34,173.86 C214.97,161.55 481.16,128.97 618.73,112.14 " fill="none" id="fattorino-conferma_spedizione" style="stroke:#181818;stroke-width:1.0;"/></g><!--link conferma_spedizione to cliente--><g id="link_conferma_spedizione_cliente"><path d="M801.87,102.55 C963.02,105.85 1296.91,120.99 1570.14,187.73 C1597.43,194.4 1627.12,206.09 1648.69,215.44 " fill="none" id="conferma_spedizione-cliente" style="stroke:#181818;stroke-width:1.0;"/><path d="M1263.14,104.73 L1263.14,129.73 L1364.14,129.73 L1364.14,114.73 L1354.14,104.73 L1263.14,104.73 " fill="#FEFFDD" style="stroke:#181818;stroke-width:0.5;"/><path d="M1354.14,104.73 L1354.14,114.73 L1364.14,114.73 L1354.14,104.73 " fill="#FEFFDD" style="stroke:#181818;stroke-width:0.5;"/><text fill="#000000" font-family="sans-serif" font-size="13" lengthAdjust="spacing" textLength="80" x="1269.14" y="121.73">Secondario</text></g><!--SRC=[jLLDQzmm4BthLmnxsPFp0q9OA0iDWH9AqlRI5AErnzuXjkJAyXQsxN-lP4kovO_aL5zsDM-Uvdc-N66XGKjGL9urvAGmqoG5uvcM2dRts9fVXAEK3IgkwS9tm5ie1xjtUwWRmf9hsODKD-2HOqKeDFRsRFZleQ_Qdbx4enHGoJBGEptr-enjncsi7clyQGgVKH6VHaWRR_LkJsJryfcIL0MpT_o2TJF8qFQVDpyRHwpvYyW9oBWh8wC-qU3P3c1QSAsxKTf7SvIAnE1K-1DZo-YGT4tovn0oj7WFc7imMoWkoWgDE5deNznKARzshplupS0yNOiPRmtwXAM9e_ZLb1KzlvUa79BwIz_WKLJXm0pcjxYDahdKSwgtninlr7QyeklLnnKN8uqhb-fBWDCHYM_uaFtiR69zMEg9t5bzM8f9zoXCUnjnZLJQTRYrf8DbI-EKC96sHd8H-ZSozHnwXKz3MK2w9kAR4Ti6SxAveNdK4Od9HoaAL3M7J8eMI-56nLb76hA_ZDdPjK-I9Cl-4DAqwiaMhGPPG4NYjG_rQH_w07Ay863Rekb7VgAAjEyEiq2Wuk7MeRuvakj9OYXoi27MHOojzbzab1M59fz8OVCaE5b-0IvW2qRvSWfluHbDplE-OPUixsVASnG_gjKtNfeY4ViDt9pO_dqHVX8XaDQXPB9- -rk7ZyRQtQjp6kLcsoFi_zd4HlGLzEQmlXxW5kxk7aHMTJaU3gpVww6Aqo5twNm7MSvvv1kLSkaxH4zkalMfdtrAfb9YnysgXk_CNEnaFSG-QvjWxEPktM4h_Zy0]--></g></svg>