<?xml version="1.0" encoding="us-ascii" standalone="no"?><svg xmlns="http://www.w3.org/2000/svg" xmlns:xlink="http://www.w3.org/1999/xlink" contentStyleType="text/css" height="959px" preserveAspectRatio="none" style="width:1265px;height:959px;background:#FFFFFF;" version="1.1" viewBox="0 0 1265 959" width="1265px" zoomAndPan="magnify"><defs/><g><!--cluster Software dzuk--><g id="cluster_Software dzuk"><rect fill="none" height="946" rx="2.5" ry="2.5" style="stroke:#181818;stroke-width:1.0;" width="307.16" x="482" y="7"/><text fill="#000000" font-family="sans-serif" font-size="14" font-weight="bold" lengthAdjust="spacing" textLength="117" x="577.08" y="21.9231">Software dzuk</text></g><g id="elem_registra_cliente"><ellipse cx="635.577" cy="496.0034" fill="#F1F1F1" rx="112.617" ry="24.9234" style="stroke:#181818;stroke-width:0.5;"/><text fill="#000000" font-family="sans-serif" font-size="14" lengthAdjust="spacing" textLength="189" x="538.077" y="499.7149">Registrazione cliente</text></g><g id="elem_registra_impiegato"><ellipse cx="635.5839" cy="69.9988" fill="#F1F1F1" rx="120.7439" ry="26.5488" style="stroke:#181818;stroke-width:0.5;"/><text fill="#000000" font-family="sans-serif" font-size="14" lengthAdjust="spacing" textLength="207" x="530.5419" y="73.0904">Registrazione impiegato</text></g><g id="elem_registra_prodotto"><ellipse cx="635.5802" cy="582" fill="#F1F1F1" rx="116.6502" ry="25.73" style="stroke:#181818;stroke-width:0.5;"/><text fill="#000000" font-family="sans-serif" font-size="14" lengthAdjust="spacing" textLength="198" x="534.3108" y="585.4141">Registrazione prodotto</text></g><g id="elem_visualizza_inventario"><ellipse cx="635.5751" cy="232.995" fill="#F1F1F1" rx="133.3251" ry="29.065" style="stroke:#181818;stroke-width:0.5;"/><text fill="#000000" font-family="sans-serif" font-size="14" lengthAdjust="spacing" textLength="234" x="518.5751" y="235.3027">Visualizzazione inventario</text></g><g id="elem_acquisto_prodotti"><ellipse cx="635.5775" cy="751.0035" fill="#F1F1F1" rx="96.9675" ry="21.7935" style="stroke:#181818;stroke-width:0.5;"/><text fill="#000000" font-family="sans-serif" font-size="14" lengthAdjust="spacing" textLength="153" x="556.0775" y="754.715">Acquisto prodotti</text></g><g id="elem_visualizza_spedizioni"><ellipse cx="635.577" cy="912.0034" fill="#F1F1F1" rx="112.617" ry="24.9234" style="stroke:#181818;stroke-width:0.5;"/><text fill="#000000" font-family="sans-serif" font-size="14" lengthAdjust="spacing" textLength="189" x="538.077" y="915.7149">Visualizza spedizioni</text></g><g id="elem_genera_report"><ellipse cx="635.5814" cy="150.0043" fill="#F1F1F1" rx="82.3214" ry="18.8643" style="stroke:#181818;stroke-width:0.5;"/><text fill="#000000" font-family="sans-serif" font-size="14" lengthAdjust="spacing" textLength="117" x="574.0814" y="153.7158">Genera report</text></g><g id="elem_visualizza_report"><ellipse cx="635.5775" cy="319.0035" fill="#F1F1F1" rx="96.9675" ry="21.7935" style="stroke:#181818;stroke-width:0.5;"/><text fill="#000000" font-family="sans-serif" font-size="14" lengthAdjust="spacing" textLength="153" x="556.0775" y="322.715">Visualizza report</text></g><g id="elem_genera_invio_fattura"><ellipse cx="635.5802" cy="668" fill="#F1F1F1" rx="116.6502" ry="25.73" style="stroke:#181818;stroke-width:0.5;"/><text fill="#000000" font-family="sans-serif" font-size="14" lengthAdjust="spacing" textLength="198" x="534.3108" y="671.4141">Genera e invia fattura</text></g><g id="elem_conferma_spedizione"><ellipse cx="635.5775" cy="830.0035" fill="#F1F1F1" rx="96.9675" ry="21.7935" style="stroke:#181818;stroke-width:0.5;"/><text fill="#000000" font-family="sans-serif" font-size="14" lengthAdjust="spacing" textLength="153" x="556.0775" y="833.715">Conferma consegna</text></g><g id="elem_registra_tipologia_prodotto"><ellipse cx="635.5804" cy="405.9961" fill="#F1F1F1" rx="137.5804" ry="29.9161" style="stroke:#181818;stroke-width:0.5;"/><text fill="#000000" font-family="sans-serif" font-size="14" lengthAdjust="spacing" textLength="243" x="514.0804" y="408.3038">Registra tipologia prodotto</text></g><!--entity gestore--><g id="elem_gestore"><ellipse cx="91.5" cy="288.88" fill="#F1F1F1" rx="8" ry="8" style="stroke:#181818;stroke-width:0.5;"/><path d="M91.5,296.88 L91.5,323.88 M78.5,304.88 L104.5,304.88 M91.5,323.88 L78.5,338.88 M91.5,323.88 L104.5,338.88 " fill="none" style="stroke:#181818;stroke-width:0.5;"/><text fill="#000000" font-family="sans-serif" font-size="14" lengthAdjust="spacing" textLength="171" x="6" y="353.3031">Gestore Cooperativa</text></g><!--entity impiegato--><g id="elem_impiegato"><ellipse cx="1057.66" cy="338.88" fill="#F1F1F1" rx="8" ry="8" style="stroke:#181818;stroke-width:0.5;"/><path d="M1057.66,346.88 L1057.66,373.88 M1044.66,354.88 L1070.66,354.88 M1057.66,373.88 L1044.66,388.88 M1057.66,373.88 L1070.66,388.88 " fill="none" style="stroke:#181818;stroke-width:0.5;"/><text fill="#000000" font-family="sans-serif" font-size="14" lengthAdjust="spacing" textLength="81" x="1017.16" y="403.3031">Impiegato</text></g><!--entity cliente--><g id="elem_cliente"><ellipse cx="1057.66" cy="547.88" fill="#F1F1F1" rx="8" ry="8" style="stroke:#181818;stroke-width:0.5;"/><path d="M1057.66,555.88 L1057.66,582.88 M1044.66,563.88 L1070.66,563.88 M1057.66,582.88 L1044.66,597.88 M1057.66,582.88 L1070.66,597.88 " fill="none" style="stroke:#181818;stroke-width:0.5;"/><text fill="#000000" font-family="sans-serif" font-size="14" lengthAdjust="spacing" textLength="63" x="1026.16" y="612.3031">Cliente</text></g><!--entity utente--><g id="elem_utente"><ellipse cx="1057.66" cy="194.27" fill="#F1F1F1" rx="8" ry="8" style="stroke:#181818;stroke-width:0.5;"/><path d="M1057.66,202.27 L1057.66,229.27 M1044.66,210.27 L1070.66,210.27 M1057.66,229.27 L1044.66,244.27 M1057.66,229.27 L1070.66,244.27 " fill="none" style="stroke:#181818;stroke-width:0.5;"/><text fill="#000000" font-family="sans-serif" font-size="14" lengthAdjust="spacing" textLength="54" x="1008.16" y="258.6931">Utente</text><text fill="#000000" font-family="sans-serif" font-size="14" lengthAdjust="spacing" textLength="99" x="1008.16" y="275.9239">Non loggato</text></g><!--entity pescatore--><g id="elem_pescatore"><ellipse cx="91.5" cy="525.88" fill="#F1F1F1" rx="8" ry="8" style="stroke:#181818;stroke-width:0.5;"/><path d="M91.5,533.88 L91.5,560.88 M78.5,541.88 L104.5,541.88 M91.5,560.88 L78.5,575.88 M91.5,560.88 L104.5,575.88 " fill="none" style="stroke:#181818;stroke-width:0.5;"/><text fill="#000000" font-family="sans-serif" font-size="14" lengthAdjust="spacing" textLength="81" x="51" y="590.3031">Pescatore</text></g><!--entity cliente_pescheria--><g id="elem_cliente_pescheria"><ellipse cx="1213.16" cy="491.88" fill="#F1F1F1" rx="8" ry="8" style="stroke:#181818;stroke-width:0.5;"/><path d="M1213.16,499.88 L1213.16,526.88 M1200.16,507.88 L1226.16,507.88 M1213.16,526.88 L1200.16,541.88 M1213.16,526.88 L1226.16,541.88 " fill="none" style="stroke:#181818;stroke-width:0.5;"/><text fill="#000000" font-family="sans-serif" font-size="14" lengthAdjust="spacing" textLength="81" x="1172.66" y="556.3031">Pescheria</text></g><!--entity cliente_ristorante--><g id="elem_cliente_ristorante"><ellipse cx="1213.16" cy="603.88" fill="#F1F1F1" rx="8" ry="8" style="stroke:#181818;stroke-width:0.5;"/><path d="M1213.16,611.88 L1213.16,638.88 M1200.16,619.88 L1226.16,619.88 M1213.16,638.88 L1200.16,653.88 M1213.16,638.88 L1226.16,653.88 " fill="none" style="stroke:#181818;stroke-width:0.5;"/><text fill="#000000" font-family="sans-serif" font-size="14" lengthAdjust="spacing" textLength="90" x="1168.16" y="668.3031">Ristorante</text></g><!--entity tempo--><g id="elem_tempo"><ellipse cx="91.5" cy="637.88" fill="#F1F1F1" rx="8" ry="8" style="stroke:#181818;stroke-width:0.5;"/><path d="M91.5,645.88 L91.5,672.88 M78.5,653.88 L104.5,653.88 M91.5,672.88 L78.5,687.88 M91.5,672.88 L104.5,687.88 " fill="none" style="stroke:#181818;stroke-width:0.5;"/><text fill="#000000" font-family="sans-serif" font-size="14" lengthAdjust="spacing" textLength="45" x="69" y="702.3031">Tempo</text></g><!--entity fattorino--><g id="elem_fattorino"><ellipse cx="1057.66" cy="840.88" fill="#F1F1F1" rx="8" ry="8" style="stroke:#181818;stroke-width:0.5;"/><path d="M1057.66,848.88 L1057.66,875.88 M1044.66,856.88 L1070.66,856.88 M1057.66,875.88 L1044.66,890.88 M1057.66,875.88 L1070.66,890.88 " fill="none" style="stroke:#181818;stroke-width:0.5;"/><text fill="#000000" font-family="sans-serif" font-size="14" lengthAdjust="spacing" textLength="81" x="1017.16" y="905.3031">Fattorino</text></g><!--entity servizio_email--><g id="elem_servizio_email"><ellipse cx="91.5" cy="749.88" fill="#F1F1F1" rx="8" ry="8" style="stroke:#181818;stroke-width:0.5;"/><path d="M91.5,757.88 L91.5,784.88 M78.5,765.88 L104.5,765.88 M91.5,784.88 L78.5,799.88 M91.5,784.88 L104.5,799.88 " fill="none" style="stroke:#181818;stroke-width:0.5;"/><text fill="#000000" font-family="sans-serif" font-size="14" lengthAdjust="spacing" textLength="126" x="28.5" y="814.3031">Servizio Email</text></g><!--reverse link cliente to cliente_ristorante--><g id="link_cliente_cliente_ristorante"><path d="M1109.39,596.51 C1128.29,603.4 1149.57,611.17 1167.85,617.83 " fill="none" id="cliente-backto-cliente_ristorante" style="stroke:#181818;stroke-width:1.0;"/><polygon fill="none" points="1107.17,603.15,1090.78,589.72,1111.96,590,1107.17,603.15" style="stroke:#181818;stroke-width:1.0;"/></g><!--reverse link cliente to cliente_pescheria--><g id="link_cliente_cliente_pescheria"><path d="M1109.34,559.51 C1129.77,552.06 1152.99,543.59 1172.19,536.58 " fill="none" id="cliente-backto-cliente_pescheria" style="stroke:#181818;stroke-width:1.0;"/><polygon fill="none" points="1111.96,566,1090.78,566.28,1107.17,552.85,1111.96,566" style="stroke:#181818;stroke-width:1.0;"/></g><!--link gestore to registra_cliente--><g id="link_gestore_registra_cliente"><path d="M177.49,350.94 C254.4,379.35 371.05,421.19 474,453 C501.85,461.61 532.72,470.11 559.89,477.26 " fill="none" id="gestore-registra_cliente" style="stroke:#181818;stroke-width:1.0;"/></g><!--link registra_cliente to cliente--><g id="link_registra_cliente_cliente"><path d="M721.34,512.54 C815.53,530.93 962.69,559.66 1026,572.02 " fill="none" id="registra_cliente-cliente" style="stroke:#181818;stroke-width:1.0;"/><path d="M841.16,506 L841.16,531 L942.16,531 L942.16,516 L932.16,506 L841.16,506 " fill="#FEFFDD" style="stroke:#181818;stroke-width:0.5;"/><path d="M932.16,506 L932.16,516 L942.16,516 L932.16,506 " fill="#FEFFDD" style="stroke:#181818;stroke-width:0.5;"/><text fill="#000000" font-family="sans-serif" font-size="13" lengthAdjust="spacing" textLength="80" x="847.16" y="523">Secondario</text></g><!--link gestore to registra_impiegato--><g id="link_gestore_registra_impiegato"><path d="M144.21,280.02 C171.36,260.45 205.64,237.12 238,219 C338.17,162.92 365.89,152.61 474,114 C499.45,104.91 527.73,96.59 553.38,89.69 " fill="none" id="gestore-registra_impiegato" style="stroke:#181818;stroke-width:1.0;"/></g><!--link registra_impiegato to impiegato--><g id="link_registra_impiegato_impiegato"><path d="M729.81,86.97 C752.76,93.42 776.61,102.18 797.16,114 C895.71,170.69 983.97,273.73 1027.68,329.91 " fill="none" id="registra_impiegato-impiegato" style="stroke:#181818;stroke-width:1.0;"/><path d="M841.16,110 L841.16,135 L942.16,135 L942.16,120 L932.16,110 L841.16,110 " fill="#FEFFDD" style="stroke:#181818;stroke-width:0.5;"/><path d="M932.16,110 L932.16,120 L942.16,120 L932.16,110 " fill="#FEFFDD" style="stroke:#181818;stroke-width:0.5;"/><text fill="#000000" font-family="sans-serif" font-size="13" lengthAdjust="spacing" textLength="80" x="847.16" y="127">Secondario</text></g><!--link registra_prodotto to impiegato--><g id="link_registra_prodotto_impiegato"><path d="M734.51,595.96 C799.6,600.2 884.33,595.59 947.16,556 C1000.79,522.2 1031.26,451.88 1045.83,407.76 " fill="none" id="registra_prodotto-impiegato" style="stroke:#181818;stroke-width:1.0;"/></g><!--link pescatore to registra_prodotto--><g id="link_pescatore_registra_prodotto"><path d="M132.36,557.91 C213.29,561.79 399.48,570.72 521.01,576.55 " fill="none" id="pescatore-registra_prodotto" style="stroke:#181818;stroke-width:1.0;"/><path d="M243,534 L243,559 L344,559 L344,544 L334,534 L243,534 " fill="#FEFFDD" style="stroke:#181818;stroke-width:0.5;"/><path d="M334,534 L334,544 L344,544 L334,534 " fill="#FEFFDD" style="stroke:#181818;stroke-width:0.5;"/><text fill="#000000" font-family="sans-serif" font-size="13" lengthAdjust="spacing" textLength="80" x="249" y="551">Secondario</text></g><!--link visualizza_inventario to cliente--><g id="link_visualizza_inventario_cliente"><path d="M735.95,252.51 C757.15,259.23 778.69,268.17 797.16,280 C904.76,348.9 993.15,475.28 1033.33,539.03 " fill="none" id="visualizza_inventario-cliente" style="stroke:#181818;stroke-width:1.0;"/></g><!--link visualizza_inventario to utente--><g id="link_visualizza_inventario_utente"><path d="M769.21,233 C850.47,233 949.72,233 1007.79,233 " fill="none" id="visualizza_inventario-utente" style="stroke:#181818;stroke-width:1.0;"/></g><!--link acquisto_prodotti to cliente--><g id="link_acquisto_prodotti_cliente"><path d="M719.75,739.85 C784.53,728.73 875.23,707.71 947.16,670 C976.63,654.55 1005.25,630.07 1025.84,610.24 " fill="none" id="acquisto_prodotti-cliente" style="stroke:#181818;stroke-width:1.0;"/></g><!--link servizio_email to acquisto_prodotti--><g id="link_servizio_email_acquisto_prodotti"><path d="M154.95,776.66 C249.74,771.59 430.58,761.91 541.1,756 " fill="none" id="servizio_email-acquisto_prodotti" style="stroke:#181818;stroke-width:1.0;"/><path d="M243,737 L243,762 L344,762 L344,747 L334,737 L243,737 " fill="#FEFFDD" style="stroke:#181818;stroke-width:0.5;"/><path d="M334,737 L334,747 L344,747 L334,737 " fill="#FEFFDD" style="stroke:#181818;stroke-width:0.5;"/><text fill="#000000" font-family="sans-serif" font-size="13" lengthAdjust="spacing" textLength="80" x="249" y="754">Secondario</text></g><!--link gestore to genera_report--><g id="link_gestore_genera_report"><path d="M177.21,286.32 C253.93,257.48 370.47,215.55 474,186 C506.01,176.87 542.14,168.59 572.01,162.28 " fill="none" id="gestore-genera_report" style="stroke:#181818;stroke-width:1.0;"/></g><!--link gestore to visualizza_report--><g id="link_gestore_visualizza_report"><path d="M177.5,319 C275.38,319 435.82,319 538.25,319 " fill="none" id="gestore-visualizza_report" style="stroke:#181818;stroke-width:1.0;"/></g><!--link tempo to genera_invio_fattura--><g id="link_tempo_genera_invio_fattura"><path d="M114.42,668 C181.42,668 386.92,668 518.68,668 " fill="none" id="tempo-genera_invio_fattura" style="stroke:#181818;stroke-width:1.0;"/></g><!--link genera_invio_fattura to cliente--><g id="link_genera_invio_fattura_cliente"><path d="M752.38,668.5 C811.77,665.95 884.57,658.41 947.16,639 C975.43,630.23 1004.57,613.57 1025.67,599.87 " fill="none" id="genera_invio_fattura-cliente" style="stroke:#181818;stroke-width:1.0;"/><path d="M841.16,609 L841.16,634 L942.16,634 L942.16,619 L932.16,609 L841.16,609 " fill="#FEFFDD" style="stroke:#181818;stroke-width:0.5;"/><path d="M932.16,609 L932.16,619 L942.16,619 L932.16,609 " fill="#FEFFDD" style="stroke:#181818;stroke-width:0.5;"/><text fill="#000000" font-family="sans-serif" font-size="13" lengthAdjust="spacing" textLength="80" x="847.16" y="626">Secondario</text></g><!--link visualizza_spedizioni to fattorino--><g id="link_visualizza_spedizioni_fattorino"><path d="M739.34,901.97 C828.73,893.25 953.55,881.06 1016.69,874.9 " fill="none" id="visualizza_spedizioni-fattorino" style="stroke:#181818;stroke-width:1.0;"/></g><!--link conferma_spedizione to fattorino--><g id="link_conferma_spedizione_fattorino"><path d="M731.53,833.69 C800.26,837.15 895.25,843.56 978.16,855 C990.84,856.75 1004.54,859.31 1016.9,861.87 " fill="none" id="conferma_spedizione-fattorino" style="stroke:#181818;stroke-width:1.0;"/></g><!--link gestore to registra_tipologia_prodotto--><g id="link_gestore_registra_tipologia_prodotto"><path d="M177.5,332.64 C270.91,347.63 421.3,371.77 523.86,388.23 " fill="none" id="gestore-registra_tipologia_prodotto" style="stroke:#181818;stroke-width:1.0;"/></g><!--link visualizza_inventario to acquisto_prodotti--><g id="link_visualizza_inventario_acquisto_prodotti"><path d="M523.89,249.24 C505.36,256.2 487.75,266.06 474,280 C458.74,295.47 399.06,434.23 414.51,530.5 C427.9,613.9 412.06,653.58 474,711 C492.76,728.39 517.85,738.53 542.67,744.37 " fill="none" id="visualizza_inventario-acquisto_prodotti" style="stroke:#181818;stroke-width:1.0;"/><path d="M384,500.5 L384,525.5 L461,525.5 L461,510.5 L451,500.5 L384,500.5 " fill="#FEFFDD" style="stroke:#181818;stroke-width:0.5;"/><path d="M451,500.5 L451,510.5 L461,510.5 L451,500.5 " fill="#FEFFDD" style="stroke:#181818;stroke-width:0.5;"/><text fill="#000000" font-family="sans-serif" font-size="13" lengthAdjust="spacing" textLength="56" x="390" y="517.5">Estende</text></g><!--SRC=[bLJ1ZjmW3BtdAwovvmTwg5IDjgjUgcgtxQbIX18dQsq6A92fD6t_lK02WOJigBaalEV7Sx3nYBq18q3Hy6AW8uMj8S4hrXgXuFI8shuHpa98LCpGbPs0QHXcF8HzkaZ2WHdXIGghG9z7GcxGa-ty7QXlngr-yC-2moY6kCTaqgWlg5lc33qdmogbNr0HInqQ6T0GzaGkQRR9f54H3e5VyIBdD8px2l17PkoR-4prOHNePrHNkf60XmkZqSVe1MhGGLMrjuHwalMVz_5OTid3Dg9o9M9y6D5QYjxyOhO-tMrwFS7l2kmpQMoPjkmJ3jP7CPi0nw3tUQc5QSAcR-WegsrKhaL-GokLw8JPIWEQAx-JdjX8jrlmvLUR6bCqgw-HRbOct-53-tDo1njioGlPWWPREh85BR5prUAqTLoPNFo8tDuA-sTIABDS38SqCtBeb0WIbv9eSV37OPl1DTsaM6hb2D4iH2u-2zwZkZ1e1TSuyEL-BEZwLmVr1qDIs4jfVSk5ZFnQqhzLjSm6gEjwtsXRm4S5aWiBp9D8z30IVtq7psZpxNonopklZRY7VEGQS6__NOTkz77mv1d4dx-tVx67inCuZeW3STFDcJoVDvxQj_-TBDD3phivPVPjwqTbgieRimJ-J_6Bjz5li0xYGcTl8eeTL6ZZuZcFzS4Kygd7f1-qBLM7_m00]--></g></svg>