<?xml version="1.0" encoding="us-ascii" standalone="no"?><svg xmlns="http://www.w3.org/2000/svg" xmlns:xlink="http://www.w3.org/1999/xlink" contentStyleType="text/css" height="1274px" preserveAspectRatio="none" style="width:4139px;height:1274px;background:#FFFFFF;" version="1.1" viewBox="0 0 4139 1274" width="4139px" zoomAndPan="magnify"><defs/><g><!--cluster Entity--><g id="cluster_Entity"><path d="M526.5,218.1977 L581.5,218.1977 A3.75,3.75 0 0 1 584,220.6977 L591,241.4285 L1318.5,241.4285 A2.5,2.5 0 0 1 1321,243.9285 L1321,1264.6177 A2.5,2.5 0 0 1 1318.5,1267.1177 L526.5,1267.1177 A2.5,2.5 0 0 1 524,1264.6177 L524,220.6977 A2.5,2.5 0 0 1 526.5,218.1977 " fill="none" style="stroke:#000000;stroke-width:1.5;"/><line style="stroke:#000000;stroke-width:1.5;" x1="524" x2="591" y1="241.4285" y2="241.4285"/><text fill="#000000" font-family="sans-serif" font-size="14" font-weight="bold" lengthAdjust="spacing" textLength="54" x="528" y="233.1208">Entity</text></g><!--cluster Boundary--><g id="cluster_Boundary"><path d="M2723.5,6.8077 L2796.5,6.8077 A3.75,3.75 0 0 1 2799,9.3077 L2806,30.0385 L4129.5,30.0385 A2.5,2.5 0 0 1 4132,32.5385 L4132,401.8477 A2.5,2.5 0 0 1 4129.5,404.3477 L2723.5,404.3477 A2.5,2.5 0 0 1 2721,401.8477 L2721,9.3077 A2.5,2.5 0 0 1 2723.5,6.8077 " fill="none" style="stroke:#000000;stroke-width:1.5;"/><line style="stroke:#000000;stroke-width:1.5;" x1="2721" x2="2806" y1="30.0385" y2="30.0385"/><text fill="#000000" font-family="sans-serif" font-size="14" font-weight="bold" lengthAdjust="spacing" textLength="72" x="2725" y="21.7308">Boundary</text></g><!--cluster Controller--><g id="cluster_Controller"><path d="M2142.5,464.0377 L2233.5,464.0377 A3.75,3.75 0 0 1 2236,466.5377 L2243,487.2685 L2522.5,487.2685 A2.5,2.5 0 0 1 2525,489.7685 L2525,902.1577 A2.5,2.5 0 0 1 2522.5,904.6577 L2142.5,904.6577 A2.5,2.5 0 0 1 2140,902.1577 L2140,466.5377 A2.5,2.5 0 0 1 2142.5,464.0377 " fill="none" style="stroke:#000000;stroke-width:1.5;"/><line style="stroke:#000000;stroke-width:1.5;" x1="2140" x2="2243" y1="487.2685" y2="487.2685"/><text fill="#000000" font-family="sans-serif" font-size="14" font-weight="bold" lengthAdjust="spacing" textLength="90" x="2144" y="478.9608">Controller</text></g><!--cluster Utility--><g id="cluster_Utility"><path d="M1347.5,6.8077 L1411.5,6.8077 A3.75,3.75 0 0 1 1414,9.3077 L1421,30.0385 L2694.5,30.0385 A2.5,2.5 0 0 1 2697,32.5385 L2697,393.2277 A2.5,2.5 0 0 1 2694.5,395.7277 L1347.5,395.7277 A2.5,2.5 0 0 1 1345,393.2277 L1345,9.3077 A2.5,2.5 0 0 1 1347.5,6.8077 " fill="none" style="stroke:#000000;stroke-width:1.5;"/><line style="stroke:#000000;stroke-width:1.5;" x1="1345" x2="1421" y1="30.0385" y2="30.0385"/><text fill="#000000" font-family="sans-serif" font-size="14" font-weight="bold" lengthAdjust="spacing" textLength="63" x="1349" y="21.7308">Utility</text></g><!--cluster DAO--><g id="cluster_DAO"><path d="M8.5,972.9677 L36.5,972.9677 A3.75,3.75 0 0 1 39,975.4677 L46,996.1985 L497.5,996.1985 A2.5,2.5 0 0 1 500,998.6985 L500,1238.7677 A2.5,2.5 0 0 1 497.5,1241.2677 L8.5,1241.2677 A2.5,2.5 0 0 1 6,1238.7677 L6,975.4677 A2.5,2.5 0 0 1 8.5,972.9677 " fill="none" style="stroke:#000000;stroke-width:1.5;"/><line style="stroke:#000000;stroke-width:1.5;" x1="6" x2="46" y1="996.1985" y2="996.1985"/><text fill="#000000" font-family="sans-serif" font-size="14" font-weight="bold" lengthAdjust="spacing" textLength="27" x="10" y="987.8908">DAO</text></g><!--class CategoriaProdotto--><g id="elem_CategoriaProdotto"><rect codeLine="2" fill="#F1F1F1" height="134.154" id="CategoriaProdotto" rx="2.5" ry="2.5" style="stroke:#181818;stroke-width:0.5;" width="264" x="554" y="745.8877"/><ellipse cx="605.25" cy="761.8877" fill="#ADD1B2" rx="11" ry="11" style="stroke:#181818;stroke-width:1.0;"/><path d="M604.9844,755.9971 Q606.2969,755.9971 607.2031,756.3408 Q608.1094,756.6846 608.875,757.3096 L607.4688,759.0127 Q606.9688,758.5908 606.3594,758.3564 Q605.7656,758.1221 605.0625,758.1221 Q604.2969,758.1221 603.6719,758.5596 Q603.0469,758.9814 602.6719,759.9189 Q602.2969,760.8408 602.2969,762.3252 Q602.2969,764.4971 603.0781,765.4971 Q603.875,766.4814 605.1094,766.4814 Q606.0156,766.4814 606.6094,766.1377 Q607.2188,765.7939 607.7344,765.4033 L609.0313,767.0596 Q608.3438,767.7314 607.3438,768.2158 Q606.3594,768.6846 604.9531,768.6846 Q603.3125,768.6846 602.0469,767.9658 Q600.7813,767.2314 600.0625,765.8096 Q599.3438,764.3877 599.3438,762.3252 Q599.3438,760.2939 600.0781,758.8877 Q600.8281,757.4658 602.1094,756.7314 Q603.3906,755.9971 604.9844,755.9971 Z " fill="#000000"/><text fill="#000000" font-family="sans-serif" font-size="14" lengthAdjust="spacing" textLength="153" x="625.75" y="766.1954">CategoriaProdotto</text><line style="stroke:#181818;stroke-width:0.5;" x1="555" x2="817" y1="777.8877" y2="777.8877"/><text fill="#000000" font-family="sans-serif" font-size="14" lengthAdjust="spacing" textLength="90" x="560" y="794.8108">int codice</text><text fill="#000000" font-family="sans-serif" font-size="14" lengthAdjust="spacing" textLength="252" x="560" y="812.0416">PossibiliCategorie categoria</text><text fill="#000000" font-family="sans-serif" font-size="14" lengthAdjust="spacing" textLength="234" x="560" y="829.2724">TipoCategoriaProdotto tipo</text><text fill="#000000" font-family="sans-serif" font-size="14" lengthAdjust="spacing" textLength="162" x="560" y="846.5032">string descrizione</text><text fill="#000000" font-family="sans-serif" font-size="14" lengthAdjust="spacing" textLength="162" x="560" y="863.734">float prezzo al kg</text><line style="stroke:#181818;stroke-width:0.5;" x1="555" x2="817" y1="872.0417" y2="872.0417"/></g><!--class PossibiliCategorie--><g id="elem_PossibiliCategorie"><rect codeLine="9" fill="#F1F1F1" height="99.6924" id="PossibiliCategorie" rx="2.5" ry="2.5" style="stroke:#181818;stroke-width:0.5;" width="194" x="540" y="1151.4277"/><ellipse cx="555" cy="1167.4277" fill="#EB937F" rx="11" ry="11" style="stroke:#181818;stroke-width:1.0;"/><path d="M553.4844,1163.8808 L553.4844,1166.7871 L557.6719,1166.7871 L557.6719,1168.7871 L553.4844,1168.7871 L553.4844,1171.8808 L558.5313,1171.8808 L558.5313,1173.9277 L550.625,1173.9277 L550.625,1161.8496 L558.5156,1161.8496 L558.2344,1163.8808 L553.4844,1163.8808 Z " fill="#000000"/><text fill="#000000" font-family="sans-serif" font-size="14" lengthAdjust="spacing" textLength="162" x="569" y="1171.7354">PossibiliCategorie</text><line style="stroke:#181818;stroke-width:0.5;" x1="541" x2="733" y1="1183.4277" y2="1183.4277"/><text fill="#000000" font-family="sans-serif" font-size="14" lengthAdjust="spacing" textLength="45" x="546" y="1200.3508">Pesci</text><text fill="#000000" font-family="sans-serif" font-size="14" lengthAdjust="spacing" textLength="81" x="546" y="1217.5816">Crostacei</text><text fill="#000000" font-family="sans-serif" font-size="14" lengthAdjust="spacing" textLength="81" x="546" y="1234.8124">Molluschi</text><line style="stroke:#181818;stroke-width:0.5;" x1="541" x2="733" y1="1243.1201" y2="1243.1201"/></g><!--class TipoCategoriaProdotto--><g id="elem_TipoCategoriaProdotto"><rect codeLine="14" fill="#F1F1F1" height="99.6924" id="TipoCategoriaProdotto" rx="2.5" ry="2.5" style="stroke:#181818;stroke-width:0.5;" width="221" x="768.5" y="1151.4277"/><ellipse cx="783.5" cy="1167.4277" fill="#EB937F" rx="11" ry="11" style="stroke:#181818;stroke-width:1.0;"/><path d="M781.9844,1163.8808 L781.9844,1166.7871 L786.1719,1166.7871 L786.1719,1168.7871 L781.9844,1168.7871 L781.9844,1171.8808 L787.0313,1171.8808 L787.0313,1173.9277 L779.125,1173.9277 L779.125,1161.8496 L787.0156,1161.8496 L786.7344,1163.8808 L781.9844,1163.8808 Z " fill="#000000"/><text fill="#000000" font-family="sans-serif" font-size="14" lengthAdjust="spacing" textLength="189" x="797.5" y="1171.7354">TipoCategoriaProdotto</text><line style="stroke:#181818;stroke-width:0.5;" x1="769.5" x2="988.5" y1="1183.4277" y2="1183.4277"/><text fill="#000000" font-family="sans-serif" font-size="14" lengthAdjust="spacing" textLength="54" x="774.5" y="1200.3508">Verace</text><text fill="#000000" font-family="sans-serif" font-size="14" lengthAdjust="spacing" textLength="99" x="774.5" y="1217.5816">Allevamento</text><text fill="#000000" font-family="sans-serif" font-size="14" lengthAdjust="spacing" textLength="81" x="774.5" y="1234.8124">Congelato</text><line style="stroke:#181818;stroke-width:0.5;" x1="769.5" x2="988.5" y1="1243.1201" y2="1243.1201"/></g><!--class Utente--><g id="elem_Utente"><rect codeLine="22" fill="#F1F1F1" height="82.4616" id="Utente" rx="2.5" ry="2.5" style="stroke:#181818;stroke-width:0.5;" width="147" x="890.5" y="771.7377"/><ellipse cx="932.95" cy="787.7377" fill="#A9DCDF" rx="11" ry="11" style="stroke:#181818;stroke-width:1.0;"/><path d="M934.6688,790.6283 L931.1375,790.6283 L930.4969,793.2377 L927.5125,793.2377 L931.2,781.1596 L934.6688,781.1596 L938.3719,793.2377 L935.3094,793.2377 L934.6688,790.6283 Z M931.5906,788.5502 L934.2,788.5502 L932.9031,783.2064 L931.5906,788.5502 Z " fill="#000000"/><text fill="#000000" font-family="sans-serif" font-size="14" font-style="italic" lengthAdjust="spacing" textLength="54" x="953.05" y="792.0454">Utente</text><line style="stroke:#181818;stroke-width:0.5;" x1="891.5" x2="1036.5" y1="803.7377" y2="803.7377"/><text fill="#000000" font-family="sans-serif" font-size="14" lengthAdjust="spacing" textLength="135" x="896.5" y="820.6608">string username</text><text fill="#000000" font-family="sans-serif" font-size="14" lengthAdjust="spacing" textLength="135" x="896.5" y="837.8916">string password</text><line style="stroke:#181818;stroke-width:0.5;" x1="891.5" x2="1036.5" y1="846.1993" y2="846.1993"/></g><!--class Cliente--><g id="elem_Cliente"><rect codeLine="26" fill="#F1F1F1" height="116.9232" id="Cliente" rx="2.5" ry="2.5" style="stroke:#181818;stroke-width:0.5;" width="156" x="1055" y="974.4977"/><ellipse cx="1097.45" cy="990.4977" fill="#ADD1B2" rx="11" ry="11" style="stroke:#181818;stroke-width:1.0;"/><path d="M1097.1844,984.6071 Q1098.4969,984.6071 1099.4031,984.9508 Q1100.3094,985.2946 1101.075,985.9196 L1099.6688,987.6227 Q1099.1688,987.2008 1098.5594,986.9664 Q1097.9656,986.7321 1097.2625,986.7321 Q1096.4969,986.7321 1095.8719,987.1696 Q1095.2469,987.5914 1094.8719,988.5289 Q1094.4969,989.4508 1094.4969,990.9352 Q1094.4969,993.1071 1095.2781,994.1071 Q1096.075,995.0914 1097.3094,995.0914 Q1098.2156,995.0914 1098.8094,994.7477 Q1099.4188,994.4039 1099.9344,994.0133 L1101.2313,995.6696 Q1100.5438,996.3414 1099.5438,996.8258 Q1098.5594,997.2946 1097.1531,997.2946 Q1095.5125,997.2946 1094.2469,996.5758 Q1092.9813,995.8414 1092.2625,994.4196 Q1091.5438,992.9977 1091.5438,990.9352 Q1091.5438,988.9039 1092.2781,987.4977 Q1093.0281,986.0758 1094.3094,985.3414 Q1095.5906,984.6071 1097.1844,984.6071 Z " fill="#000000"/><text fill="#000000" font-family="sans-serif" font-size="14" lengthAdjust="spacing" textLength="63" x="1117.55" y="994.8054">Cliente</text><line style="stroke:#181818;stroke-width:0.5;" x1="1056" x2="1210" y1="1006.4977" y2="1006.4977"/><text fill="#000000" font-family="sans-serif" font-size="14" lengthAdjust="spacing" textLength="144" x="1061" y="1023.4208">Tipo tipoCliente</text><text fill="#000000" font-family="sans-serif" font-size="14" lengthAdjust="spacing" textLength="99" x="1061" y="1040.6516">string nome</text><text fill="#000000" font-family="sans-serif" font-size="14" lengthAdjust="spacing" textLength="144" x="1061" y="1057.8824">string indirizzo</text><text fill="#000000" font-family="sans-serif" font-size="14" lengthAdjust="spacing" textLength="108" x="1061" y="1075.1132">string email</text><line style="stroke:#181818;stroke-width:0.5;" x1="1056" x2="1210" y1="1083.4209" y2="1083.4209"/></g><!--class ClienteBuilder--><g id="elem_ClienteBuilder"><rect codeLine="33" fill="#F1F1F1" height="203.0772" id="ClienteBuilder" rx="2.5" ry="2.5" style="stroke:#181818;stroke-width:0.5;" width="233" x="1072.5" y="711.4277"/><ellipse cx="1117.25" cy="727.4277" fill="#ADD1B2" rx="11" ry="11" style="stroke:#181818;stroke-width:1.0;"/><path d="M1116.9844,721.5371 Q1118.2969,721.5371 1119.2031,721.8808 Q1120.1094,722.2246 1120.875,722.8496 L1119.4688,724.5527 Q1118.9688,724.1308 1118.3594,723.8964 Q1117.7656,723.6621 1117.0625,723.6621 Q1116.2969,723.6621 1115.6719,724.0996 Q1115.0469,724.5214 1114.6719,725.4589 Q1114.2969,726.3808 1114.2969,727.8652 Q1114.2969,730.0371 1115.0781,731.0371 Q1115.875,732.0214 1117.1094,732.0214 Q1118.0156,732.0214 1118.6094,731.6777 Q1119.2188,731.3339 1119.7344,730.9433 L1121.0313,732.5996 Q1120.3438,733.2714 1119.3438,733.7558 Q1118.3594,734.2246 1116.9531,734.2246 Q1115.3125,734.2246 1114.0469,733.5058 Q1112.7813,732.7714 1112.0625,731.3496 Q1111.3438,729.9277 1111.3438,727.8652 Q1111.3438,725.8339 1112.0781,724.4277 Q1112.8281,723.0058 1114.1094,722.2714 Q1115.3906,721.5371 1116.9844,721.5371 Z " fill="#000000"/><text fill="#000000" font-family="sans-serif" font-size="14" lengthAdjust="spacing" textLength="135" x="1137.75" y="731.7354">Cliente.Builder</text><line style="stroke:#181818;stroke-width:0.5;" x1="1073.5" x2="1304.5" y1="743.4277" y2="743.4277"/><ellipse cx="1083.5" cy="757.5431" fill="none" rx="3" ry="3" style="stroke:#038048;stroke-width:1.0;"/><text fill="#000000" font-family="sans-serif" font-size="14" lengthAdjust="spacing" textLength="45" x="1092.5" y="760.3508">nuovo</text><ellipse cx="1083.5" cy="774.7739" fill="none" rx="3" ry="3" style="stroke:#038048;stroke-width:1.0;"/><text fill="#000000" font-family="sans-serif" font-size="14" lengthAdjust="spacing" textLength="72" x="1092.5" y="777.5816">con Tipo</text><ellipse cx="1083.5" cy="792.0047" fill="none" rx="3" ry="3" style="stroke:#038048;stroke-width:1.0;"/><text fill="#000000" font-family="sans-serif" font-size="14" lengthAdjust="spacing" textLength="72" x="1092.5" y="794.8124">con Nome</text><ellipse cx="1083.5" cy="809.2355" fill="none" rx="3" ry="3" style="stroke:#038048;stroke-width:1.0;"/><text fill="#000000" font-family="sans-serif" font-size="14" lengthAdjust="spacing" textLength="117" x="1092.5" y="812.0432">con Indirizzo</text><ellipse cx="1083.5" cy="826.4663" fill="none" rx="3" ry="3" style="stroke:#038048;stroke-width:1.0;"/><text fill="#000000" font-family="sans-serif" font-size="14" lengthAdjust="spacing" textLength="81" x="1092.5" y="829.274">con Email</text><ellipse cx="1083.5" cy="843.6971" fill="none" rx="3" ry="3" style="stroke:#038048;stroke-width:1.0;"/><text fill="#000000" font-family="sans-serif" font-size="14" lengthAdjust="spacing" textLength="207" x="1092.5" y="846.5048">con Codice Fatturazione</text><ellipse cx="1083.5" cy="860.9279" fill="none" rx="3" ry="3" style="stroke:#038048;stroke-width:1.0;"/><text fill="#000000" font-family="sans-serif" font-size="14" lengthAdjust="spacing" textLength="108" x="1092.5" y="863.7356">con Username</text><ellipse cx="1083.5" cy="878.1587" fill="none" rx="3" ry="3" style="stroke:#038048;stroke-width:1.0;"/><text fill="#000000" font-family="sans-serif" font-size="14" lengthAdjust="spacing" textLength="108" x="1092.5" y="880.9664">con Password</text><ellipse cx="1083.5" cy="895.3895" fill="none" rx="3" ry="3" style="stroke:#038048;stroke-width:1.0;"/><text fill="#000000" font-family="sans-serif" font-size="14" lengthAdjust="spacing" textLength="90" x="1092.5" y="898.1972">costruisci</text><line style="stroke:#181818;stroke-width:0.5;" x1="1073.5" x2="1304.5" y1="906.5049" y2="906.5049"/></g><!--class Impiegato--><g id="elem_Impiegato"><rect codeLine="46" fill="#F1F1F1" height="65.2308" id="Impiegato" rx="2.5" ry="2.5" style="stroke:#181818;stroke-width:0.5;" width="113" x="907.5" y="1000.3477"/><ellipse cx="922.5" cy="1016.3477" fill="#ADD1B2" rx="11" ry="11" style="stroke:#181818;stroke-width:1.0;"/><path d="M922.2344,1010.4571 Q923.5469,1010.4571 924.4531,1010.8008 Q925.3594,1011.1446 926.125,1011.7696 L924.7188,1013.4727 Q924.2188,1013.0508 923.6094,1012.8164 Q923.0156,1012.5821 922.3125,1012.5821 Q921.5469,1012.5821 920.9219,1013.0196 Q920.2969,1013.4414 919.9219,1014.3789 Q919.5469,1015.3008 919.5469,1016.7852 Q919.5469,1018.9571 920.3281,1019.9571 Q921.125,1020.9414 922.3594,1020.9414 Q923.2656,1020.9414 923.8594,1020.5977 Q924.4688,1020.2539 924.9844,1019.8633 L926.2813,1021.5196 Q925.5938,1022.1914 924.5938,1022.6758 Q923.6094,1023.1446 922.2031,1023.1446 Q920.5625,1023.1446 919.2969,1022.4258 Q918.0313,1021.6914 917.3125,1020.2696 Q916.5938,1018.8477 916.5938,1016.7852 Q916.5938,1014.7539 917.3281,1013.3477 Q918.0781,1011.9258 919.3594,1011.1914 Q920.6406,1010.4571 922.2344,1010.4571 Z " fill="#000000"/><text fill="#000000" font-family="sans-serif" font-size="14" lengthAdjust="spacing" textLength="81" x="936.5" y="1020.6554">Impiegato</text><line style="stroke:#181818;stroke-width:0.5;" x1="908.5" x2="1019.5" y1="1032.3477" y2="1032.3477"/><text fill="#000000" font-family="sans-serif" font-size="14" lengthAdjust="spacing" textLength="99" x="913.5" y="1049.2708">string nome</text><line style="stroke:#181818;stroke-width:0.5;" x1="908.5" x2="1019.5" y1="1057.5785" y2="1057.5785"/></g><!--class Fattorino--><g id="elem_Fattorino"><rect codeLine="49" fill="#F1F1F1" height="48" id="Fattorino" rx="2.5" ry="2.5" style="stroke:#181818;stroke-width:0.5;" width="113" x="913.5" y="551.7277"/><ellipse cx="928.5" cy="567.7277" fill="#ADD1B2" rx="11" ry="11" style="stroke:#181818;stroke-width:1.0;"/><path d="M928.2344,561.8371 Q929.5469,561.8371 930.4531,562.1808 Q931.3594,562.5246 932.125,563.1496 L930.7188,564.8527 Q930.2188,564.4308 929.6094,564.1964 Q929.0156,563.9621 928.3125,563.9621 Q927.5469,563.9621 926.9219,564.3996 Q926.2969,564.8214 925.9219,565.7589 Q925.5469,566.6808 925.5469,568.1652 Q925.5469,570.3371 926.3281,571.3371 Q927.125,572.3214 928.3594,572.3214 Q929.2656,572.3214 929.8594,571.9777 Q930.4688,571.6339 930.9844,571.2433 L932.2813,572.8996 Q931.5938,573.5714 930.5938,574.0558 Q929.6094,574.5246 928.2031,574.5246 Q926.5625,574.5246 925.2969,573.8058 Q924.0313,573.0714 923.3125,571.6496 Q922.5938,570.2277 922.5938,568.1652 Q922.5938,566.1339 923.3281,564.7277 Q924.0781,563.3058 925.3594,562.5714 Q926.6406,561.8371 928.2344,561.8371 Z " fill="#000000"/><text fill="#000000" font-family="sans-serif" font-size="14" lengthAdjust="spacing" textLength="81" x="942.5" y="572.0354">Fattorino</text><line style="stroke:#181818;stroke-width:0.5;" x1="914.5" x2="1025.5" y1="583.7277" y2="583.7277"/><line style="stroke:#181818;stroke-width:0.5;" x1="914.5" x2="1025.5" y1="591.7277" y2="591.7277"/></g><!--class Fattura--><g id="elem_Fattura"><rect codeLine="50" fill="#F1F1F1" height="99.6924" id="Fattura" rx="2.5" ry="2.5" style="stroke:#181818;stroke-width:0.5;" width="219" x="1024.5" y="1151.4277"/><ellipse cx="1098.25" cy="1167.4277" fill="#ADD1B2" rx="11" ry="11" style="stroke:#181818;stroke-width:1.0;"/><path d="M1097.9844,1161.5371 Q1099.2969,1161.5371 1100.2031,1161.8808 Q1101.1094,1162.2246 1101.875,1162.8496 L1100.4688,1164.5527 Q1099.9688,1164.1308 1099.3594,1163.8964 Q1098.7656,1163.6621 1098.0625,1163.6621 Q1097.2969,1163.6621 1096.6719,1164.0996 Q1096.0469,1164.5214 1095.6719,1165.4589 Q1095.2969,1166.3808 1095.2969,1167.8652 Q1095.2969,1170.0371 1096.0781,1171.0371 Q1096.875,1172.0214 1098.1094,1172.0214 Q1099.0156,1172.0214 1099.6094,1171.6777 Q1100.2188,1171.3339 1100.7344,1170.9433 L1102.0313,1172.5996 Q1101.3438,1173.2714 1100.3438,1173.7558 Q1099.3594,1174.2246 1097.9531,1174.2246 Q1096.3125,1174.2246 1095.0469,1173.5058 Q1093.7813,1172.7714 1093.0625,1171.3496 Q1092.3438,1169.9277 1092.3438,1167.8652 Q1092.3438,1165.8339 1093.0781,1164.4277 Q1093.8281,1163.0058 1095.1094,1162.2714 Q1096.3906,1161.5371 1097.9844,1161.5371 Z " fill="#000000"/><text fill="#000000" font-family="sans-serif" font-size="14" lengthAdjust="spacing" textLength="63" x="1118.75" y="1171.7354">Fattura</text><line style="stroke:#181818;stroke-width:0.5;" x1="1025.5" x2="1242.5" y1="1183.4277" y2="1183.4277"/><text fill="#000000" font-family="sans-serif" font-size="14" lengthAdjust="spacing" textLength="90" x="1030.5" y="1200.3508">int codice</text><text fill="#000000" font-family="sans-serif" font-size="14" lengthAdjust="spacing" textLength="135" x="1030.5" y="1217.5816">Cliente cliente</text><text fill="#000000" font-family="sans-serif" font-size="14" lengthAdjust="spacing" textLength="207" x="1030.5" y="1234.8124">List&lt;Prodotto&gt; prodotti</text><line style="stroke:#181818;stroke-width:0.5;" x1="1025.5" x2="1242.5" y1="1243.1201" y2="1243.1201"/></g><!--class Prodotto--><g id="elem_Prodotto"><rect codeLine="55" fill="#F1F1F1" height="151.3848" id="Prodotto" rx="2.5" ry="2.5" style="stroke:#181818;stroke-width:0.5;" width="255" x="558.5" y="500.0377"/><ellipse cx="645.75" cy="516.0377" fill="#ADD1B2" rx="11" ry="11" style="stroke:#181818;stroke-width:1.0;"/><path d="M645.4844,510.1471 Q646.7969,510.1471 647.7031,510.4908 Q648.6094,510.8346 649.375,511.4596 L647.9688,513.1627 Q647.4688,512.7408 646.8594,512.5064 Q646.2656,512.2721 645.5625,512.2721 Q644.7969,512.2721 644.1719,512.7096 Q643.5469,513.1314 643.1719,514.0689 Q642.7969,514.9908 642.7969,516.4752 Q642.7969,518.6471 643.5781,519.6471 Q644.375,520.6314 645.6094,520.6314 Q646.5156,520.6314 647.1094,520.2877 Q647.7188,519.9439 648.2344,519.5533 L649.5313,521.2096 Q648.8438,521.8814 647.8438,522.3658 Q646.8594,522.8346 645.4531,522.8346 Q643.8125,522.8346 642.5469,522.1158 Q641.2813,521.3814 640.5625,519.9596 Q639.8438,518.5377 639.8438,516.4752 Q639.8438,514.4439 640.5781,513.0377 Q641.3281,511.6158 642.6094,510.8814 Q643.8906,510.1471 645.4844,510.1471 Z " fill="#000000"/><text fill="#000000" font-family="sans-serif" font-size="14" lengthAdjust="spacing" textLength="72" x="666.25" y="520.3454">Prodotto</text><line style="stroke:#181818;stroke-width:0.5;" x1="559.5" x2="812.5" y1="532.0377" y2="532.0377"/><text fill="#000000" font-family="sans-serif" font-size="14" lengthAdjust="spacing" textLength="90" x="564.5" y="548.9608">int codice</text><text fill="#000000" font-family="sans-serif" font-size="14" lengthAdjust="spacing" textLength="162" x="564.5" y="566.1916">string descrizione</text><text fill="#000000" font-family="sans-serif" font-size="14" lengthAdjust="spacing" textLength="243" x="564.5" y="583.4224">CategoriaProdotto categoria</text><text fill="#000000" font-family="sans-serif" font-size="14" lengthAdjust="spacing" textLength="144" x="564.5" y="600.6532">float peso in kg</text><text fill="#000000" font-family="sans-serif" font-size="14" lengthAdjust="spacing" textLength="144" x="564.5" y="617.884">String pescatore</text><text fill="#000000" font-family="sans-serif" font-size="14" lengthAdjust="spacing" textLength="180" x="564.5" y="635.1148">Prodotto.Stato stato</text><line style="stroke:#181818;stroke-width:0.5;" x1="559.5" x2="812.5" y1="643.4225" y2="643.4225"/></g><!--class prodotto_stato--><g id="elem_prodotto_stato"><rect codeLine="64" fill="#F1F1F1" height="185.8464" id="prodotto_stato" rx="2.5" ry="2.5" style="stroke:#181818;stroke-width:0.5;" width="183" x="1121.5" y="254.1977"/><ellipse cx="1147.75" cy="270.1977" fill="#EB937F" rx="11" ry="11" style="stroke:#181818;stroke-width:1.0;"/><path d="M1146.2344,266.6508 L1146.2344,269.5571 L1150.4219,269.5571 L1150.4219,271.5571 L1146.2344,271.5571 L1146.2344,274.6508 L1151.2813,274.6508 L1151.2813,276.6977 L1143.375,276.6977 L1143.375,264.6196 L1151.2656,264.6196 L1150.9844,266.6508 L1146.2344,266.6508 Z " fill="#000000"/><text fill="#000000" font-family="sans-serif" font-size="14" lengthAdjust="spacing" textLength="126" x="1164.25" y="274.5054">Prodotto.Stato</text><line style="stroke:#181818;stroke-width:0.5;" x1="1122.5" x2="1303.5" y1="286.1977" y2="286.1977"/><text fill="#000000" font-family="sans-serif" font-size="14" lengthAdjust="spacing" textLength="54" x="1127.5" y="303.1208">Creato</text><text fill="#000000" font-family="sans-serif" font-size="14" lengthAdjust="spacing" textLength="63" x="1127.5" y="320.3516">Venduto</text><text fill="#000000" font-family="sans-serif" font-size="14" lengthAdjust="spacing" textLength="135" x="1127.5" y="337.5824">In Preparazione</text><text fill="#000000" font-family="sans-serif" font-size="14" lengthAdjust="spacing" textLength="81" x="1127.5" y="354.8132">Preparato</text><text fill="#000000" font-family="sans-serif" font-size="14" lengthAdjust="spacing" textLength="117" x="1127.5" y="372.044">In spedizione</text><text fill="#000000" font-family="sans-serif" font-size="14" lengthAdjust="spacing" textLength="81" x="1127.5" y="389.2748">Reportato</text><text fill="#000000" font-family="sans-serif" font-size="14" lengthAdjust="spacing" textLength="81" x="1127.5" y="406.5056">Fatturato</text><text fill="#000000" font-family="sans-serif" font-size="14" lengthAdjust="spacing" textLength="171" x="1127.5" y="423.7364">ReportatoEFatturato</text><line style="stroke:#181818;stroke-width:0.5;" x1="1122.5" x2="1303.5" y1="432.0441" y2="432.0441"/></g><!--class Ordine--><g id="elem_Ordine"><rect codeLine="75" fill="#F1F1F1" height="99.6924" id="Ordine" rx="2.5" ry="2.5" style="stroke:#181818;stroke-width:0.5;" width="219" x="867.5" y="297.2677"/><ellipse cx="945.75" cy="313.2677" fill="#ADD1B2" rx="11" ry="11" style="stroke:#181818;stroke-width:1.0;"/><path d="M945.4844,307.3771 Q946.7969,307.3771 947.7031,307.7208 Q948.6094,308.0646 949.375,308.6896 L947.9688,310.3927 Q947.4688,309.9708 946.8594,309.7364 Q946.2656,309.5021 945.5625,309.5021 Q944.7969,309.5021 944.1719,309.9396 Q943.5469,310.3614 943.1719,311.2989 Q942.7969,312.2208 942.7969,313.7052 Q942.7969,315.8771 943.5781,316.8771 Q944.375,317.8614 945.6094,317.8614 Q946.5156,317.8614 947.1094,317.5177 Q947.7188,317.1739 948.2344,316.7833 L949.5313,318.4396 Q948.8438,319.1114 947.8438,319.5958 Q946.8594,320.0646 945.4531,320.0646 Q943.8125,320.0646 942.5469,319.3458 Q941.2813,318.6114 940.5625,317.1896 Q939.8438,315.7677 939.8438,313.7052 Q939.8438,311.6739 940.5781,310.2677 Q941.3281,308.8458 942.6094,308.1114 Q943.8906,307.3771 945.4844,307.3771 Z " fill="#000000"/><text fill="#000000" font-family="sans-serif" font-size="14" lengthAdjust="spacing" textLength="54" x="966.25" y="317.5754">Ordine</text><line style="stroke:#181818;stroke-width:0.5;" x1="868.5" x2="1085.5" y1="329.2677" y2="329.2677"/><text fill="#000000" font-family="sans-serif" font-size="14" lengthAdjust="spacing" textLength="90" x="873.5" y="346.1908">int codice</text><text fill="#000000" font-family="sans-serif" font-size="14" lengthAdjust="spacing" textLength="207" x="873.5" y="363.4216">List&lt;Prodotto&gt; prodotti</text><text fill="#000000" font-family="sans-serif" font-size="14" lengthAdjust="spacing" textLength="171" x="873.5" y="380.6524">Fattorino fattorino</text><line style="stroke:#181818;stroke-width:0.5;" x1="868.5" x2="1085.5" y1="388.9601" y2="388.9601"/></g><g id="elem_GMN18"><path d="M539.5,334.1177 L539.5,360.1177 A0,0 0 0 0 539.5,360.1177 L682,360.1177 L686,499.7577 L690,360.1177 L832.5,360.1177 A0,0 0 0 0 832.5,360.1177 L832.5,344.1177 L822.5,334.1177 L539.5,334.1177 A0,0 0 0 0 539.5,334.1177 " fill="#FEFFDD" style="stroke:#181818;stroke-width:0.5;"/><path d="M822.5,334.1177 L822.5,344.1177 L832.5,344.1177 L822.5,334.1177 " fill="#FEFFDD" style="stroke:#181818;stroke-width:0.5;"/><text fill="#000000" font-family="sans-serif" font-size="13" lengthAdjust="spacing" textLength="272" x="545.5" y="351.1177">Il Pescatore &#232; incluso in Prodotto</text></g><!--class BoundaryBackgroundScheduler--><g id="elem_BoundaryBackgroundScheduler"><rect codeLine="97" fill="#F1F1F1" height="99.6924" id="BoundaryBackgroundScheduler" rx="2.5" ry="2.5" style="stroke:#181818;stroke-width:0.5;" width="293" x="2736.5" y="68.6577"/><ellipse cx="2751.5" cy="84.6577" fill="#ADD1B2" rx="11" ry="11" style="stroke:#181818;stroke-width:1.0;"/><path d="M2751.2344,78.7671 Q2752.5469,78.7671 2753.4531,79.1108 Q2754.3594,79.4546 2755.125,80.0796 L2753.7188,81.7827 Q2753.2188,81.3608 2752.6094,81.1264 Q2752.0156,80.8921 2751.3125,80.8921 Q2750.5469,80.8921 2749.9219,81.3296 Q2749.2969,81.7514 2748.9219,82.6889 Q2748.5469,83.6108 2748.5469,85.0952 Q2748.5469,87.2671 2749.3281,88.2671 Q2750.125,89.2514 2751.3594,89.2514 Q2752.2656,89.2514 2752.8594,88.9077 Q2753.4688,88.5639 2753.9844,88.1733 L2755.2813,89.8296 Q2754.5938,90.5014 2753.5938,90.9858 Q2752.6094,91.4546 2751.2031,91.4546 Q2749.5625,91.4546 2748.2969,90.7358 Q2747.0313,90.0014 2746.3125,88.5796 Q2745.5938,87.1577 2745.5938,85.0952 Q2745.5938,83.0639 2746.3281,81.6577 Q2747.0781,80.2358 2748.3594,79.5014 Q2749.6406,78.7671 2751.2344,78.7671 Z " fill="#000000"/><text fill="#000000" font-family="sans-serif" font-size="14" lengthAdjust="spacing" textLength="261" x="2765.5" y="88.9654">Boundary Background Scheduler</text><line style="stroke:#181818;stroke-width:0.5;" x1="2737.5" x2="3028.5" y1="100.6577" y2="100.6577"/><ellipse cx="2747.5" cy="114.7731" fill="none" rx="3" ry="3" style="stroke:#038048;stroke-width:1.0;"/><text fill="#000000" font-family="sans-serif" font-size="14" lengthAdjust="spacing" textLength="72" x="2756.5" y="117.5808">schedula</text><ellipse cx="2747.5" cy="132.0039" fill="none" rx="3" ry="3" style="stroke:#038048;stroke-width:1.0;"/><text fill="#000000" font-family="sans-serif" font-size="14" lengthAdjust="spacing" textLength="117" x="2756.5" y="134.8116">genera report</text><ellipse cx="2747.5" cy="149.2347" fill="none" rx="3" ry="3" style="stroke:#038048;stroke-width:1.0;"/><text fill="#000000" font-family="sans-serif" font-size="14" lengthAdjust="spacing" textLength="198" x="2756.5" y="152.0424">genera e invia fattura</text><line style="stroke:#181818;stroke-width:0.5;" x1="2737.5" x2="3028.5" y1="160.3501" y2="160.3501"/></g><!--class BuondaryImpiegato--><g id="elem_BuondaryImpiegato"><rect codeLine="102" fill="#F1F1F1" height="99.6924" id="BuondaryImpiegato" rx="2.5" ry="2.5" style="stroke:#181818;stroke-width:0.5;" width="194" x="3922" y="68.6577"/><ellipse cx="3937" cy="84.6577" fill="#ADD1B2" rx="11" ry="11" style="stroke:#181818;stroke-width:1.0;"/><path d="M3936.7344,78.7671 Q3938.0469,78.7671 3938.9531,79.1108 Q3939.8594,79.4546 3940.625,80.0796 L3939.2188,81.7827 Q3938.7188,81.3608 3938.1094,81.1264 Q3937.5156,80.8921 3936.8125,80.8921 Q3936.0469,80.8921 3935.4219,81.3296 Q3934.7969,81.7514 3934.4219,82.6889 Q3934.0469,83.6108 3934.0469,85.0952 Q3934.0469,87.2671 3934.8281,88.2671 Q3935.625,89.2514 3936.8594,89.2514 Q3937.7656,89.2514 3938.3594,88.9077 Q3938.9688,88.5639 3939.4844,88.1733 L3940.7813,89.8296 Q3940.0938,90.5014 3939.0938,90.9858 Q3938.1094,91.4546 3936.7031,91.4546 Q3935.0625,91.4546 3933.7969,90.7358 Q3932.5313,90.0014 3931.8125,88.5796 Q3931.0938,87.1577 3931.0938,85.0952 Q3931.0938,83.0639 3931.8281,81.6577 Q3932.5781,80.2358 3933.8594,79.5014 Q3935.1406,78.7671 3936.7344,78.7671 Z " fill="#000000"/><text fill="#000000" font-family="sans-serif" font-size="14" lengthAdjust="spacing" textLength="162" x="3951" y="88.9654">Boundary Impiegato</text><line style="stroke:#181818;stroke-width:0.5;" x1="3923" x2="4115" y1="100.6577" y2="100.6577"/><ellipse cx="3933" cy="114.7731" fill="none" rx="3" ry="3" style="stroke:#038048;stroke-width:1.0;"/><text fill="#000000" font-family="sans-serif" font-size="14" lengthAdjust="spacing" textLength="36" x="3942" y="117.5808">main</text><ellipse cx="3933" cy="132.0039" fill="none" rx="3" ry="3" style="stroke:#038048;stroke-width:1.0;"/><text fill="#000000" font-family="sans-serif" font-size="14" lengthAdjust="spacing" textLength="153" x="3942" y="134.8116">registra prodotto</text><ellipse cx="3933" cy="149.2347" fill="none" rx="3" ry="3" style="stroke:#038048;stroke-width:1.0;"/><text fill="#000000" font-family="sans-serif" font-size="14" lengthAdjust="spacing" textLength="126" x="3942" y="152.0424">prepara ordine</text><line style="stroke:#181818;stroke-width:0.5;" x1="3923" x2="4115" y1="160.3501" y2="160.3501"/></g><!--class BoundaryGestore--><g id="elem_BoundaryGestore"><rect codeLine="107" fill="#F1F1F1" height="151.3848" id="BoundaryGestore" rx="2.5" ry="2.5" style="stroke:#181818;stroke-width:0.5;" width="323" x="3064.5" y="42.8077"/><ellipse cx="3149.75" cy="58.8077" fill="#ADD1B2" rx="11" ry="11" style="stroke:#181818;stroke-width:1.0;"/><path d="M3149.4844,52.9171 Q3150.7969,52.9171 3151.7031,53.2608 Q3152.6094,53.6046 3153.375,54.2296 L3151.9688,55.9327 Q3151.4688,55.5108 3150.8594,55.2764 Q3150.2656,55.0421 3149.5625,55.0421 Q3148.7969,55.0421 3148.1719,55.4796 Q3147.5469,55.9014 3147.1719,56.8389 Q3146.7969,57.7608 3146.7969,59.2452 Q3146.7969,61.4171 3147.5781,62.4171 Q3148.375,63.4014 3149.6094,63.4014 Q3150.5156,63.4014 3151.1094,63.0577 Q3151.7188,62.7139 3152.2344,62.3233 L3153.5313,63.9796 Q3152.8438,64.6514 3151.8438,65.1358 Q3150.8594,65.6046 3149.4531,65.6046 Q3147.8125,65.6046 3146.5469,64.8858 Q3145.2813,64.1514 3144.5625,62.7296 Q3143.8438,61.3077 3143.8438,59.2452 Q3143.8438,57.2139 3144.5781,55.8077 Q3145.3281,54.3858 3146.6094,53.6514 Q3147.8906,52.9171 3149.4844,52.9171 Z " fill="#000000"/><text fill="#000000" font-family="sans-serif" font-size="14" lengthAdjust="spacing" textLength="144" x="3170.25" y="63.1154">Boundary Gestore</text><line style="stroke:#181818;stroke-width:0.5;" x1="3065.5" x2="3386.5" y1="74.8077" y2="74.8077"/><ellipse cx="3075.5" cy="88.9231" fill="none" rx="3" ry="3" style="stroke:#038048;stroke-width:1.0;"/><text fill="#000000" font-family="sans-serif" font-size="14" lengthAdjust="spacing" textLength="36" x="3084.5" y="91.7308">main</text><ellipse cx="3075.5" cy="106.1539" fill="none" rx="3" ry="3" style="stroke:#038048;stroke-width:1.0;"/><text fill="#000000" font-family="sans-serif" font-size="14" lengthAdjust="spacing" textLength="144" x="3084.5" y="108.9616">registra cliente</text><ellipse cx="3075.5" cy="123.3847" fill="none" rx="3" ry="3" style="stroke:#038048;stroke-width:1.0;"/><text fill="#000000" font-family="sans-serif" font-size="14" lengthAdjust="spacing" textLength="162" x="3084.5" y="126.1924">registra impiegato</text><ellipse cx="3075.5" cy="140.6155" fill="none" rx="3" ry="3" style="stroke:#038048;stroke-width:1.0;"/><text fill="#000000" font-family="sans-serif" font-size="14" lengthAdjust="spacing" textLength="117" x="3084.5" y="143.4232">genera report</text><ellipse cx="3075.5" cy="157.8463" fill="none" rx="3" ry="3" style="stroke:#038048;stroke-width:1.0;"/><text fill="#000000" font-family="sans-serif" font-size="14" lengthAdjust="spacing" textLength="153" x="3084.5" y="160.654">visualizza report</text><ellipse cx="3075.5" cy="175.0771" fill="none" rx="3" ry="3" style="stroke:#038048;stroke-width:1.0;"/><text fill="#000000" font-family="sans-serif" font-size="14" lengthAdjust="spacing" textLength="297" x="3084.5" y="177.8848">registra nuova categoria prodotto</text><line style="stroke:#181818;stroke-width:0.5;" x1="3065.5" x2="3386.5" y1="186.1925" y2="186.1925"/></g><!--class BoundaryFattorino--><g id="elem_BoundaryFattorino"><rect codeLine="115" fill="#F1F1F1" height="99.6924" id="BoundaryFattorino" rx="2.5" ry="2.5" style="stroke:#181818;stroke-width:0.5;" width="215" x="3422.5" y="68.6577"/><ellipse cx="3446.95" cy="84.6577" fill="#ADD1B2" rx="11" ry="11" style="stroke:#181818;stroke-width:1.0;"/><path d="M3446.6844,78.7671 Q3447.9969,78.7671 3448.9031,79.1108 Q3449.8094,79.4546 3450.575,80.0796 L3449.1688,81.7827 Q3448.6688,81.3608 3448.0594,81.1264 Q3447.4656,80.8921 3446.7625,80.8921 Q3445.9969,80.8921 3445.3719,81.3296 Q3444.7469,81.7514 3444.3719,82.6889 Q3443.9969,83.6108 3443.9969,85.0952 Q3443.9969,87.2671 3444.7781,88.2671 Q3445.575,89.2514 3446.8094,89.2514 Q3447.7156,89.2514 3448.3094,88.9077 Q3448.9188,88.5639 3449.4344,88.1733 L3450.7313,89.8296 Q3450.0438,90.5014 3449.0438,90.9858 Q3448.0594,91.4546 3446.6531,91.4546 Q3445.0125,91.4546 3443.7469,90.7358 Q3442.4813,90.0014 3441.7625,88.5796 Q3441.0438,87.1577 3441.0438,85.0952 Q3441.0438,83.0639 3441.7781,81.6577 Q3442.5281,80.2358 3443.8094,79.5014 Q3445.0906,78.7671 3446.6844,78.7671 Z " fill="#000000"/><text fill="#000000" font-family="sans-serif" font-size="14" lengthAdjust="spacing" textLength="162" x="3463.05" y="88.9654">Boundary Fattorino</text><line style="stroke:#181818;stroke-width:0.5;" x1="3423.5" x2="3636.5" y1="100.6577" y2="100.6577"/><ellipse cx="3433.5" cy="114.7731" fill="none" rx="3" ry="3" style="stroke:#038048;stroke-width:1.0;"/><text fill="#000000" font-family="sans-serif" font-size="14" lengthAdjust="spacing" textLength="36" x="3442.5" y="117.5808">main</text><ellipse cx="3433.5" cy="132.0039" fill="none" rx="3" ry="3" style="stroke:#038048;stroke-width:1.0;"/><text fill="#000000" font-family="sans-serif" font-size="14" lengthAdjust="spacing" textLength="189" x="3442.5" y="134.8116">visualizza spedizioni</text><ellipse cx="3433.5" cy="149.2347" fill="none" rx="3" ry="3" style="stroke:#038048;stroke-width:1.0;"/><text fill="#000000" font-family="sans-serif" font-size="14" lengthAdjust="spacing" textLength="153" x="3442.5" y="152.0424">conferma consegna</text><line style="stroke:#181818;stroke-width:0.5;" x1="3423.5" x2="3636.5" y1="160.3501" y2="160.3501"/></g><!--class BoundaryCliente--><g id="elem_BoundaryCliente"><rect codeLine="120" fill="#F1F1F1" height="99.6924" id="BoundaryCliente" rx="2.5" ry="2.5" style="stroke:#181818;stroke-width:0.5;" width="215" x="3672.5" y="68.6577"/><ellipse cx="3705.05" cy="84.6577" fill="#ADD1B2" rx="11" ry="11" style="stroke:#181818;stroke-width:1.0;"/><path d="M3704.7844,78.7671 Q3706.0969,78.7671 3707.0031,79.1108 Q3707.9094,79.4546 3708.675,80.0796 L3707.2688,81.7827 Q3706.7688,81.3608 3706.1594,81.1264 Q3705.5656,80.8921 3704.8625,80.8921 Q3704.0969,80.8921 3703.4719,81.3296 Q3702.8469,81.7514 3702.4719,82.6889 Q3702.0969,83.6108 3702.0969,85.0952 Q3702.0969,87.2671 3702.8781,88.2671 Q3703.675,89.2514 3704.9094,89.2514 Q3705.8156,89.2514 3706.4094,88.9077 Q3707.0188,88.5639 3707.5344,88.1733 L3708.8313,89.8296 Q3708.1438,90.5014 3707.1438,90.9858 Q3706.1594,91.4546 3704.7531,91.4546 Q3703.1125,91.4546 3701.8469,90.7358 Q3700.5813,90.0014 3699.8625,88.5796 Q3699.1438,87.1577 3699.1438,85.0952 Q3699.1438,83.0639 3699.8781,81.6577 Q3700.6281,80.2358 3701.9094,79.5014 Q3703.1906,78.7671 3704.7844,78.7671 Z " fill="#000000"/><text fill="#000000" font-family="sans-serif" font-size="14" lengthAdjust="spacing" textLength="144" x="3722.95" y="88.9654">Boundary Cliente</text><line style="stroke:#181818;stroke-width:0.5;" x1="3673.5" x2="3886.5" y1="100.6577" y2="100.6577"/><ellipse cx="3683.5" cy="114.7731" fill="none" rx="3" ry="3" style="stroke:#038048;stroke-width:1.0;"/><text fill="#000000" font-family="sans-serif" font-size="14" lengthAdjust="spacing" textLength="36" x="3692.5" y="117.5808">main</text><ellipse cx="3683.5" cy="132.0039" fill="none" rx="3" ry="3" style="stroke:#038048;stroke-width:1.0;"/><text fill="#000000" font-family="sans-serif" font-size="14" lengthAdjust="spacing" textLength="189" x="3692.5" y="134.8116">visualizza inventario</text><ellipse cx="3683.5" cy="149.2347" fill="none" rx="3" ry="3" style="stroke:#038048;stroke-width:1.0;"/><text fill="#000000" font-family="sans-serif" font-size="14" lengthAdjust="spacing" textLength="135" x="3692.5" y="152.0424">effettua ordine</text><line style="stroke:#181818;stroke-width:0.5;" x1="3673.5" x2="3886.5" y1="160.3501" y2="160.3501"/></g><!--class LoginBoundary--><g id="elem_LoginBoundary"><rect codeLine="125" fill="#F1F1F1" height="82.4616" id="LoginBoundary" rx="2.5" ry="2.5" style="stroke:#181818;stroke-width:0.5;" width="179" x="3440.5" y="305.8877"/><ellipse cx="3464.95" cy="321.8877" fill="#ADD1B2" rx="11" ry="11" style="stroke:#181818;stroke-width:1.0;"/><path d="M3464.6844,315.9971 Q3465.9969,315.9971 3466.9031,316.3408 Q3467.8094,316.6846 3468.575,317.3096 L3467.1688,319.0127 Q3466.6688,318.5908 3466.0594,318.3564 Q3465.4656,318.1221 3464.7625,318.1221 Q3463.9969,318.1221 3463.3719,318.5596 Q3462.7469,318.9814 3462.3719,319.9189 Q3461.9969,320.8408 3461.9969,322.3252 Q3461.9969,324.4971 3462.7781,325.4971 Q3463.575,326.4814 3464.8094,326.4814 Q3465.7156,326.4814 3466.3094,326.1377 Q3466.9188,325.7939 3467.4344,325.4033 L3468.7313,327.0596 Q3468.0438,327.7314 3467.0438,328.2158 Q3466.0594,328.6846 3464.6531,328.6846 Q3463.0125,328.6846 3461.7469,327.9658 Q3460.4813,327.2314 3459.7625,325.8096 Q3459.0438,324.3877 3459.0438,322.3252 Q3459.0438,320.2939 3459.7781,318.8877 Q3460.5281,317.4658 3461.8094,316.7314 Q3463.0906,315.9971 3464.6844,315.9971 Z " fill="#000000"/><text fill="#000000" font-family="sans-serif" font-size="14" lengthAdjust="spacing" textLength="126" x="3481.05" y="326.1954">Login Boundary</text><line style="stroke:#181818;stroke-width:0.5;" x1="3441.5" x2="3618.5" y1="337.8877" y2="337.8877"/><ellipse cx="3451.5" cy="352.0031" fill="none" rx="3" ry="3" style="stroke:#038048;stroke-width:1.0;"/><text fill="#000000" font-family="sans-serif" font-size="14" lengthAdjust="spacing" textLength="126" x="3460.5" y="354.8108">effettua login</text><ellipse cx="3451.5" cy="369.2339" fill="none" rx="3" ry="3" style="stroke:#038048;stroke-width:1.0;"/><text fill="#000000" font-family="sans-serif" font-size="14" lengthAdjust="spacing" textLength="153" x="3460.5" y="372.0416">mostra inventario</text><line style="stroke:#181818;stroke-width:0.5;" x1="3441.5" x2="3618.5" y1="380.3493" y2="380.3493"/></g><!--class MainController--><g id="elem_MainController"><rect codeLine="137" fill="#F1F1F1" height="151.3848" id="MainController" rx="2.5" ry="2.5" style="stroke:#181818;stroke-width:0.5;" width="224" x="2156" y="737.2677"/><ellipse cx="2200.75" cy="753.2677" fill="#ADD1B2" rx="11" ry="11" style="stroke:#181818;stroke-width:1.0;"/><path d="M2200.4844,747.3771 Q2201.7969,747.3771 2202.7031,747.7208 Q2203.6094,748.0646 2204.375,748.6896 L2202.9688,750.3927 Q2202.4688,749.9708 2201.8594,749.7364 Q2201.2656,749.5021 2200.5625,749.5021 Q2199.7969,749.5021 2199.1719,749.9396 Q2198.5469,750.3614 2198.1719,751.2989 Q2197.7969,752.2208 2197.7969,753.7052 Q2197.7969,755.8771 2198.5781,756.8771 Q2199.375,757.8614 2200.6094,757.8614 Q2201.5156,757.8614 2202.1094,757.5177 Q2202.7188,757.1739 2203.2344,756.7833 L2204.5313,758.4396 Q2203.8438,759.1114 2202.8438,759.5958 Q2201.8594,760.0646 2200.4531,760.0646 Q2198.8125,760.0646 2197.5469,759.3458 Q2196.2813,758.6114 2195.5625,757.1896 Q2194.8438,755.7677 2194.8438,753.7052 Q2194.8438,751.6739 2195.5781,750.2677 Q2196.3281,748.8458 2197.6094,748.1114 Q2198.8906,747.3771 2200.4844,747.3771 Z " fill="#000000"/><text fill="#000000" font-family="sans-serif" font-size="14" lengthAdjust="spacing" textLength="126" x="2221.25" y="757.5754">MainController</text><line style="stroke:#181818;stroke-width:0.5;" x1="2157" x2="2379" y1="769.2677" y2="769.2677"/><ellipse cx="2167" cy="783.3831" fill="none" rx="3" ry="3" style="stroke:#038048;stroke-width:1.0;"/><text fill="#000000" font-family="sans-serif" font-size="14" lengthAdjust="spacing" textLength="180" x="2176" y="786.1908">prodotti disponibili</text><ellipse cx="2167" cy="800.6139" fill="none" rx="3" ry="3" style="stroke:#038048;stroke-width:1.0;"/><text fill="#000000" font-family="sans-serif" font-size="14" lengthAdjust="spacing" textLength="126" x="2176" y="803.4216">effettua login</text><ellipse cx="2167" cy="817.8447" fill="none" rx="3" ry="3" style="stroke:#038048;stroke-width:1.0;"/><text fill="#000000" font-family="sans-serif" font-size="14" lengthAdjust="spacing" textLength="153" x="2176" y="820.6524">registra prodotto</text><ellipse cx="2167" cy="835.0755" fill="none" rx="3" ry="3" style="stroke:#038048;stroke-width:1.0;"/><text fill="#000000" font-family="sans-serif" font-size="14" lengthAdjust="spacing" textLength="144" x="2176" y="837.8832">registra cliente</text><ellipse cx="2167" cy="852.3063" fill="none" rx="3" ry="3" style="stroke:#038048;stroke-width:1.0;"/><text fill="#000000" font-family="sans-serif" font-size="14" lengthAdjust="spacing" textLength="117" x="2176" y="855.114">genera report</text><ellipse cx="2167" cy="869.5371" fill="none" rx="3" ry="3" style="stroke:#038048;stroke-width:1.0;"/><text fill="#000000" font-family="sans-serif" font-size="14" lengthAdjust="spacing" textLength="198" x="2176" y="872.3448">genera e invia fatture</text><line style="stroke:#181818;stroke-width:0.5;" x1="2157" x2="2379" y1="880.6525" y2="880.6525"/></g><!--class MainControllerBuilder--><g id="elem_MainControllerBuilder"><rect codeLine="146" fill="#F1F1F1" height="151.3848" id="MainControllerBuilder" rx="2.5" ry="2.5" style="stroke:#181818;stroke-width:0.5;" width="242" x="2156" y="500.0377"/><ellipse cx="2176.4" cy="516.0377" fill="#ADD1B2" rx="11" ry="11" style="stroke:#181818;stroke-width:1.0;"/><path d="M2176.1344,510.1471 Q2177.4469,510.1471 2178.3531,510.4908 Q2179.2594,510.8346 2180.025,511.4596 L2178.6188,513.1627 Q2178.1188,512.7408 2177.5094,512.5064 Q2176.9156,512.2721 2176.2125,512.2721 Q2175.4469,512.2721 2174.8219,512.7096 Q2174.1969,513.1314 2173.8219,514.0689 Q2173.4469,514.9908 2173.4469,516.4752 Q2173.4469,518.6471 2174.2281,519.6471 Q2175.025,520.6314 2176.2594,520.6314 Q2177.1656,520.6314 2177.7594,520.2877 Q2178.3688,519.9439 2178.8844,519.5533 L2180.1813,521.2096 Q2179.4938,521.8814 2178.4938,522.3658 Q2177.5094,522.8346 2176.1031,522.8346 Q2174.4625,522.8346 2173.1969,522.1158 Q2171.9313,521.3814 2171.2125,519.9596 Q2170.4938,518.5377 2170.4938,516.4752 Q2170.4938,514.4439 2171.2281,513.0377 Q2171.9781,511.6158 2173.2594,510.8814 Q2174.5406,510.1471 2176.1344,510.1471 Z " fill="#000000"/><text fill="#000000" font-family="sans-serif" font-size="14" lengthAdjust="spacing" textLength="198" x="2191.6" y="520.3454">MainController.Builder</text><line style="stroke:#181818;stroke-width:0.5;" x1="2157" x2="2397" y1="532.0377" y2="532.0377"/><text fill="#000000" font-family="sans-serif" font-size="14" lengthAdjust="spacing" textLength="45" x="2176" y="548.9608">nuovo</text><ellipse cx="2167" cy="563.3839" fill="none" rx="3" ry="3" style="stroke:#038048;stroke-width:1.0;"/><text fill="#000000" font-family="sans-serif" font-size="14" lengthAdjust="spacing" textLength="90" x="2176" y="566.1916">con Logger</text><ellipse cx="2167" cy="580.6147" fill="none" rx="3" ry="3" style="stroke:#038048;stroke-width:1.0;"/><text fill="#000000" font-family="sans-serif" font-size="14" lengthAdjust="spacing" textLength="135" x="2176" y="583.4224">con ProdottoDAO</text><ellipse cx="2167" cy="597.8455" fill="none" rx="3" ry="3" style="stroke:#038048;stroke-width:1.0;"/><text fill="#000000" font-family="sans-serif" font-size="14" lengthAdjust="spacing" textLength="117" x="2176" y="600.6532">con UtenteDAO</text><ellipse cx="2167" cy="615.0763" fill="none" rx="3" ry="3" style="stroke:#038048;stroke-width:1.0;"/><text fill="#000000" font-family="sans-serif" font-size="14" lengthAdjust="spacing" textLength="126" x="2176" y="617.884">con ClienteDAO</text><ellipse cx="2167" cy="632.3071" fill="none" rx="3" ry="3" style="stroke:#038048;stroke-width:1.0;"/><text fill="#000000" font-family="sans-serif" font-size="14" lengthAdjust="spacing" textLength="216" x="2176" y="635.1148">costruisci E Sostituisci</text><line style="stroke:#181818;stroke-width:0.5;" x1="2157" x2="2397" y1="643.4225" y2="643.4225"/></g><g id="elem_GMN44"><path d="M2415.5,799.9677 L2415.5,808.9677 L2380.16,812.9677 L2415.5,816.9677 L2415.5,825.9677 A0,0 0 0 0 2415.5,825.9677 L2508.5,825.9677 A0,0 0 0 0 2508.5,825.9677 L2508.5,809.9677 L2498.5,799.9677 L2415.5,799.9677 A0,0 0 0 0 2415.5,799.9677 " fill="#FEFFDD" style="stroke:#181818;stroke-width:0.5;"/><path d="M2498.5,799.9677 L2498.5,809.9677 L2508.5,809.9677 L2498.5,799.9677 " fill="#FEFFDD" style="stroke:#181818;stroke-width:0.5;"/><text fill="#000000" font-family="sans-serif" font-size="13" lengthAdjust="spacing" textLength="72" x="2421.5" y="816.9677">Singleton</text></g><!--class email--><g id="elem_email"><rect codeLine="160" fill="#F1F1F1" height="65.2308" id="email" rx="2.5" ry="2.5" style="stroke:#181818;stroke-width:0.5;" width="143" x="2130.5" y="314.4977"/><ellipse cx="2146.85" cy="330.4977" fill="#B4A7E5" rx="11" ry="11" style="stroke:#181818;stroke-width:1.0;"/><path d="M2151.0063,324.9196 L2151.0063,327.0133 L2148.5063,327.0133 L2148.5063,334.9039 L2151.0063,334.9039 L2151.0063,336.9977 L2143.1625,336.9977 L2143.1625,334.9039 L2145.6469,334.9039 L2145.6469,327.0133 L2143.1625,327.0133 L2143.1625,324.9196 L2151.0063,324.9196 Z " fill="#000000"/><text fill="#000000" font-family="sans-serif" font-size="14" font-style="italic" lengthAdjust="spacing" textLength="108" x="2161.15" y="334.8054">EMail Server</text><line style="stroke:#181818;stroke-width:0.5;" x1="2131.5" x2="2272.5" y1="346.4977" y2="346.4977"/><ellipse cx="2141.5" cy="360.6131" fill="none" rx="3" ry="3" style="stroke:#038048;stroke-width:1.0;"/><text fill="#000000" font-family="sans-serif" font-size="14" lengthAdjust="spacing" textLength="117" x="2150.5" y="363.4208">invia fattura</text><line style="stroke:#181818;stroke-width:0.5;" x1="2131.5" x2="2272.5" y1="371.7285" y2="371.7285"/></g><!--class noop_email--><g id="elem_noop_email"><rect codeLine="164" fill="#F1F1F1" height="48" id="noop_email" rx="2.5" ry="2.5" style="stroke:#181818;stroke-width:0.5;" width="194" x="2105" y="94.4977"/><ellipse cx="2120" cy="110.4977" fill="#ADD1B2" rx="11" ry="11" style="stroke:#181818;stroke-width:1.0;"/><path d="M2119.7344,104.6071 Q2121.0469,104.6071 2121.9531,104.9508 Q2122.8594,105.2946 2123.625,105.9196 L2122.2188,107.6227 Q2121.7188,107.2008 2121.1094,106.9664 Q2120.5156,106.7321 2119.8125,106.7321 Q2119.0469,106.7321 2118.4219,107.1696 Q2117.7969,107.5914 2117.4219,108.5289 Q2117.0469,109.4508 2117.0469,110.9352 Q2117.0469,113.1071 2117.8281,114.1071 Q2118.625,115.0914 2119.8594,115.0914 Q2120.7656,115.0914 2121.3594,114.7477 Q2121.9688,114.4039 2122.4844,114.0133 L2123.7813,115.6696 Q2123.0938,116.3414 2122.0938,116.8258 Q2121.1094,117.2946 2119.7031,117.2946 Q2118.0625,117.2946 2116.7969,116.5758 Q2115.5313,115.8414 2114.8125,114.4196 Q2114.0938,112.9977 2114.0938,110.9352 Q2114.0938,108.9039 2114.8281,107.4977 Q2115.5781,106.0758 2116.8594,105.3414 Q2118.1406,104.6071 2119.7344,104.6071 Z " fill="#000000"/><text fill="#000000" font-family="sans-serif" font-size="14" lengthAdjust="spacing" textLength="162" x="2134" y="114.8054">No Op EMail Server</text><line style="stroke:#181818;stroke-width:0.5;" x1="2106" x2="2298" y1="126.4977" y2="126.4977"/><line style="stroke:#181818;stroke-width:0.5;" x1="2106" x2="2298" y1="134.4977" y2="134.4977"/></g><!--class Risultato--><g id="elem_Risultato"><rect codeLine="167" fill="#F1F1F1" height="116.9232" id="Risultato" rx="2.5" ry="2.5" style="stroke:#181818;stroke-width:0.5;" width="179" x="2333.5" y="60.0377"/><ellipse cx="2373.25" cy="76.0377" fill="#ADD1B2" rx="11" ry="11" style="stroke:#181818;stroke-width:1.0;"/><path d="M2372.9844,70.1471 Q2374.2969,70.1471 2375.2031,70.4908 Q2376.1094,70.8346 2376.875,71.4596 L2375.4688,73.1627 Q2374.9688,72.7408 2374.3594,72.5064 Q2373.7656,72.2721 2373.0625,72.2721 Q2372.2969,72.2721 2371.6719,72.7096 Q2371.0469,73.1314 2370.6719,74.0689 Q2370.2969,74.9908 2370.2969,76.4752 Q2370.2969,78.6471 2371.0781,79.6471 Q2371.875,80.6314 2373.1094,80.6314 Q2374.0156,80.6314 2374.6094,80.2877 Q2375.2188,79.9439 2375.7344,79.5533 L2377.0313,81.2096 Q2376.3438,81.8814 2375.3438,82.3658 Q2374.3594,82.8346 2372.9531,82.8346 Q2371.3125,82.8346 2370.0469,82.1158 Q2368.7813,81.3814 2368.0625,79.9596 Q2367.3438,78.5377 2367.3438,76.4752 Q2367.3438,74.4439 2368.0781,73.0377 Q2368.8281,71.6158 2370.1094,70.8814 Q2371.3906,70.1471 2372.9844,70.1471 Z " fill="#000000"/><text fill="#000000" font-family="sans-serif" font-size="14" lengthAdjust="spacing" textLength="81" x="2392.75" y="80.3454">Risultato</text><rect fill="#FFFFFF" height="16.7692" style="stroke:#181818;stroke-width:1.0;stroke-dasharray:2.0,2.0;" width="9" x="2506.5" y="57.0377"/><text fill="#000000" font-family="sans-serif" font-size="12" font-style="italic" lengthAdjust="spacing" textLength="7" x="2507.5" y="69.1146">T</text><line style="stroke:#181818;stroke-width:0.5;" x1="2334.5" x2="2511.5" y1="92.0377" y2="92.0377"/><ellipse cx="2344.5" cy="106.1531" fill="none" rx="3" ry="3" style="stroke:#038048;stroke-width:1.0;"/><text fill="#000000" font-family="sans-serif" font-size="14" lengthAdjust="spacing" textLength="153" x="2353.5" y="108.9608">ha avuto successo</text><ellipse cx="2344.5" cy="123.3839" fill="none" rx="3" ry="3" style="stroke:#038048;stroke-width:1.0;"/><text fill="#000000" font-family="sans-serif" font-size="14" lengthAdjust="spacing" textLength="117" x="2353.5" y="126.1916">get Risultato</text><ellipse cx="2344.5" cy="140.6147" fill="none" rx="3" ry="3" style="stroke:#038048;stroke-width:1.0;"/><text fill="#000000" font-family="sans-serif" font-size="14" lengthAdjust="spacing" textLength="90" x="2353.5" y="143.4224">get Errore</text><ellipse cx="2344.5" cy="157.8455" fill="none" rx="3" ry="3" style="stroke:#038048;stroke-width:1.0;"/><text fill="#000000" font-family="sans-serif" font-size="14" lengthAdjust="spacing" textLength="117" x="2353.5" y="160.6532">come Optional</text><line style="stroke:#181818;stroke-width:0.5;" x1="2334.5" x2="2511.5" y1="168.9609" y2="168.9609"/></g><!--class ClienteBuilderException--><g id="elem_ClienteBuilderException"><rect codeLine="174" fill="#F1F1F1" height="48" id="ClienteBuilderException" rx="2.5" ry="2.5" style="stroke:#181818;stroke-width:0.5;" width="239" x="1383.5" y="323.1177"/><ellipse cx="1398.5" cy="339.1177" fill="#ADD1B2" rx="11" ry="11" style="stroke:#181818;stroke-width:1.0;"/><path d="M1398.2344,333.2271 Q1399.5469,333.2271 1400.4531,333.5708 Q1401.3594,333.9146 1402.125,334.5396 L1400.7188,336.2427 Q1400.2188,335.8208 1399.6094,335.5864 Q1399.0156,335.3521 1398.3125,335.3521 Q1397.5469,335.3521 1396.9219,335.7896 Q1396.2969,336.2114 1395.9219,337.1489 Q1395.5469,338.0708 1395.5469,339.5552 Q1395.5469,341.7271 1396.3281,342.7271 Q1397.125,343.7114 1398.3594,343.7114 Q1399.2656,343.7114 1399.8594,343.3677 Q1400.4688,343.0239 1400.9844,342.6333 L1402.2813,344.2896 Q1401.5938,344.9614 1400.5938,345.4458 Q1399.6094,345.9146 1398.2031,345.9146 Q1396.5625,345.9146 1395.2969,345.1958 Q1394.0313,344.4614 1393.3125,343.0396 Q1392.5938,341.6177 1392.5938,339.5552 Q1392.5938,337.5239 1393.3281,336.1177 Q1394.0781,334.6958 1395.3594,333.9614 Q1396.6406,333.2271 1398.2344,333.2271 Z " fill="#000000"/><text fill="#000000" font-family="sans-serif" font-size="14" lengthAdjust="spacing" textLength="207" x="1412.5" y="343.4254">ClienteBuilderException</text><line style="stroke:#181818;stroke-width:0.5;" x1="1384.5" x2="1621.5" y1="355.1177" y2="355.1177"/><line style="stroke:#181818;stroke-width:0.5;" x1="1384.5" x2="1621.5" y1="363.1177" y2="363.1177"/></g><!--class ClienteBuilderExceptionTipo--><g id="elem_ClienteBuilderExceptionTipo"><rect codeLine="175" fill="#F1F1F1" height="151.3848" id="ClienteBuilderExceptionTipo" rx="2.5" ry="2.5" style="stroke:#181818;stroke-width:0.5;" width="327" x="1361.5" y="42.8077"/><ellipse cx="1395.85" cy="58.8077" fill="#EB937F" rx="11" ry="11" style="stroke:#181818;stroke-width:1.0;"/><path d="M1394.3344,55.2608 L1394.3344,58.1671 L1398.5219,58.1671 L1398.5219,60.1671 L1394.3344,60.1671 L1394.3344,63.2608 L1399.3813,63.2608 L1399.3813,65.3077 L1391.475,65.3077 L1391.475,53.2296 L1399.3656,53.2296 L1399.0844,55.2608 L1394.3344,55.2608 Z " fill="#000000"/><text fill="#000000" font-family="sans-serif" font-size="14" lengthAdjust="spacing" textLength="252" x="1414.15" y="63.1154">ClienteBuilderException.Tipo</text><line style="stroke:#181818;stroke-width:0.5;" x1="1362.5" x2="1687.5" y1="74.8077" y2="74.8077"/><text fill="#000000" font-family="sans-serif" font-size="14" lengthAdjust="spacing" textLength="243" x="1367.5" y="91.7308">Tipo Cliente NonSpecificato</text><text fill="#000000" font-family="sans-serif" font-size="14" lengthAdjust="spacing" textLength="90" x="1367.5" y="108.9616">Nome Vuoto</text><text fill="#000000" font-family="sans-serif" font-size="14" lengthAdjust="spacing" textLength="126" x="1367.5" y="126.1924">Username Vuoto</text><text fill="#000000" font-family="sans-serif" font-size="14" lengthAdjust="spacing" textLength="126" x="1367.5" y="143.4232">Password Vuota</text><text fill="#000000" font-family="sans-serif" font-size="14" lengthAdjust="spacing" textLength="315" x="1367.5" y="160.654">Codice Fatturazione Non Specificato</text><text fill="#000000" font-family="sans-serif" font-size="14" lengthAdjust="spacing" textLength="189" x="1367.5" y="177.8848">Cliente Gi&#224; Costruito</text><line style="stroke:#181818;stroke-width:0.5;" x1="1362.5" x2="1687.5" y1="186.1925" y2="186.1925"/></g><!--class MainControllerBuilderException--><g id="elem_MainControllerBuilderException"><rect codeLine="186" fill="#F1F1F1" height="48" id="MainControllerBuilderException" rx="2.5" ry="2.5" style="stroke:#181818;stroke-width:0.5;" width="302" x="1770" y="323.1177"/><ellipse cx="1785" cy="339.1177" fill="#ADD1B2" rx="11" ry="11" style="stroke:#181818;stroke-width:1.0;"/><path d="M1784.7344,333.2271 Q1786.0469,333.2271 1786.9531,333.5708 Q1787.8594,333.9146 1788.625,334.5396 L1787.2188,336.2427 Q1786.7188,335.8208 1786.1094,335.5864 Q1785.5156,335.3521 1784.8125,335.3521 Q1784.0469,335.3521 1783.4219,335.7896 Q1782.7969,336.2114 1782.4219,337.1489 Q1782.0469,338.0708 1782.0469,339.5552 Q1782.0469,341.7271 1782.8281,342.7271 Q1783.625,343.7114 1784.8594,343.7114 Q1785.7656,343.7114 1786.3594,343.3677 Q1786.9688,343.0239 1787.4844,342.6333 L1788.7813,344.2896 Q1788.0938,344.9614 1787.0938,345.4458 Q1786.1094,345.9146 1784.7031,345.9146 Q1783.0625,345.9146 1781.7969,345.1958 Q1780.5313,344.4614 1779.8125,343.0396 Q1779.0938,341.6177 1779.0938,339.5552 Q1779.0938,337.5239 1779.8281,336.1177 Q1780.5781,334.6958 1781.8594,333.9614 Q1783.1406,333.2271 1784.7344,333.2271 Z " fill="#000000"/><text fill="#000000" font-family="sans-serif" font-size="14" lengthAdjust="spacing" textLength="270" x="1799" y="343.4254">MainControllerBuilderException</text><line style="stroke:#181818;stroke-width:0.5;" x1="1771" x2="2071" y1="355.1177" y2="355.1177"/><line style="stroke:#181818;stroke-width:0.5;" x1="1771" x2="2071" y1="363.1177" y2="363.1177"/></g><!--class MainControllerBuilderExceptionTipo--><g id="elem_MainControllerBuilderExceptionTipo"><rect codeLine="187" fill="#F1F1F1" height="116.9232" id="MainControllerBuilderExceptionTipo" rx="2.5" ry="2.5" style="stroke:#181818;stroke-width:0.5;" width="347" x="1723.5" y="60.0377"/><ellipse cx="1738.5" cy="76.0377" fill="#EB937F" rx="11" ry="11" style="stroke:#181818;stroke-width:1.0;"/><path d="M1736.9844,72.4908 L1736.9844,75.3971 L1741.1719,75.3971 L1741.1719,77.3971 L1736.9844,77.3971 L1736.9844,80.4908 L1742.0313,80.4908 L1742.0313,82.5377 L1734.125,82.5377 L1734.125,70.4596 L1742.0156,70.4596 L1741.7344,72.4908 L1736.9844,72.4908 Z " fill="#000000"/><text fill="#000000" font-family="sans-serif" font-size="14" lengthAdjust="spacing" textLength="315" x="1752.5" y="80.3454">MainControllerBuilderException.Tipo</text><line style="stroke:#181818;stroke-width:0.5;" x1="1724.5" x2="2069.5" y1="92.0377" y2="92.0377"/><text fill="#000000" font-family="sans-serif" font-size="14" lengthAdjust="spacing" textLength="216" x="1729.5" y="108.9608">ProdottoDAO Non Definito</text><text fill="#000000" font-family="sans-serif" font-size="14" lengthAdjust="spacing" textLength="198" x="1729.5" y="126.1916">UtenteDAO Non Definito</text><text fill="#000000" font-family="sans-serif" font-size="14" lengthAdjust="spacing" textLength="252" x="1729.5" y="143.4224">MainController Gia Costruito</text><text fill="#000000" font-family="sans-serif" font-size="14" lengthAdjust="spacing" textLength="207" x="1729.5" y="160.6532">ClienteDAO Non Definito</text><line style="stroke:#181818;stroke-width:0.5;" x1="1724.5" x2="2069.5" y1="168.9609" y2="168.9609"/></g><!--class Input--><g id="elem_Input"><rect codeLine="198" fill="#F1F1F1" height="151.3848" id="Input" rx="2.5" ry="2.5" style="stroke:#181818;stroke-width:0.5;" width="134" x="2547" y="42.8077"/><ellipse cx="2587.65" cy="58.8077" fill="#ADD1B2" rx="11" ry="11" style="stroke:#181818;stroke-width:1.0;"/><path d="M2587.3844,52.9171 Q2588.6969,52.9171 2589.6031,53.2608 Q2590.5094,53.6046 2591.275,54.2296 L2589.8688,55.9327 Q2589.3688,55.5108 2588.7594,55.2764 Q2588.1656,55.0421 2587.4625,55.0421 Q2586.6969,55.0421 2586.0719,55.4796 Q2585.4469,55.9014 2585.0719,56.8389 Q2584.6969,57.7608 2584.6969,59.2452 Q2584.6969,61.4171 2585.4781,62.4171 Q2586.275,63.4014 2587.5094,63.4014 Q2588.4156,63.4014 2589.0094,63.0577 Q2589.6188,62.7139 2590.1344,62.3233 L2591.4313,63.9796 Q2590.7438,64.6514 2589.7438,65.1358 Q2588.7594,65.6046 2587.3531,65.6046 Q2585.7125,65.6046 2584.4469,64.8858 Q2583.1813,64.1514 2582.4625,62.7296 Q2581.7438,61.3077 2581.7438,59.2452 Q2581.7438,57.2139 2582.4781,55.8077 Q2583.2281,54.3858 2584.5094,53.6514 Q2585.7906,52.9171 2587.3844,52.9171 Z " fill="#000000"/><text fill="#000000" font-family="sans-serif" font-size="14" lengthAdjust="spacing" textLength="45" x="2607.35" y="63.1154">Input</text><line style="stroke:#181818;stroke-width:0.5;" x1="2548" x2="2680" y1="74.8077" y2="74.8077"/><ellipse cx="2558" cy="88.9231" fill="none" rx="3" ry="3" style="stroke:#038048;stroke-width:1.0;"/><text fill="#000000" font-family="sans-serif" font-size="14" lengthAdjust="spacing" textLength="72" x="2567" y="91.7308">next Int</text><ellipse cx="2558" cy="106.1539" fill="none" rx="3" ry="3" style="stroke:#038048;stroke-width:1.0;"/><text fill="#000000" font-family="sans-serif" font-size="14" lengthAdjust="spacing" textLength="81" x="2567" y="108.9616">next Line</text><ellipse cx="2558" cy="123.3847" fill="none" rx="3" ry="3" style="stroke:#038048;stroke-width:1.0;"/><text fill="#000000" font-family="sans-serif" font-size="14" lengthAdjust="spacing" textLength="81" x="2567" y="126.1924">next Long</text><ellipse cx="2558" cy="140.6155" fill="none" rx="3" ry="3" style="stroke:#038048;stroke-width:1.0;"/><text fill="#000000" font-family="sans-serif" font-size="14" lengthAdjust="spacing" textLength="108" x="2567" y="143.4232">next Boolean</text><ellipse cx="2558" cy="157.8463" fill="none" rx="3" ry="3" style="stroke:#038048;stroke-width:1.0;"/><text fill="#000000" font-family="sans-serif" font-size="14" lengthAdjust="spacing" textLength="81" x="2567" y="160.654">next Date</text><ellipse cx="2558" cy="175.0771" fill="none" rx="3" ry="3" style="stroke:#038048;stroke-width:1.0;"/><text fill="#000000" font-family="sans-serif" font-size="14" lengthAdjust="spacing" textLength="90" x="2567" y="177.8848">next Float</text><line style="stroke:#181818;stroke-width:0.5;" x1="2548" x2="2680" y1="186.1925" y2="186.1925"/></g><!--class None--><g id="elem_None"><rect codeLine="207" fill="#F1F1F1" height="48" id="None" rx="2.5" ry="2.5" style="stroke:#181818;stroke-width:0.5;" width="68" x="2389" y="323.1177"/><ellipse cx="2404" cy="339.1177" fill="#ADD1B2" rx="11" ry="11" style="stroke:#181818;stroke-width:1.0;"/><path d="M2403.7344,333.2271 Q2405.0469,333.2271 2405.9531,333.5708 Q2406.8594,333.9146 2407.625,334.5396 L2406.2188,336.2427 Q2405.7188,335.8208 2405.1094,335.5864 Q2404.5156,335.3521 2403.8125,335.3521 Q2403.0469,335.3521 2402.4219,335.7896 Q2401.7969,336.2114 2401.4219,337.1489 Q2401.0469,338.0708 2401.0469,339.5552 Q2401.0469,341.7271 2401.8281,342.7271 Q2402.625,343.7114 2403.8594,343.7114 Q2404.7656,343.7114 2405.3594,343.3677 Q2405.9688,343.0239 2406.4844,342.6333 L2407.7813,344.2896 Q2407.0938,344.9614 2406.0938,345.4458 Q2405.1094,345.9146 2403.7031,345.9146 Q2402.0625,345.9146 2400.7969,345.1958 Q2399.5313,344.4614 2398.8125,343.0396 Q2398.0938,341.6177 2398.0938,339.5552 Q2398.0938,337.5239 2398.8281,336.1177 Q2399.5781,334.6958 2400.8594,333.9614 Q2402.1406,333.2271 2403.7344,333.2271 Z " fill="#000000"/><text fill="#000000" font-family="sans-serif" font-size="14" lengthAdjust="spacing" textLength="36" x="2418" y="343.4254">None</text><line style="stroke:#181818;stroke-width:0.5;" x1="2390" x2="2456" y1="355.1177" y2="355.1177"/><line style="stroke:#181818;stroke-width:0.5;" x1="2390" x2="2456" y1="363.1177" y2="363.1177"/></g><!--class ClienteDAO--><g id="elem_ClienteDAO"><rect codeLine="211" fill="#F1F1F1" height="48" id="ClienteDAO" rx="2.5" ry="2.5" style="stroke:#181818;stroke-width:0.5;" width="131" x="353.5" y="1177.2677"/><ellipse cx="368.5" cy="1193.2677" fill="#B4A7E5" rx="11" ry="11" style="stroke:#181818;stroke-width:1.0;"/><path d="M372.6563,1187.6896 L372.6563,1189.7833 L370.1563,1189.7833 L370.1563,1197.6739 L372.6563,1197.6739 L372.6563,1199.7677 L364.8125,1199.7677 L364.8125,1197.6739 L367.2969,1197.6739 L367.2969,1189.7833 L364.8125,1189.7833 L364.8125,1187.6896 L372.6563,1187.6896 Z " fill="#000000"/><text fill="#000000" font-family="sans-serif" font-size="14" font-style="italic" lengthAdjust="spacing" textLength="99" x="382.5" y="1197.5754">Cliente DAO</text><line style="stroke:#181818;stroke-width:0.5;" x1="354.5" x2="483.5" y1="1209.2677" y2="1209.2677"/><line style="stroke:#181818;stroke-width:0.5;" x1="354.5" x2="483.5" y1="1217.2677" y2="1217.2677"/></g><!--class ProdottoDAO--><g id="elem_ProdottoDAO"><rect codeLine="213" fill="#F1F1F1" height="48" id="ProdottoDAO" rx="2.5" ry="2.5" style="stroke:#181818;stroke-width:0.5;" width="140" x="22" y="1177.2677"/><ellipse cx="37" cy="1193.2677" fill="#B4A7E5" rx="11" ry="11" style="stroke:#181818;stroke-width:1.0;"/><path d="M41.1563,1187.6896 L41.1563,1189.7833 L38.6563,1189.7833 L38.6563,1197.6739 L41.1563,1197.6739 L41.1563,1199.7677 L33.3125,1199.7677 L33.3125,1197.6739 L35.7969,1197.6739 L35.7969,1189.7833 L33.3125,1189.7833 L33.3125,1187.6896 L41.1563,1187.6896 Z " fill="#000000"/><text fill="#000000" font-family="sans-serif" font-size="14" font-style="italic" lengthAdjust="spacing" textLength="108" x="51" y="1197.5754">Prodotto DAO</text><line style="stroke:#181818;stroke-width:0.5;" x1="23" x2="161" y1="1209.2677" y2="1209.2677"/><line style="stroke:#181818;stroke-width:0.5;" x1="23" x2="161" y1="1217.2677" y2="1217.2677"/></g><!--class UtenteDAO--><g id="elem_UtenteDAO"><rect codeLine="215" fill="#F1F1F1" height="48" id="UtenteDAO" rx="2.5" ry="2.5" style="stroke:#181818;stroke-width:0.5;" width="122" x="197" y="1177.2677"/><ellipse cx="212" cy="1193.2677" fill="#B4A7E5" rx="11" ry="11" style="stroke:#181818;stroke-width:1.0;"/><path d="M216.1563,1187.6896 L216.1563,1189.7833 L213.6563,1189.7833 L213.6563,1197.6739 L216.1563,1197.6739 L216.1563,1199.7677 L208.3125,1199.7677 L208.3125,1197.6739 L210.7969,1197.6739 L210.7969,1189.7833 L208.3125,1189.7833 L208.3125,1187.6896 L216.1563,1187.6896 Z " fill="#000000"/><text fill="#000000" font-family="sans-serif" font-size="14" font-style="italic" lengthAdjust="spacing" textLength="90" x="226" y="1197.5754">Utente DAO</text><line style="stroke:#181818;stroke-width:0.5;" x1="198" x2="318" y1="1209.2677" y2="1209.2677"/><line style="stroke:#181818;stroke-width:0.5;" x1="198" x2="318" y1="1217.2677" y2="1217.2677"/></g><!--class SqlDaoImpl--><g id="elem_SqlDaoImpl"><rect codeLine="218" fill="#F1F1F1" height="48" id="SqlDaoImpl" rx="2.5" ry="2.5" style="stroke:#181818;stroke-width:0.5;" width="230" x="65" y="1008.9677"/><ellipse cx="80" cy="1024.9677" fill="#ADD1B2" rx="11" ry="11" style="stroke:#181818;stroke-width:1.0;"/><path d="M79.7344,1019.0771 Q81.0469,1019.0771 81.9531,1019.4208 Q82.8594,1019.7646 83.625,1020.3896 L82.2188,1022.0927 Q81.7188,1021.6708 81.1094,1021.4364 Q80.5156,1021.2021 79.8125,1021.2021 Q79.0469,1021.2021 78.4219,1021.6396 Q77.7969,1022.0614 77.4219,1022.9989 Q77.0469,1023.9208 77.0469,1025.4052 Q77.0469,1027.5771 77.8281,1028.5771 Q78.625,1029.5614 79.8594,1029.5614 Q80.7656,1029.5614 81.3594,1029.2177 Q81.9688,1028.8739 82.4844,1028.4833 L83.7813,1030.1396 Q83.0938,1030.8114 82.0938,1031.2958 Q81.1094,1031.7646 79.7031,1031.7646 Q78.0625,1031.7646 76.7969,1031.0458 Q75.5313,1030.3114 74.8125,1028.8896 Q74.0938,1027.4677 74.0938,1025.4052 Q74.0938,1023.3739 74.8281,1021.9677 Q75.5781,1020.5458 76.8594,1019.8114 Q78.1406,1019.0771 79.7344,1019.0771 Z " fill="#000000"/><text fill="#000000" font-family="sans-serif" font-size="14" lengthAdjust="spacing" textLength="198" x="94" y="1029.2754">SQL DAO Implementation</text><line style="stroke:#181818;stroke-width:0.5;" x1="66" x2="294" y1="1040.9677" y2="1040.9677"/><line style="stroke:#181818;stroke-width:0.5;" x1="66" x2="294" y1="1048.9677" y2="1048.9677"/></g><!--link CategoriaProdotto to PossibiliCategorie--><g id="link_CategoriaProdotto_PossibiliCategorie"><path codeLine="19" d="M677.58,880.3677 C667.82,957.2777 651.98,1082.1777 643.26,1150.9577 " fill="none" id="CategoriaProdotto-PossibiliCategorie" style="stroke:#181818;stroke-width:1.0;"/></g><!--link CategoriaProdotto to TipoCategoriaProdotto--><g id="link_CategoriaProdotto_TipoCategoriaProdotto"><path codeLine="20" d="M719.18,880.3677 C757.6,957.2777 820,1082.1777 854.36,1150.9577 " fill="none" id="CategoriaProdotto-TipoCategoriaProdotto" style="stroke:#181818;stroke-width:1.0;"/></g><!--link ClienteBuilder to Cliente--><g id="link_ClienteBuilder_Cliente"><path codeLine="44" d="M1163.05,914.9877 C1157.84,935.2577 1152.54,955.8977 1147.87,974.0877 " fill="none" id="ClienteBuilder-Cliente" style="stroke:#181818;stroke-width:1.0;"/></g><!--reverse link Utente to Cliente--><g id="link_Utente_Cliente"><path codeLine="83" d="M999.13,859.2777 C1024.94,892.5677 1060.21,938.0777 1088.07,974.0077 " fill="none" id="Utente-backto-Cliente" style="stroke:#181818;stroke-width:1.0;"/><polygon fill="#181818" points="996.32,855.6577,998.6785,865.22,999.3858,859.6075,1004.9982,860.3148,996.32,855.6577" style="stroke:#181818;stroke-width:1.0;"/></g><!--reverse link Utente to Impiegato--><g id="link_Utente_Impiegato"><path codeLine="84" d="M964,860.7877 C964,902.8577 964,963.5077 964,1000.1777 " fill="none" id="Utente-backto-Impiegato" style="stroke:#181818;stroke-width:1.0;"/><polygon fill="#181818" points="964,855.9677,960,864.9677,964,860.9677,968,864.9677,964,855.9677" style="stroke:#181818;stroke-width:1.0;"/></g><!--link Fattorino to Utente--><g id="link_Fattorino_Utente"><path codeLine="85" d="M969.4,600.1477 C968.42,638.4877 966.46,715.3577 965.19,765.1877 " fill="none" id="Fattorino-to-Utente" style="stroke:#181818;stroke-width:1.0;"/><polygon fill="#181818" points="965.07,769.9077,969.3,761.0135,965.1985,764.9094,961.3027,760.8079,965.07,769.9077" style="stroke:#181818;stroke-width:1.0;"/></g><!--link Prodotto to CategoriaProdotto--><g id="link_Prodotto_CategoriaProdotto"><path codeLine="87" d="M686,651.8077 C686,677.0977 686,705.4277 686,731.1477 " fill="none" id="Prodotto-to-CategoriaProdotto" style="stroke:#181818;stroke-width:1.0;"/><polygon fill="none" points="686,744.0277,690,738.0277,686,732.0277,682,738.0277,686,744.0277" style="stroke:#181818;stroke-width:1.0;"/></g><!--link Prodotto to Fattura--><g id="link_Prodotto_Fattura"><path codeLine="88" d="M789.46,651.7377 C807.55,669.3777 824.3,689.4977 836,711.4277 C916.3,861.9277 787.28,955.2277 890,1091.4277 C898.55,1102.7677 954.76,1128.1577 1011.07,1151.5777 " fill="none" id="Prodotto-to-Fattura" style="stroke:#181818;stroke-width:1.0;"/><polygon fill="none" points="1022.81,1156.4177,1018.7953,1150.4275,1011.7218,1151.8295,1015.7365,1157.8197,1022.81,1156.4177" style="stroke:#181818;stroke-width:1.0;"/></g><!--link Cliente to Fattura--><g id="link_Cliente_Fattura"><path codeLine="90" d="M1133.35,1091.6677 C1133.43,1106.1577 1133.53,1121.7977 1133.62,1136.5677 " fill="none" id="Cliente-to-Fattura" style="stroke:#181818;stroke-width:1.0;"/><polygon fill="none" points="1133.69,1149.4577,1137.6504,1143.4315,1133.6109,1137.458,1129.6505,1143.4842,1133.69,1149.4577" style="stroke:#181818;stroke-width:1.0;"/></g><!--link Ordine to Prodotto--><g id="link_Ordine_Prodotto"><path codeLine="92" d="M913.86,397.2877 C875.49,427.1677 825.74,465.9077 782.52,499.5677 " fill="none" id="Ordine-Prodotto" style="stroke:#181818;stroke-width:1.0;"/></g><!--link Ordine to Fattorino--><g id="link_Ordine_Fattorino"><path codeLine="93" d="M975.48,397.2877 C974.01,444.9377 971.84,515.1377 970.72,551.2977 " fill="none" id="Ordine-Fattorino" style="stroke:#181818;stroke-width:1.0;"/></g><!--reverse link BuondaryImpiegato to LoginBoundary--><g id="link_BuondaryImpiegato_LoginBoundary"><path codeLine="130" d="M3936.45,176.2477 C3926.04,182.6077 3915.4,188.7477 3905,194.1977 C3810.88,243.4877 3697.08,287.5677 3619.7,315.3877 " fill="none" id="BuondaryImpiegato-backto-LoginBoundary" style="stroke:#181818;stroke-width:1.0;"/><polygon fill="#181818" points="3947.25,169.5177,3940.0421,169.3023,3937.0711,175.8729,3944.2789,176.0883,3947.25,169.5177" style="stroke:#181818;stroke-width:1.0;"/></g><!--reverse link BoundaryGestore to LoginBoundary--><g id="link_BoundaryGestore_LoginBoundary"><path codeLine="131" d="M3338.27,203.1977 C3385.12,238.1177 3437.39,277.0777 3475.5,305.4977 " fill="none" id="BoundaryGestore-backto-LoginBoundary" style="stroke:#181818;stroke-width:1.0;"/><polygon fill="#181818" points="3328.02,195.5477,3330.4409,202.3403,3337.6421,202.7181,3335.2212,195.9256,3328.02,195.5477" style="stroke:#181818;stroke-width:1.0;"/></g><!--reverse link BoundaryFattorino to LoginBoundary--><g id="link_BoundaryFattorino_LoginBoundary"><path codeLine="132" d="M3530,182.9377 C3530,222.2877 3530,271.6577 3530,305.7377 " fill="none" id="BoundaryFattorino-backto-LoginBoundary" style="stroke:#181818;stroke-width:1.0;"/><polygon fill="#181818" points="3530,170.1877,3526,176.1877,3530,182.1877,3534,176.1877,3530,170.1877" style="stroke:#181818;stroke-width:1.0;"/></g><!--reverse link BoundaryCliente to LoginBoundary--><g id="link_BoundaryCliente_LoginBoundary"><path codeLine="133" d="M3715.11,178.3177 C3670.94,218.3577 3613.63,270.3177 3574.55,305.7377 " fill="none" id="BoundaryCliente-backto-LoginBoundary" style="stroke:#181818;stroke-width:1.0;"/><polygon fill="#181818" points="3724.63,169.6877,3717.499,170.7598,3715.7459,177.7545,3722.8769,176.6825,3724.63,169.6877" style="stroke:#181818;stroke-width:1.0;"/></g><!--link MainControllerBuilder to MainController--><g id="link_MainControllerBuilder_MainController"><path codeLine="154" d="M2274.13,651.8077 C2273.09,678.9677 2271.92,709.6277 2270.88,736.7977 " fill="none" id="MainControllerBuilder-MainController" style="stroke:#181818;stroke-width:1.0;"/></g><!--reverse link ClienteBuilderExceptionTipo to ClienteBuilderException--><g id="link_ClienteBuilderExceptionTipo_ClienteBuilderException"><path codeLine="183" d="M1516.31,209.0077 C1512.31,250.2477 1507.88,295.8877 1505.27,322.7377 " fill="none" id="ClienteBuilderExceptionTipo-backto-ClienteBuilderException" style="stroke:#181818;stroke-width:1.0;"/><polygon fill="#181818" points="1517.56,196.1577,1512.9987,201.7429,1516.3999,208.1015,1520.9612,202.5163,1517.56,196.1577" style="stroke:#181818;stroke-width:1.0;"/></g><!--link ClienteBuilderException to ClienteBuilder--><g id="link_ClienteBuilderException_ClienteBuilder"><path codeLine="184" d="M1487.21,371.4377 C1445.74,432.7077 1331.77,601.0677 1257.34,711.0077 " fill="none" id="ClienteBuilderException-ClienteBuilder" style="stroke:#181818;stroke-width:1.0;"/></g><!--reverse link MainControllerBuilderExceptionTipo to MainControllerBuilderException--><g id="link_MainControllerBuilderExceptionTipo_MainControllerBuilderException"><path codeLine="193" d="M1904.63,191.5477 C1909.42,236.7477 1915.28,292.0977 1918.53,322.7877 " fill="none" id="MainControllerBuilderExceptionTipo-backto-MainControllerBuilderException" style="stroke:#181818;stroke-width:1.0;"/><polygon fill="#181818" points="1903.28,178.7777,1899.9352,185.1662,1904.5458,190.7107,1907.8906,184.3223,1903.28,178.7777" style="stroke:#181818;stroke-width:1.0;"/></g><!--link MainControllerBuilderException to MainControllerBuilder--><g id="link_MainControllerBuilderException_MainControllerBuilder"><path codeLine="194" d="M1957.76,371.5177 C2004.92,401.5377 2089.02,455.0677 2159.06,499.6577 " fill="none" id="MainControllerBuilderException-MainControllerBuilder" style="stroke:#181818;stroke-width:1.0;"/></g><!--link noop_email to email--><g id="link_noop_email_email"><path codeLine="196" d="M2202,142.8977 C2202,181.8877 2202,260.5177 2202,307.7277 " fill="none" id="noop_email-to-email" style="stroke:#181818;stroke-width:1.0;"/><polygon fill="#181818" points="2202,312.6577,2206,303.6577,2202,307.6577,2198,303.6577,2202,312.6577" style="stroke:#181818;stroke-width:1.0;"/></g><!--link SqlDaoImpl to ClienteDAO--><g id="link_SqlDaoImpl_ClienteDAO"><path codeLine="220" d="M213.74,1057.4377 C257.6,1087.9577 334.03,1141.1477 380.23,1173.2977 " fill="none" id="SqlDaoImpl-to-ClienteDAO" style="stroke:#181818;stroke-width:1.0;"/><polygon fill="#181818" points="384.19,1176.0477,379.093,1167.6203,380.0878,1173.189,374.5191,1174.1838,384.19,1176.0477" style="stroke:#181818;stroke-width:1.0;"/></g><!--link SqlDaoImpl to ProdottoDAO--><g id="link_SqlDaoImpl_ProdottoDAO"><path codeLine="221" d="M167.58,1057.4377 C151.72,1087.3977 124.31,1139.2177 107.22,1171.5177 " fill="none" id="SqlDaoImpl-to-ProdottoDAO" style="stroke:#181818;stroke-width:1.0;"/><polygon fill="#181818" points="105.07,1175.5777,112.8225,1169.5032,107.414,1171.1612,105.7561,1165.7528,105.07,1175.5777" style="stroke:#181818;stroke-width:1.0;"/></g><!--link SqlDaoImpl to UtenteDAO--><g id="link_SqlDaoImpl_UtenteDAO"><path codeLine="222" d="M191.01,1057.4377 C205,1087.2777 229.16,1138.7877 244.32,1171.1077 " fill="none" id="SqlDaoImpl-to-UtenteDAO" style="stroke:#181818;stroke-width:1.0;"/><polygon fill="#181818" points="246.4,1175.5477,246.2051,1165.7008,244.2793,1171.0197,238.9604,1169.0939,246.4,1175.5477" style="stroke:#181818;stroke-width:1.0;"/></g><!--link LoginBoundary to MainController--><g id="link_LoginBoundary_MainController"><path codeLine="225" d="M3510.71,388.8077 C3475.9,457.0477 3395.48,592.8377 3282,651.4277 C3107.04,741.7477 2582.06,641.5077 2398,711.4277 C2385.95,715.9977 2374.11,722.0877 2362.78,729.0177 " fill="none" id="LoginBoundary-to-MainController" style="stroke:#181818;stroke-width:1.0;stroke-dasharray:7.0,7.0;"/><polygon fill="none" points="2351.96,736.0177,2359.1704,736.1188,2362.037,729.502,2354.8266,729.4008,2351.96,736.0177" style="stroke:#181818;stroke-width:1.0;"/></g><!--link BoundaryBackgroundScheduler to MainController--><g id="link_BoundaryBackgroundScheduler_MainController"><path codeLine="226" d="M2860.74,168.8477 C2829.68,234.6777 2768.98,353.0377 2697,440.0377 C2645.21,502.6377 2482.25,638.8277 2372.76,727.8777 " fill="none" id="BoundaryBackgroundScheduler-to-MainController" style="stroke:#181818;stroke-width:1.0;stroke-dasharray:7.0,7.0;"/><polygon fill="none" points="2362.84,735.9277,2370.0199,735.2574,2372.1626,728.372,2364.9828,729.0423,2362.84,735.9277" style="stroke:#181818;stroke-width:1.0;"/></g><!--link BoundaryGestore to MainController--><g id="link_BoundaryGestore_MainController"><path codeLine="227" d="M3158.3,194.2677 C3050.76,308.7077 2829.47,527.0977 2600,651.4277 C2517.66,696.0377 2481.35,668.7177 2398,711.4277 C2387.98,716.5577 2377.96,722.4977 2368.18,728.8777 " fill="none" id="BoundaryGestore-to-MainController" style="stroke:#181818;stroke-width:1.0;stroke-dasharray:7.0,7.0;"/><polygon fill="none" points="2357.64,735.9977,2364.851,735.9559,2367.5859,729.2836,2360.3749,729.3253,2357.64,735.9977" style="stroke:#181818;stroke-width:1.0;"/></g><!--link BoundaryFattorino to MainController--><g id="link_BoundaryFattorino_MainController"><path codeLine="228" d="M3466.97,168.7577 C3312.6,288.4677 2917.07,589.4477 2764,651.4277 C2611.21,713.2877 2549.15,645.6577 2398,711.4277 C2386.78,716.3077 2375.68,722.3677 2364.96,729.0877 " fill="none" id="BoundaryFattorino-to-MainController" style="stroke:#181818;stroke-width:1.0;stroke-dasharray:7.0,7.0;"/><polygon fill="none" points="2354.31,736.0877,2361.5209,736.1383,2364.3411,729.5015,2357.1301,729.4509,2354.31,736.0877" style="stroke:#181818;stroke-width:1.0;"/></g><!--link MainController to ClienteDAO--><g id="link_MainController_ClienteDAO"><path codeLine="230" d="M2155.54,827.4677 C1978.31,848.3977 1623.1,888.9177 1321,914.4977 C1232.58,921.9877 596.87,914.3377 524,964.9677 C457.82,1010.9377 432.79,1108.7277 423.76,1162.6477 " fill="none" id="MainController-to-ClienteDAO" style="stroke:#181818;stroke-width:1.0;"/><polygon fill="none" points="421.81,1175.4277,426.6732,1170.1033,423.6287,1163.5663,418.7656,1168.8908,421.81,1175.4277" style="stroke:#181818;stroke-width:1.0;"/></g><!--link MainController to ProdottoDAO--><g id="link_MainController_ProdottoDAO"><path codeLine="231" d="M2155.56,827.6977 C1978.36,848.9477 1623.18,889.8777 1321,914.4977 C1124.22,930.5377 613.45,882.6477 434,964.9677 C363.02,997.5277 375.79,1046.3677 312,1091.4277 C259.36,1128.6077 237.55,1122.4277 180,1151.4277 C168.55,1157.1977 156.43,1163.6677 144.97,1169.9677 " fill="none" id="MainController-to-ProdottoDAO" style="stroke:#181818;stroke-width:1.0;"/><polygon fill="none" points="133.7,1176.2377,140.8874,1176.822,144.1911,1170.4122,137.0037,1169.8279,133.7,1176.2377" style="stroke:#181818;stroke-width:1.0;"/></g><!--link MainController to UtenteDAO--><g id="link_MainController_UtenteDAO"><path codeLine="232" d="M2155.52,855.8777 C1980.1,919.1977 1629.42,1037.5577 1321,1091.4277 C888.95,1166.8877 753.66,1017.5577 336,1151.4277 C323.26,1155.5077 310.51,1162.1477 299.12,1169.2277 " fill="none" id="MainController-to-UtenteDAO" style="stroke:#181818;stroke-width:1.0;"/><polygon fill="none" points="288.63,1176.1577,295.841,1176.1907,298.6449,1169.547,291.4339,1169.5141,288.63,1176.1577" style="stroke:#181818;stroke-width:1.0;"/></g><!--link Cliente to ClienteDAO--><g id="link_Cliente_ClienteDAO"><path codeLine="234" d="M1054.67,1084.7377 C1049.15,1087.2477 1043.56,1089.5177 1038,1091.4277 C820.42,1165.9777 745.3,1088.7877 524,1151.4277 C502.53,1157.5077 479.93,1167.4977 461.23,1176.8577 " fill="none" id="Cliente-ClienteDAO" style="stroke:#181818;stroke-width:1.0;"/></g><!--link Prodotto to ProdottoDAO--><g id="link_Prodotto_ProdottoDAO"><path codeLine="235" d="M558.3,612.5677 C405.53,663.0777 156.8,771.4077 48,964.9677 C8.8,1034.7077 53.43,1132.6177 77.99,1176.8977 " fill="none" id="Prodotto-ProdottoDAO" style="stroke:#181818;stroke-width:1.0;"/></g><!--link Utente to UtenteDAO--><g id="link_Utente_UtenteDAO"><path codeLine="236" d="M923.87,854.6777 C900.31,876.0577 868.79,900.6277 836,914.4977 C682.34,979.5277 610.96,885.9577 464,964.9677 C369.55,1015.7377 298.22,1128.2177 270.56,1176.9777 " fill="none" id="Utente-UtenteDAO" style="stroke:#181818;stroke-width:1.0;"/></g><!--SRC=[bLZDRjms43vdduBmCS7w0GB3G6nl30EExMPZNmD6uif4kAHAKTlKHTwbnxv7Ngn3YZz3KgkwUmYiZyFXy9iVpgIdpNVQCRAHXfi_oLyh0hz6q64WbzImJcbE7xHgbJ7AhzeVbuOqgkKDYz236WR-ZGiUzZ7I10rHw0llLQtN01f51gEvx4ZBXaRp5wvaEc8d53Mar-pbHH4goFVEBVrq_p8vxkUCI4O_W4eUlowr6WnjM48-AI76eNdcfTPvgvFY9wOfOkA34En0zqoQTAjB9Jicg4SctRNAzNezSuK5uLdBLcu3_GPCqiQGHmEMO1uym-F0j0GpIxm7v_-XT8iizG4XUA797k-yvvTALLBLwhbiEJZsfV8usrCk_A7er1El-_HYvA9b-eJGQ8g7a4NlY1pLGQ7lHabdPm7TOTCcwAQoRC8tqR24NRhW9n-fCQEcUPXE4eyblHFyWDaDC30myX2SFZZo6uAl0yU8cvjzprb7is0igSSUjEP2f4YGBs6unN9-1-ytXQjl-M3EGkYTGtQwltXrzkkgo4BsrnbGrnTV8TYWG7ce3_QtzR4DUe4kZSgMLtQwDPR7mQGSJGNW99To8UWlghwwBUXMbvfHbFbFJBOZ-hw16D2ifsNKU32N77hM5ZHyPhtI1ijvzo4aocpojIonxdNB9Ljsnv9pmz5JGEt2N_WWgI1WZEg9sYN_loStmjLYvmZownyuk872wroMrp1VkivGz1Tmp81LRivwVUx59aseQgewaceHpziAvsAzu2cqLHjhId0qQ0MCzFwjlL2ZRAdENzkJY5w0MAVj5zaspwmTXIzwGI89nFMi0WuJIX7KCGbl5D4kBcgS0VK7JfqJxUNAt4t6HRudYqRbuBawz8v0sPJeKxEEsoSfPWvQwwVW9yenjt3-DHjir6HyUEnLPvVL2otnB9IMUJlmOQG2tegPjQZGlaGq5QdytlFNY_6INH2LxUDNH2R5gi7pnsV7z9xQFmRMoIKl-u3FZAXV_oKJ89v0ccgEsMIx7OC0E-xcMzL13GWdkkCTL6HCeKrO4MoLcloPc-1BKXsoRo5FirCckIAubgMIXvRb0ecr5AeFq2iQ3RreJEk9dKz0ThKKqcUgowJbGmzkj-tZQvXQIic5bFbVrOJDj7JvLRBEBb-g6xoflNlpPkgcWCEEwVWPgl3LX_k8JQy0HhmJ4XJQBx8XM_ZWfcp6veq27-OBwD7Jl7iszjdB9TwJBRGXWXabiSSV3JWiZb_m3ZEzWuc2d6nWko1RfW-U7jSaOzVF5MvCzPqYzpsfz4Yb-gzEcJyqt_KPCbdO1kBioxcJZq0MTy-KqCDeswQnQTWmvANJf5q5lj4Qzs3M1ti6TXgeMNHc1iYRuSsFXZdHqCLEFTeHeLFR_CyC3L703J75J1Foz4x9RSyQlkEsMu5miMC3UHgL-mWjVWH2S-y02i3Cc61rabnfEEsQ__eRij-5OpufBbZ-DZL7vVhINb9jMnsjDSkyByic-fVbl1U0mvJ3ZgehjkEIJto7L2uNYj9u3HcHQ8pyLXl_8y5hdfV5Ng6975CIIaVCIjl0JXCndlTaFvfyscK_3C2cX6vvDf1Ec99TYLqe9HYL9Nn5JRNzevsjwjoyip4D0O7AcIMwAcKXo64HPsEI_LdkY0rvs893uyWUFng47IbYvghSzhTRPolq0eBP_w-XraTku_PtSKMLNSXEGh1r47f9PbRnQpIpd1uci2flSzQdC6aKRyjIzxya7ngO9HaqDyr8hOhqMhiPAbrzRXdVVMuzNNwLfYki54rZcJBlO42ZYdy1]--></g></svg>