<?xml version="1.0" encoding="us-ascii" standalone="no"?><svg xmlns="http://www.w3.org/2000/svg" xmlns:xlink="http://www.w3.org/1999/xlink" contentStyleType="text/css" height="614px" preserveAspectRatio="none" style="width:716px;height:614px;background:#FFFFFF;" version="1.1" viewBox="0 0 716 614" width="716px" zoomAndPan="magnify"><defs/><g><g id="elem_CategoriaProdotto"><rect fill="#F1F1F1" height="115.3848" style="stroke:#181818;stroke-width:0.5;" width="167" x="543" y="492.31"/><text fill="#000000" font-family="sans-serif" font-size="14" lengthAdjust="spacing" textLength="153" x="550" y="507.2331">CategoriaProdotto</text><line style="stroke:#181818;stroke-width:0.5;" x1="544" x2="709" y1="513.5408" y2="513.5408"/><rect fill="none" height="6" style="stroke:#C82930;stroke-width:1.0;" width="6" x="551" y="524.6562"/><text fill="#000000" font-family="sans-serif" font-size="14" lengthAdjust="spacing" textLength="54" x="563" y="530.4639">codice</text><rect fill="none" height="6" style="stroke:#C82930;stroke-width:1.0;" width="6" x="551" y="541.887"/><text fill="#000000" font-family="sans-serif" font-size="14" lengthAdjust="spacing" textLength="81" x="563" y="547.6947">categoria</text><rect fill="none" height="6" style="stroke:#C82930;stroke-width:1.0;" width="6" x="551" y="559.1178"/><text fill="#000000" font-family="sans-serif" font-size="14" lengthAdjust="spacing" textLength="36" x="563" y="564.9255">tipo</text><rect fill="none" height="6" style="stroke:#C82930;stroke-width:1.0;" width="6" x="551" y="576.3486"/><text fill="#000000" font-family="sans-serif" font-size="14" lengthAdjust="spacing" textLength="99" x="563" y="582.1563">descrizione</text><rect fill="none" height="6" style="stroke:#C82930;stroke-width:1.0;" width="6" x="551" y="593.5794"/><text fill="#000000" font-family="sans-serif" font-size="14" lengthAdjust="spacing" textLength="108" x="563" y="599.3871">prezzo al kg</text></g><g id="elem_Utente"><rect fill="#F1F1F1" height="63.6924" style="stroke:#181818;stroke-width:0.5;" width="98" x="211.5" y="7"/><text fill="#000000" font-family="sans-serif" font-size="14" lengthAdjust="spacing" textLength="54" x="233.5" y="21.9231">Utente</text><line style="stroke:#181818;stroke-width:0.5;" x1="212.5" x2="308.5" y1="28.2308" y2="28.2308"/><rect fill="none" height="6" style="stroke:#C82930;stroke-width:1.0;" width="6" x="219.5" y="39.3462"/><text fill="#000000" font-family="sans-serif" font-size="14" lengthAdjust="spacing" textLength="72" x="231.5" y="45.1539">username</text><rect fill="none" height="6" style="stroke:#C82930;stroke-width:1.0;" width="6" x="219.5" y="56.577"/><text fill="#000000" font-family="sans-serif" font-size="14" lengthAdjust="spacing" textLength="72" x="231.5" y="62.3847">password</text></g><g id="elem_Cliente"><rect fill="#F1F1F1" height="98.154" style="stroke:#181818;stroke-width:0.5;" width="179" x="7" y="209.69"/><text fill="#000000" font-family="sans-serif" font-size="14" lengthAdjust="spacing" textLength="63" x="65" y="224.6131">Cliente</text><line style="stroke:#181818;stroke-width:0.5;" x1="8" x2="185" y1="230.9208" y2="230.9208"/><rect fill="none" height="6" style="stroke:#C82930;stroke-width:1.0;" width="6" x="15" y="242.0362"/><text fill="#000000" font-family="sans-serif" font-size="14" lengthAdjust="spacing" textLength="153" x="27" y="247.8439">tipologia cliente</text><rect fill="none" height="6" style="stroke:#C82930;stroke-width:1.0;" width="6" x="15" y="259.267"/><text fill="#000000" font-family="sans-serif" font-size="14" lengthAdjust="spacing" textLength="36" x="27" y="265.0747">nome</text><rect fill="none" height="6" style="stroke:#C82930;stroke-width:1.0;" width="6" x="15" y="276.4978"/><text fill="#000000" font-family="sans-serif" font-size="14" lengthAdjust="spacing" textLength="81" x="27" y="282.3055">indirizzo</text><rect fill="none" height="6" style="stroke:#C82930;stroke-width:1.0;" width="6" x="15" y="293.7286"/><text fill="#000000" font-family="sans-serif" font-size="14" lengthAdjust="spacing" textLength="54" x="27" y="299.5363">e-mail</text></g><g id="elem_Impiegato"><rect fill="#F1F1F1" height="46.4616" style="stroke:#181818;stroke-width:0.5;" width="95" x="221" y="235.54"/><text fill="#000000" font-family="sans-serif" font-size="14" lengthAdjust="spacing" textLength="81" x="228" y="250.4631">Impiegato</text><line style="stroke:#181818;stroke-width:0.5;" x1="222" x2="315" y1="256.7708" y2="256.7708"/><rect fill="none" height="6" style="stroke:#C82930;stroke-width:1.0;" width="6" x="229" y="267.8862"/><text fill="#000000" font-family="sans-serif" font-size="14" lengthAdjust="spacing" textLength="36" x="241" y="273.6939">nome</text></g><g id="elem_Fattorino"><rect fill="#F1F1F1" height="37.2308" style="stroke:#181818;stroke-width:0.5;" width="95" x="365" y="240.15"/><text fill="#000000" font-family="sans-serif" font-size="14" lengthAdjust="spacing" textLength="81" x="372" y="255.0731">Fattorino</text><line style="stroke:#181818;stroke-width:0.5;" x1="366" x2="459" y1="261.3808" y2="261.3808"/></g><g id="elem_Fattura"><rect fill="#F1F1F1" height="46.4616" style="stroke:#181818;stroke-width:0.5;" width="80" x="240.5" y="526.77"/><text fill="#000000" font-family="sans-serif" font-size="14" lengthAdjust="spacing" textLength="63" x="249" y="541.6931">Fattura</text><line style="stroke:#181818;stroke-width:0.5;" x1="241.5" x2="319.5" y1="548.0008" y2="548.0008"/><rect fill="none" height="6" style="stroke:#C82930;stroke-width:1.0;" width="6" x="248.5" y="559.1162"/><text fill="#000000" font-family="sans-serif" font-size="14" lengthAdjust="spacing" textLength="54" x="260.5" y="564.9239">codice</text></g><g id="elem_Prodotto"><rect fill="#F1F1F1" height="98.154" style="stroke:#181818;stroke-width:0.5;" width="125" x="506" y="209.69"/><text fill="#000000" font-family="sans-serif" font-size="14" lengthAdjust="spacing" textLength="72" x="532.5" y="224.6131">Prodotto</text><line style="stroke:#181818;stroke-width:0.5;" x1="507" x2="630" y1="230.9208" y2="230.9208"/><rect fill="none" height="6" style="stroke:#C82930;stroke-width:1.0;" width="6" x="514" y="242.0362"/><text fill="#000000" font-family="sans-serif" font-size="14" lengthAdjust="spacing" textLength="54" x="526" y="247.8439">codice</text><rect fill="none" height="6" style="stroke:#C82930;stroke-width:1.0;" width="6" x="514" y="259.267"/><text fill="#000000" font-family="sans-serif" font-size="14" lengthAdjust="spacing" textLength="45" x="526" y="265.0747">stato</text><rect fill="none" height="6" style="stroke:#C82930;stroke-width:1.0;" width="6" x="514" y="276.4978"/><text fill="#000000" font-family="sans-serif" font-size="14" lengthAdjust="spacing" textLength="99" x="526" y="282.3055">descrizione</text><rect fill="none" height="6" style="stroke:#C82930;stroke-width:1.0;" width="6" x="514" y="293.7286"/><text fill="#000000" font-family="sans-serif" font-size="14" lengthAdjust="spacing" textLength="90" x="526" y="299.5363">peso in kg</text></g><g id="elem_Pescatore"><rect fill="#F1F1F1" height="46.4616" style="stroke:#181818;stroke-width:0.5;" width="95" x="462" y="384.84"/><text fill="#000000" font-family="sans-serif" font-size="14" lengthAdjust="spacing" textLength="81" x="469" y="399.7631">Pescatore</text><line style="stroke:#181818;stroke-width:0.5;" x1="463" x2="556" y1="406.0708" y2="406.0708"/><rect fill="none" height="6" style="stroke:#C82930;stroke-width:1.0;" width="6" x="470" y="417.1862"/><text fill="#000000" font-family="sans-serif" font-size="14" lengthAdjust="spacing" textLength="36" x="482" y="422.9939">nome</text></g><g id="elem_Ordine"><rect fill="#F1F1F1" height="46.4616" style="stroke:#181818;stroke-width:0.5;" width="80" x="459.5" y="15.61"/><text fill="#000000" font-family="sans-serif" font-size="14" lengthAdjust="spacing" textLength="54" x="472.5" y="30.5331">Ordine</text><line style="stroke:#181818;stroke-width:0.5;" x1="460.5" x2="538.5" y1="36.8408" y2="36.8408"/><rect fill="none" height="6" style="stroke:#C82930;stroke-width:1.0;" width="6" x="467.5" y="47.9562"/><text fill="#000000" font-family="sans-serif" font-size="14" lengthAdjust="spacing" textLength="54" x="479.5" y="53.7639">codice</text></g><!--reverse link Utente to Cliente--><g id="link_Utente_Cliente"><path codeLine="40" d="M224.19,88.1 C197.05,124.15 160.12,173.22 132.96,209.32 " fill="none" id="Utente-backto-Cliente" style="stroke:#181818;stroke-width:1.0;"/><polygon fill="none" points="218.47,84.05,236.09,72.28,229.66,92.47,218.47,84.05" style="stroke:#181818;stroke-width:1.0;"/><text fill="#000000" font-family="sans-serif" font-size="13" lengthAdjust="spacing" textLength="8" x="223.7578" y="90.7376">1</text><text fill="#000000" font-family="sans-serif" font-size="13" lengthAdjust="spacing" textLength="8" x="129.9304" y="197.6765">1</text></g><!--reverse link Utente to Impiegato--><g id="link_Utente_Impiegato"><path codeLine="41" d="M262.43,92.38 C264.1,137.98 266.44,201.77 267.67,235.24 " fill="none" id="Utente-backto-Impiegato" style="stroke:#181818;stroke-width:1.0;"/><polygon fill="none" points="255.44,92.82,261.7,72.58,269.43,92.31,255.44,92.82" style="stroke:#181818;stroke-width:1.0;"/><text fill="#000000" font-family="sans-serif" font-size="13" lengthAdjust="spacing" textLength="8" x="253.1067" y="90.7376">1</text><text fill="#000000" font-family="sans-serif" font-size="13" lengthAdjust="spacing" textLength="8" x="258.3116" y="223.6532">1</text></g><!--reverse link Utente to Fattorino--><g id="link_Utente_Fattorino"><path codeLine="42" d="M294.42,88.48 C327.8,136.33 376.98,206.84 399.89,239.69 " fill="none" id="Utente-backto-Fattorino" style="stroke:#181818;stroke-width:1.0;"/><polygon fill="none" points="288.84,92.72,283.14,72.31,300.33,84.71,288.84,92.72" style="stroke:#181818;stroke-width:1.0;"/><text fill="#000000" font-family="sans-serif" font-size="13" lengthAdjust="spacing" textLength="8" x="277.6693" y="90.7376">1</text><text fill="#000000" font-family="sans-serif" font-size="13" lengthAdjust="spacing" textLength="8" x="377.1129" y="228.0525">1</text></g><!--link Prodotto to CategoriaProdotto--><g id="link_Prodotto_CategoriaProdotto"><path codeLine="44" d="M593.7,307.99 C597.9,317.66 601.77,327.91 604.5,337.84 C617,383.37 622.5,436.2 624.87,477.62 " fill="none" id="Prodotto-to-CategoriaProdotto" style="stroke:#181818;stroke-width:1.0;"/><polygon fill="none" points="625.52,490.54,629.2116,484.3455,624.9135,478.5553,621.2219,484.7498,625.52,490.54" style="stroke:#181818;stroke-width:1.0;"/><text fill="#000000" font-family="sans-serif" font-size="13" lengthAdjust="spacing" textLength="72" x="621.5" y="412.57">categoria</text><text fill="#000000" font-family="sans-serif" font-size="13" lengthAdjust="spacing" textLength="8" x="588.5488" y="327.6793">1</text><text fill="#000000" font-family="sans-serif" font-size="13" lengthAdjust="spacing" textLength="8" x="616.9416" y="480.322">1</text></g><!--link Prodotto to Pescatore--><g id="link_Prodotto_Pescatore"><path codeLine="45" d="M533.02,308.03 C527.38,317.53 522.19,327.71 518.5,337.84 C514.81,347.98 512.59,359.44 511.28,370.08 " fill="none" id="Prodotto-to-Pescatore" style="stroke:#181818;stroke-width:1.0;"/><polygon fill="none" points="510.09,382.84,514.6268,377.2349,511.1978,370.8912,506.661,376.4963,510.09,382.84" style="stroke:#181818;stroke-width:1.0;"/><text fill="#000000" font-family="sans-serif" font-size="13" lengthAdjust="spacing" textLength="80" x="519.5" y="350.84">pescato da</text><text fill="#000000" font-family="sans-serif" font-size="13" lengthAdjust="spacing" textLength="8" x="514.8774" y="327.7247">1</text><text fill="#000000" font-family="sans-serif" font-size="13" lengthAdjust="spacing" textLength="8" x="500.9516" y="372.7098">1</text></g><!--link Cliente to Fattura--><g id="link_Cliente_Fattura"><path codeLine="47" d="M127.3,308.18 C164.46,366.59 225.99,463.32 258.62,514.61 " fill="none" id="Cliente-to-Fattura" style="stroke:#181818;stroke-width:1.0;"/><polygon fill="none" points="265.45,525.34,265.6083,518.1306,259.0143,515.2117,258.8561,522.4211,265.45,525.34" style="stroke:#181818;stroke-width:1.0;"/><text fill="#000000" font-family="sans-serif" font-size="13" lengthAdjust="spacing" textLength="56" x="206.5" y="412.57">cliente</text><text fill="#000000" font-family="sans-serif" font-size="13" lengthAdjust="spacing" textLength="8" x="122.9013" y="327.8949">1</text><text fill="#000000" font-family="sans-serif" font-size="13" lengthAdjust="spacing" textLength="8" x="245.852" y="514.6956">1</text></g><!--link Prodotto to Fattura--><g id="link_Prodotto_Fattura"><path codeLine="48" d="M505.55,291.61 C465.81,313.89 415.22,346.47 378.5,384.84 C341.73,423.27 312.6,477.9 295.95,513.4 " fill="none" id="Prodotto-to-Fattura" style="stroke:#181818;stroke-width:1.0;"/><polygon fill="none" points="290.62,525.06,296.7505,521.263,295.6035,514.1437,289.473,517.9407,290.62,525.06" style="stroke:#181818;stroke-width:1.0;"/><text fill="#000000" font-family="sans-serif" font-size="13" lengthAdjust="spacing" textLength="64" x="379.5" y="412.57">prodotti</text><text fill="#000000" font-family="sans-serif" font-size="13" lengthAdjust="spacing" textLength="40" x="458.1296" y="292.711">1...*</text></g><!--link Ordine to Fattorino--><g id="link_Ordine_Fattorino"><path codeLine="50" d="M477.81,62.41 C462.32,79.9 442.38,105.49 431.5,131.69 C418.93,161.97 414.55,199.41 413.08,225.59 " fill="none" id="Ordine-to-Fattorino" style="stroke:#181818;stroke-width:1.0;"/><polygon fill="none" points="412.57,238.41,416.8041,232.5728,413.0444,226.4194,408.8103,232.2566,412.57,238.41" style="stroke:#181818;stroke-width:1.0;"/><text fill="#000000" font-family="sans-serif" font-size="13" lengthAdjust="spacing" textLength="88" x="432.5" y="144.69">assegnato a</text><text fill="#000000" font-family="sans-serif" font-size="13" lengthAdjust="spacing" textLength="40" x="420.8231" y="82.105">0...*</text><text fill="#000000" font-family="sans-serif" font-size="13" lengthAdjust="spacing" textLength="8" x="403.1384" y="228.0356">1</text></g><!--link Ordine to Prodotto--><g id="link_Ordine_Prodotto"><path codeLine="51" d="M506.62,62.34 C517.54,96.82 538.66,163.52 553.16,209.32 " fill="none" id="Ordine-Prodotto" style="stroke:#181818;stroke-width:1.0;"/><text fill="#000000" font-family="sans-serif" font-size="13" lengthAdjust="spacing" textLength="64" x="534.5" y="144.69">prodotti</text><text fill="#000000" font-family="sans-serif" font-size="13" lengthAdjust="spacing" textLength="8" x="499.3805" y="82.0179">1</text><text fill="#000000" font-family="sans-serif" font-size="13" lengthAdjust="spacing" textLength="40" x="507.7486" y="197.6765">1...*</text></g><!--SRC=[VLBBJiGm3BpdAwmUaLh1jUAs4X8dkEm7XCQg3DsuIh92Al3l99ldFY0d9vwnnnFpspjE3dRIuSo6vAjXnSunV0dmfuU95KsOBncMxevMJg52EndQY7K6hmQtZK4ky36B7y6nqzwXTbZA7oqQBG-58wtzPACgVhVG6I6qN7Wc2LFCf7VDfGXfHLxAbgLXVv2qr9BFXvLmbisG9tB9FqblW27DxSFHo4jF2k5_qwpphVvs2IrxnT6ZKj33FCdWfS8CU36AD5uB4idUxg63n- - -xqzHyl1sihXn8mtn-8VgYIZJ1g27nU1wWyPcNIe7e1RDt3hk6Fm8CIWfHFxxskXCJ_YIiQn18siOXhl4gBWrvac8P5wMSj_0ktPKJ_BhYBCEUcIXHJ6bJJDlRl4B]--></g></svg>