<?xml version="1.0" encoding="us-ascii" standalone="no"?><svg xmlns="http://www.w3.org/2000/svg" xmlns:xlink="http://www.w3.org/1999/xlink" contentStyleType="text/css" height="821px" preserveAspectRatio="none" style="width:2081px;height:821px;background:#FFFFFF;" version="1.1" viewBox="0 0 2081 821" width="2081px" zoomAndPan="magnify"><defs/><g><!--cluster Entity--><g id="cluster_Entity"><path d="M8.5,155.0377 L63.5,155.0377 A3.75,3.75 0 0 1 66,157.5377 L73,178.2685 L1054.5,178.2685 A2.5,2.5 0 0 1 1057,180.7685 L1057,678.9977 A2.5,2.5 0 0 1 1054.5,681.4977 L8.5,681.4977 A2.5,2.5 0 0 1 6,678.9977 L6,157.5377 A2.5,2.5 0 0 1 8.5,155.0377 " fill="none" style="stroke:#000000;stroke-width:1.5;"/><line style="stroke:#000000;stroke-width:1.5;" x1="6" x2="73" y1="178.2685" y2="178.2685"/><text fill="#000000" font-family="sans-serif" font-size="14" font-weight="bold" lengthAdjust="spacing" textLength="54" x="10" y="169.9608">Entity</text></g><!--cluster Boundary--><g id="cluster_Boundary"><path d="M1083.5,6.8077 L1156.5,6.8077 A3.75,3.75 0 0 1 1159,9.3077 L1166,30.0385 L2071.5,30.0385 A2.5,2.5 0 0 1 2074,32.5385 L2074,278.3777 A2.5,2.5 0 0 1 2071.5,280.8777 L1083.5,280.8777 A2.5,2.5 0 0 1 1081,278.3777 L1081,9.3077 A2.5,2.5 0 0 1 1083.5,6.8077 " fill="none" style="stroke:#000000;stroke-width:1.5;"/><line style="stroke:#000000;stroke-width:1.5;" x1="1081" x2="1166" y1="30.0385" y2="30.0385"/><text fill="#000000" font-family="sans-serif" font-size="14" font-weight="bold" lengthAdjust="spacing" textLength="72" x="1085" y="21.7308">Boundary</text></g><!--cluster Controller--><g id="cluster_Controller"><path d="M1402.5,320.4977 L1493.5,320.4977 A3.75,3.75 0 0 1 1496,322.9977 L1503,343.7285 L1653.5,343.7285 A2.5,2.5 0 0 1 1656,346.2285 L1656,521.3777 A2.5,2.5 0 0 1 1653.5,523.8777 L1402.5,523.8777 A2.5,2.5 0 0 1 1400,521.3777 L1400,322.9977 A2.5,2.5 0 0 1 1402.5,320.4977 " fill="none" style="stroke:#000000;stroke-width:1.5;"/><line style="stroke:#000000;stroke-width:1.5;" x1="1400" x2="1503" y1="343.7285" y2="343.7285"/><text fill="#000000" font-family="sans-serif" font-size="14" font-weight="bold" lengthAdjust="spacing" textLength="90" x="1404" y="335.4208">Controller</text></g><!--cluster Utility--><g id="cluster_Utility"><path d="M1219.5,714.4977 L1283.5,714.4977 A3.75,3.75 0 0 1 1286,716.9977 L1293,737.7285 L1412.5,737.7285 A2.5,2.5 0 0 1 1415,740.2285 L1415,811.9977 A2.5,2.5 0 0 1 1412.5,814.4977 L1219.5,814.4977 A2.5,2.5 0 0 1 1217,811.9977 L1217,716.9977 A2.5,2.5 0 0 1 1219.5,714.4977 " fill="none" style="stroke:#000000;stroke-width:1.5;"/><line style="stroke:#000000;stroke-width:1.5;" x1="1217" x2="1293" y1="737.7285" y2="737.7285"/><text fill="#000000" font-family="sans-serif" font-size="14" font-weight="bold" lengthAdjust="spacing" textLength="63" x="1221" y="729.4208">Utility</text></g><!--cluster DAO--><g id="cluster_DAO"><path d="M1083.5,572.8777 L1111.5,572.8777 A3.75,3.75 0 0 1 1114,575.3777 L1121,596.1085 L1572.5,596.1085 A2.5,2.5 0 0 1 1575,598.6085 L1575,670.3777 A2.5,2.5 0 0 1 1572.5,672.8777 L1083.5,672.8777 A2.5,2.5 0 0 1 1081,670.3777 L1081,575.3777 A2.5,2.5 0 0 1 1083.5,572.8777 " fill="none" style="stroke:#000000;stroke-width:1.5;"/><line style="stroke:#000000;stroke-width:1.5;" x1="1081" x2="1121" y1="596.1085" y2="596.1085"/><text fill="#000000" font-family="sans-serif" font-size="14" font-weight="bold" lengthAdjust="spacing" textLength="27" x="1085" y="587.8008">DAO</text></g><!--class CategoriaProdotto--><g id="elem_CategoriaProdotto"><rect codeLine="2" fill="#F1F1F1" height="65.2308" id="CategoriaProdotto" rx="2.5" ry="2.5" style="stroke:#181818;stroke-width:0.5;" width="185" x="169.5" y="600.2677"/><ellipse cx="184.5" cy="616.2677" fill="#ADD1B2" rx="11" ry="11" style="stroke:#181818;stroke-width:1.0;"/><path d="M184.2344,610.3771 Q185.5469,610.3771 186.4531,610.7208 Q187.3594,611.0646 188.125,611.6896 L186.7188,613.3927 Q186.2188,612.9708 185.6094,612.7364 Q185.0156,612.5021 184.3125,612.5021 Q183.5469,612.5021 182.9219,612.9396 Q182.2969,613.3614 181.9219,614.2989 Q181.5469,615.2208 181.5469,616.7052 Q181.5469,618.8771 182.3281,619.8771 Q183.125,620.8614 184.3594,620.8614 Q185.2656,620.8614 185.8594,620.5177 Q186.4688,620.1739 186.9844,619.7833 L188.2813,621.4396 Q187.5938,622.1114 186.5938,622.5958 Q185.6094,623.0646 184.2031,623.0646 Q182.5625,623.0646 181.2969,622.3458 Q180.0313,621.6114 179.3125,620.1896 Q178.5938,618.7677 178.5938,616.7052 Q178.5938,614.6739 179.3281,613.2677 Q180.0781,611.8458 181.3594,611.1114 Q182.6406,610.3771 184.2344,610.3771 Z " fill="#000000"/><text fill="#000000" font-family="sans-serif" font-size="14" lengthAdjust="spacing" textLength="153" x="198.5" y="620.5754">CategoriaProdotto</text><line style="stroke:#181818;stroke-width:0.5;" x1="170.5" x2="353.5" y1="632.2677" y2="632.2677"/><text fill="#000000" font-family="sans-serif" font-size="14" lengthAdjust="spacing" textLength="99" x="175.5" y="649.1908">string nome</text><line style="stroke:#181818;stroke-width:0.5;" x1="170.5" x2="353.5" y1="657.4985" y2="657.4985"/></g><!--class Utente--><g id="elem_Utente"><rect codeLine="5" fill="#F1F1F1" height="82.4616" id="Utente" rx="2.5" ry="2.5" style="stroke:#181818;stroke-width:0.5;" width="147" x="792.5" y="191.0377"/><ellipse cx="834.95" cy="207.0377" fill="#A9DCDF" rx="11" ry="11" style="stroke:#181818;stroke-width:1.0;"/><path d="M836.6688,209.9283 L833.1375,209.9283 L832.4969,212.5377 L829.5125,212.5377 L833.2,200.4596 L836.6688,200.4596 L840.3719,212.5377 L837.3094,212.5377 L836.6688,209.9283 Z M833.5906,207.8502 L836.2,207.8502 L834.9031,202.5064 L833.5906,207.8502 Z " fill="#000000"/><text fill="#000000" font-family="sans-serif" font-size="14" font-style="italic" lengthAdjust="spacing" textLength="54" x="855.05" y="211.3454">Utente</text><line style="stroke:#181818;stroke-width:0.5;" x1="793.5" x2="938.5" y1="223.0377" y2="223.0377"/><text fill="#000000" font-family="sans-serif" font-size="14" lengthAdjust="spacing" textLength="135" x="798.5" y="239.9608">string username</text><text fill="#000000" font-family="sans-serif" font-size="14" lengthAdjust="spacing" textLength="135" x="798.5" y="257.1916">string password</text><line style="stroke:#181818;stroke-width:0.5;" x1="793.5" x2="938.5" y1="265.4993" y2="265.4993"/></g><!--class Cliente--><g id="elem_Cliente"><rect codeLine="9" fill="#F1F1F1" height="134.154" id="Cliente" rx="2.5" ry="2.5" style="stroke:#181818;stroke-width:0.5;" width="318" x="267" y="365.1177"/><ellipse cx="390.25" cy="381.1177" fill="#ADD1B2" rx="11" ry="11" style="stroke:#181818;stroke-width:1.0;"/><path d="M389.9844,375.2271 Q391.2969,375.2271 392.2031,375.5708 Q393.1094,375.9146 393.875,376.5396 L392.4688,378.2427 Q391.9688,377.8208 391.3594,377.5864 Q390.7656,377.3521 390.0625,377.3521 Q389.2969,377.3521 388.6719,377.7896 Q388.0469,378.2114 387.6719,379.1489 Q387.2969,380.0708 387.2969,381.5552 Q387.2969,383.7271 388.0781,384.7271 Q388.875,385.7114 390.1094,385.7114 Q391.0156,385.7114 391.6094,385.3677 Q392.2188,385.0239 392.7344,384.6333 L394.0313,386.2896 Q393.3438,386.9614 392.3438,387.4458 Q391.3594,387.9146 389.9531,387.9146 Q388.3125,387.9146 387.0469,387.1958 Q385.7813,386.4614 385.0625,385.0396 Q384.3438,383.6177 384.3438,381.5552 Q384.3438,379.5239 385.0781,378.1177 Q385.8281,376.6958 387.1094,375.9614 Q388.3906,375.2271 389.9844,375.2271 Z " fill="#000000"/><text fill="#000000" font-family="sans-serif" font-size="14" lengthAdjust="spacing" textLength="63" x="410.75" y="385.4254">Cliente</text><line style="stroke:#181818;stroke-width:0.5;" x1="268" x2="584" y1="397.1177" y2="397.1177"/><text fill="#000000" font-family="sans-serif" font-size="14" lengthAdjust="spacing" textLength="144" x="273" y="414.0408">Tipo tipoCliente</text><text fill="#000000" font-family="sans-serif" font-size="14" lengthAdjust="spacing" textLength="99" x="273" y="431.2716">string nome</text><text fill="#000000" font-family="sans-serif" font-size="14" lengthAdjust="spacing" textLength="144" x="273" y="448.5024">string indirizzo</text><text fill="#000000" font-family="sans-serif" font-size="14" lengthAdjust="spacing" textLength="108" x="273" y="465.7332">string email</text><text fill="#000000" font-family="sans-serif" font-size="14" lengthAdjust="spacing" textLength="306" x="273" y="482.964">string codice univoco fatturazione</text><line style="stroke:#181818;stroke-width:0.5;" x1="268" x2="584" y1="491.2717" y2="491.2717"/></g><!--class Impiegato--><g id="elem_Impiegato"><rect codeLine="16" fill="#F1F1F1" height="99.6924" id="Impiegato" rx="2.5" ry="2.5" style="stroke:#181818;stroke-width:0.5;" width="273" x="620.5" y="382.3477"/><ellipse cx="712.25" cy="398.3477" fill="#ADD1B2" rx="11" ry="11" style="stroke:#181818;stroke-width:1.0;"/><path d="M711.9844,392.4571 Q713.2969,392.4571 714.2031,392.8008 Q715.1094,393.1446 715.875,393.7696 L714.4688,395.4727 Q713.9688,395.0508 713.3594,394.8164 Q712.7656,394.5821 712.0625,394.5821 Q711.2969,394.5821 710.6719,395.0196 Q710.0469,395.4414 709.6719,396.3789 Q709.2969,397.3008 709.2969,398.7852 Q709.2969,400.9571 710.0781,401.9571 Q710.875,402.9414 712.1094,402.9414 Q713.0156,402.9414 713.6094,402.5977 Q714.2188,402.2539 714.7344,401.8633 L716.0313,403.5196 Q715.3438,404.1914 714.3438,404.6758 Q713.3594,405.1446 711.9531,405.1446 Q710.3125,405.1446 709.0469,404.4258 Q707.7813,403.6914 707.0625,402.2696 Q706.3438,400.8477 706.3438,398.7852 Q706.3438,396.7539 707.0781,395.3477 Q707.8281,393.9258 709.1094,393.1914 Q710.3906,392.4571 711.9844,392.4571 Z " fill="#000000"/><text fill="#000000" font-family="sans-serif" font-size="14" lengthAdjust="spacing" textLength="81" x="732.75" y="402.6554">Impiegato</text><line style="stroke:#181818;stroke-width:0.5;" x1="621.5" x2="892.5" y1="414.3477" y2="414.3477"/><text fill="#000000" font-family="sans-serif" font-size="14" lengthAdjust="spacing" textLength="99" x="626.5" y="431.2708">string nome</text><text fill="#000000" font-family="sans-serif" font-size="14" lengthAdjust="spacing" textLength="243" x="626.5" y="448.5016">bool pu&#242; registrare clienti</text><text fill="#000000" font-family="sans-serif" font-size="14" lengthAdjust="spacing" textLength="261" x="626.5" y="465.7324">bool pu&#242; registrare impiegati</text><line style="stroke:#181818;stroke-width:0.5;" x1="621.5" x2="892.5" y1="474.0401" y2="474.0401"/></g><!--class Fattorino--><g id="elem_Fattorino"><rect codeLine="21" fill="#F1F1F1" height="48" id="Fattorino" rx="2.5" ry="2.5" style="stroke:#181818;stroke-width:0.5;" width="113" x="928.5" y="408.1877"/><ellipse cx="943.5" cy="424.1877" fill="#ADD1B2" rx="11" ry="11" style="stroke:#181818;stroke-width:1.0;"/><path d="M943.2344,418.2971 Q944.5469,418.2971 945.4531,418.6408 Q946.3594,418.9846 947.125,419.6096 L945.7188,421.3127 Q945.2188,420.8908 944.6094,420.6564 Q944.0156,420.4221 943.3125,420.4221 Q942.5469,420.4221 941.9219,420.8596 Q941.2969,421.2814 940.9219,422.2189 Q940.5469,423.1408 940.5469,424.6252 Q940.5469,426.7971 941.3281,427.7971 Q942.125,428.7814 943.3594,428.7814 Q944.2656,428.7814 944.8594,428.4377 Q945.4688,428.0939 945.9844,427.7033 L947.2813,429.3596 Q946.5938,430.0314 945.5938,430.5158 Q944.6094,430.9846 943.2031,430.9846 Q941.5625,430.9846 940.2969,430.2658 Q939.0313,429.5314 938.3125,428.1096 Q937.5938,426.6877 937.5938,424.6252 Q937.5938,422.5939 938.3281,421.1877 Q939.0781,419.7658 940.3594,419.0314 Q941.6406,418.2971 943.2344,418.2971 Z " fill="#000000"/><text fill="#000000" font-family="sans-serif" font-size="14" lengthAdjust="spacing" textLength="81" x="957.5" y="428.4954">Fattorino</text><line style="stroke:#181818;stroke-width:0.5;" x1="929.5" x2="1040.5" y1="440.1877" y2="440.1877"/><line style="stroke:#181818;stroke-width:0.5;" x1="929.5" x2="1040.5" y1="448.1877" y2="448.1877"/></g><!--class Fattura--><g id="elem_Fattura"><rect codeLine="22" fill="#F1F1F1" height="65.2308" id="Fattura" rx="2.5" ry="2.5" style="stroke:#181818;stroke-width:0.5;" width="102" x="417" y="600.2677"/><ellipse cx="435.15" cy="616.2677" fill="#ADD1B2" rx="11" ry="11" style="stroke:#181818;stroke-width:1.0;"/><path d="M434.8844,610.3771 Q436.1969,610.3771 437.1031,610.7208 Q438.0094,611.0646 438.775,611.6896 L437.3688,613.3927 Q436.8688,612.9708 436.2594,612.7364 Q435.6656,612.5021 434.9625,612.5021 Q434.1969,612.5021 433.5719,612.9396 Q432.9469,613.3614 432.5719,614.2989 Q432.1969,615.2208 432.1969,616.7052 Q432.1969,618.8771 432.9781,619.8771 Q433.775,620.8614 435.0094,620.8614 Q435.9156,620.8614 436.5094,620.5177 Q437.1188,620.1739 437.6344,619.7833 L438.9313,621.4396 Q438.2438,622.1114 437.2438,622.5958 Q436.2594,623.0646 434.8531,623.0646 Q433.2125,623.0646 431.9469,622.3458 Q430.6813,621.6114 429.9625,620.1896 Q429.2438,618.7677 429.2438,616.7052 Q429.2438,614.6739 429.9781,613.2677 Q430.7281,611.8458 432.0094,611.1114 Q433.2906,610.3771 434.8844,610.3771 Z " fill="#000000"/><text fill="#000000" font-family="sans-serif" font-size="14" lengthAdjust="spacing" textLength="63" x="449.85" y="620.5754">Fattura</text><line style="stroke:#181818;stroke-width:0.5;" x1="418" x2="518" y1="632.2677" y2="632.2677"/><text fill="#000000" font-family="sans-serif" font-size="14" lengthAdjust="spacing" textLength="90" x="423" y="649.1908">int codice</text><line style="stroke:#181818;stroke-width:0.5;" x1="418" x2="518" y1="657.4985" y2="657.4985"/></g><!--class Prodotto--><g id="elem_Prodotto"><rect codeLine="25" fill="#F1F1F1" height="151.3848" id="Prodotto" rx="2.5" ry="2.5" style="stroke:#181818;stroke-width:0.5;" width="210" x="22" y="356.4977"/><ellipse cx="86.75" cy="372.4977" fill="#ADD1B2" rx="11" ry="11" style="stroke:#181818;stroke-width:1.0;"/><path d="M86.4844,366.6071 Q87.7969,366.6071 88.7031,366.9508 Q89.6094,367.2946 90.375,367.9196 L88.9688,369.6227 Q88.4688,369.2008 87.8594,368.9664 Q87.2656,368.7321 86.5625,368.7321 Q85.7969,368.7321 85.1719,369.1696 Q84.5469,369.5914 84.1719,370.5289 Q83.7969,371.4508 83.7969,372.9352 Q83.7969,375.1071 84.5781,376.1071 Q85.375,377.0914 86.6094,377.0914 Q87.5156,377.0914 88.1094,376.7477 Q88.7188,376.4039 89.2344,376.0133 L90.5313,377.6696 Q89.8438,378.3414 88.8438,378.8258 Q87.8594,379.2946 86.4531,379.2946 Q84.8125,379.2946 83.5469,378.5758 Q82.2813,377.8414 81.5625,376.4196 Q80.8438,374.9977 80.8438,372.9352 Q80.8438,370.9039 81.5781,369.4977 Q82.3281,368.0758 83.6094,367.3414 Q84.8906,366.6071 86.4844,366.6071 Z " fill="#000000"/><text fill="#000000" font-family="sans-serif" font-size="14" lengthAdjust="spacing" textLength="72" x="107.25" y="376.8054">Prodotto</text><line style="stroke:#181818;stroke-width:0.5;" x1="23" x2="231" y1="388.4977" y2="388.4977"/><text fill="#000000" font-family="sans-serif" font-size="14" lengthAdjust="spacing" textLength="90" x="28" y="405.4208">int codice</text><text fill="#000000" font-family="sans-serif" font-size="14" lengthAdjust="spacing" textLength="162" x="28" y="422.6516">string descrizione</text><text fill="#000000" font-family="sans-serif" font-size="14" lengthAdjust="spacing" textLength="162" x="28" y="439.8824">float prezzo al kg</text><text fill="#000000" font-family="sans-serif" font-size="14" lengthAdjust="spacing" textLength="144" x="28" y="457.1132">float peso in kg</text><text fill="#000000" font-family="sans-serif" font-size="14" lengthAdjust="spacing" textLength="180" x="28" y="474.344">bool &#232; stato venduto</text><text fill="#000000" font-family="sans-serif" font-size="14" lengthAdjust="spacing" textLength="198" x="28" y="491.5748">bool &#232; stato riportato</text><line style="stroke:#181818;stroke-width:0.5;" x1="23" x2="231" y1="499.8825" y2="499.8825"/></g><!--class Pescatore--><g id="elem_Pescatore"><rect codeLine="34" fill="#F1F1F1" height="65.2308" id="Pescatore" rx="2.5" ry="2.5" style="stroke:#181818;stroke-width:0.5;" width="113" x="21.5" y="600.2677"/><ellipse cx="36.5" cy="616.2677" fill="#ADD1B2" rx="11" ry="11" style="stroke:#181818;stroke-width:1.0;"/><path d="M36.2344,610.3771 Q37.5469,610.3771 38.4531,610.7208 Q39.3594,611.0646 40.125,611.6896 L38.7188,613.3927 Q38.2188,612.9708 37.6094,612.7364 Q37.0156,612.5021 36.3125,612.5021 Q35.5469,612.5021 34.9219,612.9396 Q34.2969,613.3614 33.9219,614.2989 Q33.5469,615.2208 33.5469,616.7052 Q33.5469,618.8771 34.3281,619.8771 Q35.125,620.8614 36.3594,620.8614 Q37.2656,620.8614 37.8594,620.5177 Q38.4688,620.1739 38.9844,619.7833 L40.2813,621.4396 Q39.5938,622.1114 38.5938,622.5958 Q37.6094,623.0646 36.2031,623.0646 Q34.5625,623.0646 33.2969,622.3458 Q32.0313,621.6114 31.3125,620.1896 Q30.5938,618.7677 30.5938,616.7052 Q30.5938,614.6739 31.3281,613.2677 Q32.0781,611.8458 33.3594,611.1114 Q34.6406,610.3771 36.2344,610.3771 Z " fill="#000000"/><text fill="#000000" font-family="sans-serif" font-size="14" lengthAdjust="spacing" textLength="81" x="50.5" y="620.5754">Pescatore</text><line style="stroke:#181818;stroke-width:0.5;" x1="22.5" x2="133.5" y1="632.2677" y2="632.2677"/><text fill="#000000" font-family="sans-serif" font-size="14" lengthAdjust="spacing" textLength="99" x="27.5" y="649.1908">string nome</text><line style="stroke:#181818;stroke-width:0.5;" x1="22.5" x2="133.5" y1="657.4985" y2="657.4985"/></g><!--class BoundaryBackgroundScheduler--><g id="elem_BoundaryBackgroundScheduler"><rect codeLine="50" fill="#F1F1F1" height="65.2308" id="BoundaryBackgroundScheduler" rx="2.5" ry="2.5" style="stroke:#181818;stroke-width:0.5;" width="293" x="1765.5" y="42.8077"/><ellipse cx="1780.5" cy="58.8077" fill="#ADD1B2" rx="11" ry="11" style="stroke:#181818;stroke-width:1.0;"/><path d="M1780.2344,52.9171 Q1781.5469,52.9171 1782.4531,53.2608 Q1783.3594,53.6046 1784.125,54.2296 L1782.7188,55.9327 Q1782.2188,55.5108 1781.6094,55.2764 Q1781.0156,55.0421 1780.3125,55.0421 Q1779.5469,55.0421 1778.9219,55.4796 Q1778.2969,55.9014 1777.9219,56.8389 Q1777.5469,57.7608 1777.5469,59.2452 Q1777.5469,61.4171 1778.3281,62.4171 Q1779.125,63.4014 1780.3594,63.4014 Q1781.2656,63.4014 1781.8594,63.0577 Q1782.4688,62.7139 1782.9844,62.3233 L1784.2813,63.9796 Q1783.5938,64.6514 1782.5938,65.1358 Q1781.6094,65.6046 1780.2031,65.6046 Q1778.5625,65.6046 1777.2969,64.8858 Q1776.0313,64.1514 1775.3125,62.7296 Q1774.5938,61.3077 1774.5938,59.2452 Q1774.5938,57.2139 1775.3281,55.8077 Q1776.0781,54.3858 1777.3594,53.6514 Q1778.6406,52.9171 1780.2344,52.9171 Z " fill="#000000"/><text fill="#000000" font-family="sans-serif" font-size="14" lengthAdjust="spacing" textLength="261" x="1794.5" y="63.1154">Boundary Background Scheduler</text><line style="stroke:#181818;stroke-width:0.5;" x1="1766.5" x2="2057.5" y1="74.8077" y2="74.8077"/><ellipse cx="1776.5" cy="88.9231" fill="none" rx="3" ry="3" style="stroke:#038048;stroke-width:1.0;"/><text fill="#000000" font-family="sans-serif" font-size="14" lengthAdjust="spacing" textLength="72" x="1785.5" y="91.7308">Schedula</text><line style="stroke:#181818;stroke-width:0.5;" x1="1766.5" x2="2057.5" y1="100.0385" y2="100.0385"/></g><!--class BuondaryImpiegato--><g id="elem_BuondaryImpiegato"><rect codeLine="53" fill="#F1F1F1" height="65.2308" id="BuondaryImpiegato" rx="2.5" ry="2.5" style="stroke:#181818;stroke-width:0.5;" width="194" x="1097" y="42.8077"/><ellipse cx="1112" cy="58.8077" fill="#ADD1B2" rx="11" ry="11" style="stroke:#181818;stroke-width:1.0;"/><path d="M1111.7344,52.9171 Q1113.0469,52.9171 1113.9531,53.2608 Q1114.8594,53.6046 1115.625,54.2296 L1114.2188,55.9327 Q1113.7188,55.5108 1113.1094,55.2764 Q1112.5156,55.0421 1111.8125,55.0421 Q1111.0469,55.0421 1110.4219,55.4796 Q1109.7969,55.9014 1109.4219,56.8389 Q1109.0469,57.7608 1109.0469,59.2452 Q1109.0469,61.4171 1109.8281,62.4171 Q1110.625,63.4014 1111.8594,63.4014 Q1112.7656,63.4014 1113.3594,63.0577 Q1113.9688,62.7139 1114.4844,62.3233 L1115.7813,63.9796 Q1115.0938,64.6514 1114.0938,65.1358 Q1113.1094,65.6046 1111.7031,65.6046 Q1110.0625,65.6046 1108.7969,64.8858 Q1107.5313,64.1514 1106.8125,62.7296 Q1106.0938,61.3077 1106.0938,59.2452 Q1106.0938,57.2139 1106.8281,55.8077 Q1107.5781,54.3858 1108.8594,53.6514 Q1110.1406,52.9171 1111.7344,52.9171 Z " fill="#000000"/><text fill="#000000" font-family="sans-serif" font-size="14" lengthAdjust="spacing" textLength="162" x="1126" y="63.1154">Boundary Impiegato</text><line style="stroke:#181818;stroke-width:0.5;" x1="1098" x2="1290" y1="74.8077" y2="74.8077"/><ellipse cx="1108" cy="88.9231" fill="none" rx="3" ry="3" style="stroke:#038048;stroke-width:1.0;"/><text fill="#000000" font-family="sans-serif" font-size="14" lengthAdjust="spacing" textLength="36" x="1117" y="91.7308">Main</text><line style="stroke:#181818;stroke-width:0.5;" x1="1098" x2="1290" y1="100.0385" y2="100.0385"/></g><!--class BoundaryGestore--><g id="elem_BoundaryGestore"><rect codeLine="56" fill="#F1F1F1" height="65.2308" id="BoundaryGestore" rx="2.5" ry="2.5" style="stroke:#181818;stroke-width:0.5;" width="176" x="1326" y="42.8077"/><ellipse cx="1341" cy="58.8077" fill="#ADD1B2" rx="11" ry="11" style="stroke:#181818;stroke-width:1.0;"/><path d="M1340.7344,52.9171 Q1342.0469,52.9171 1342.9531,53.2608 Q1343.8594,53.6046 1344.625,54.2296 L1343.2188,55.9327 Q1342.7188,55.5108 1342.1094,55.2764 Q1341.5156,55.0421 1340.8125,55.0421 Q1340.0469,55.0421 1339.4219,55.4796 Q1338.7969,55.9014 1338.4219,56.8389 Q1338.0469,57.7608 1338.0469,59.2452 Q1338.0469,61.4171 1338.8281,62.4171 Q1339.625,63.4014 1340.8594,63.4014 Q1341.7656,63.4014 1342.3594,63.0577 Q1342.9688,62.7139 1343.4844,62.3233 L1344.7813,63.9796 Q1344.0938,64.6514 1343.0938,65.1358 Q1342.1094,65.6046 1340.7031,65.6046 Q1339.0625,65.6046 1337.7969,64.8858 Q1336.5313,64.1514 1335.8125,62.7296 Q1335.0938,61.3077 1335.0938,59.2452 Q1335.0938,57.2139 1335.8281,55.8077 Q1336.5781,54.3858 1337.8594,53.6514 Q1339.1406,52.9171 1340.7344,52.9171 Z " fill="#000000"/><text fill="#000000" font-family="sans-serif" font-size="14" lengthAdjust="spacing" textLength="144" x="1355" y="63.1154">Boundary Gestore</text><line style="stroke:#181818;stroke-width:0.5;" x1="1327" x2="1501" y1="74.8077" y2="74.8077"/><ellipse cx="1337" cy="88.9231" fill="none" rx="3" ry="3" style="stroke:#038048;stroke-width:1.0;"/><text fill="#000000" font-family="sans-serif" font-size="14" lengthAdjust="spacing" textLength="36" x="1346" y="91.7308">Main</text><line style="stroke:#181818;stroke-width:0.5;" x1="1327" x2="1501" y1="100.0385" y2="100.0385"/></g><!--class BoundaryFattorino--><g id="elem_BoundaryFattorino"><rect codeLine="59" fill="#F1F1F1" height="65.2308" id="BoundaryFattorino" rx="2.5" ry="2.5" style="stroke:#181818;stroke-width:0.5;" width="194" x="1537" y="42.8077"/><ellipse cx="1552" cy="58.8077" fill="#ADD1B2" rx="11" ry="11" style="stroke:#181818;stroke-width:1.0;"/><path d="M1551.7344,52.9171 Q1553.0469,52.9171 1553.9531,53.2608 Q1554.8594,53.6046 1555.625,54.2296 L1554.2188,55.9327 Q1553.7188,55.5108 1553.1094,55.2764 Q1552.5156,55.0421 1551.8125,55.0421 Q1551.0469,55.0421 1550.4219,55.4796 Q1549.7969,55.9014 1549.4219,56.8389 Q1549.0469,57.7608 1549.0469,59.2452 Q1549.0469,61.4171 1549.8281,62.4171 Q1550.625,63.4014 1551.8594,63.4014 Q1552.7656,63.4014 1553.3594,63.0577 Q1553.9688,62.7139 1554.4844,62.3233 L1555.7813,63.9796 Q1555.0938,64.6514 1554.0938,65.1358 Q1553.1094,65.6046 1551.7031,65.6046 Q1550.0625,65.6046 1548.7969,64.8858 Q1547.5313,64.1514 1546.8125,62.7296 Q1546.0938,61.3077 1546.0938,59.2452 Q1546.0938,57.2139 1546.8281,55.8077 Q1547.5781,54.3858 1548.8594,53.6514 Q1550.1406,52.9171 1551.7344,52.9171 Z " fill="#000000"/><text fill="#000000" font-family="sans-serif" font-size="14" lengthAdjust="spacing" textLength="162" x="1566" y="63.1154">Boundary Fattorino</text><line style="stroke:#181818;stroke-width:0.5;" x1="1538" x2="1730" y1="74.8077" y2="74.8077"/><ellipse cx="1548" cy="88.9231" fill="none" rx="3" ry="3" style="stroke:#038048;stroke-width:1.0;"/><text fill="#000000" font-family="sans-serif" font-size="14" lengthAdjust="spacing" textLength="36" x="1557" y="91.7308">Main</text><line style="stroke:#181818;stroke-width:0.5;" x1="1538" x2="1730" y1="100.0385" y2="100.0385"/></g><!--class LoginBoundary--><g id="elem_LoginBoundary"><rect codeLine="62" fill="#F1F1F1" height="65.2308" id="LoginBoundary" rx="2.5" ry="2.5" style="stroke:#181818;stroke-width:0.5;" width="158" x="1320" y="199.6477"/><ellipse cx="1335" cy="215.6477" fill="#ADD1B2" rx="11" ry="11" style="stroke:#181818;stroke-width:1.0;"/><path d="M1334.7344,209.7571 Q1336.0469,209.7571 1336.9531,210.1008 Q1337.8594,210.4446 1338.625,211.0696 L1337.2188,212.7727 Q1336.7188,212.3508 1336.1094,212.1164 Q1335.5156,211.8821 1334.8125,211.8821 Q1334.0469,211.8821 1333.4219,212.3196 Q1332.7969,212.7414 1332.4219,213.6789 Q1332.0469,214.6008 1332.0469,216.0852 Q1332.0469,218.2571 1332.8281,219.2571 Q1333.625,220.2414 1334.8594,220.2414 Q1335.7656,220.2414 1336.3594,219.8977 Q1336.9688,219.5539 1337.4844,219.1633 L1338.7813,220.8196 Q1338.0938,221.4914 1337.0938,221.9758 Q1336.1094,222.4446 1334.7031,222.4446 Q1333.0625,222.4446 1331.7969,221.7258 Q1330.5313,220.9914 1329.8125,219.5696 Q1329.0938,218.1477 1329.0938,216.0852 Q1329.0938,214.0539 1329.8281,212.6477 Q1330.5781,211.2258 1331.8594,210.4914 Q1333.1406,209.7571 1334.7344,209.7571 Z " fill="#000000"/><text fill="#000000" font-family="sans-serif" font-size="14" lengthAdjust="spacing" textLength="126" x="1349" y="219.9554">Login Boundary</text><line style="stroke:#181818;stroke-width:0.5;" x1="1321" x2="1477" y1="231.6477" y2="231.6477"/><ellipse cx="1331" cy="245.7631" fill="none" rx="3" ry="3" style="stroke:#038048;stroke-width:1.0;"/><text fill="#000000" font-family="sans-serif" font-size="14" lengthAdjust="spacing" textLength="36" x="1340" y="248.5708">Main</text><line style="stroke:#181818;stroke-width:0.5;" x1="1321" x2="1477" y1="256.8785" y2="256.8785"/></g><!--class MainController--><g id="elem_MainController"><rect codeLine="72" fill="#F1F1F1" height="151.3848" id="MainController" rx="2.5" ry="2.5" style="stroke:#181818;stroke-width:0.5;" width="224" x="1416" y="356.4977"/><ellipse cx="1460.75" cy="372.4977" fill="#ADD1B2" rx="11" ry="11" style="stroke:#181818;stroke-width:1.0;"/><path d="M1460.4844,366.6071 Q1461.7969,366.6071 1462.7031,366.9508 Q1463.6094,367.2946 1464.375,367.9196 L1462.9688,369.6227 Q1462.4688,369.2008 1461.8594,368.9664 Q1461.2656,368.7321 1460.5625,368.7321 Q1459.7969,368.7321 1459.1719,369.1696 Q1458.5469,369.5914 1458.1719,370.5289 Q1457.7969,371.4508 1457.7969,372.9352 Q1457.7969,375.1071 1458.5781,376.1071 Q1459.375,377.0914 1460.6094,377.0914 Q1461.5156,377.0914 1462.1094,376.7477 Q1462.7188,376.4039 1463.2344,376.0133 L1464.5313,377.6696 Q1463.8438,378.3414 1462.8438,378.8258 Q1461.8594,379.2946 1460.4531,379.2946 Q1458.8125,379.2946 1457.5469,378.5758 Q1456.2813,377.8414 1455.5625,376.4196 Q1454.8438,374.9977 1454.8438,372.9352 Q1454.8438,370.9039 1455.5781,369.4977 Q1456.3281,368.0758 1457.6094,367.3414 Q1458.8906,366.6071 1460.4844,366.6071 Z " fill="#000000"/><text fill="#000000" font-family="sans-serif" font-size="14" lengthAdjust="spacing" textLength="126" x="1481.25" y="376.8054">MainController</text><line style="stroke:#181818;stroke-width:0.5;" x1="1417" x2="1639" y1="388.4977" y2="388.4977"/><ellipse cx="1427" cy="402.6131" fill="none" rx="3" ry="3" style="stroke:#038048;stroke-width:1.0;"/><text fill="#000000" font-family="sans-serif" font-size="14" lengthAdjust="spacing" textLength="180" x="1436" y="405.4208">prodotti disponibili</text><ellipse cx="1427" cy="419.8439" fill="none" rx="3" ry="3" style="stroke:#038048;stroke-width:1.0;"/><text fill="#000000" font-family="sans-serif" font-size="14" lengthAdjust="spacing" textLength="126" x="1436" y="422.6516">effettua login</text><ellipse cx="1427" cy="437.0747" fill="none" rx="3" ry="3" style="stroke:#038048;stroke-width:1.0;"/><text fill="#000000" font-family="sans-serif" font-size="14" lengthAdjust="spacing" textLength="153" x="1436" y="439.8824">registra prodotto</text><ellipse cx="1427" cy="454.3055" fill="none" rx="3" ry="3" style="stroke:#038048;stroke-width:1.0;"/><text fill="#000000" font-family="sans-serif" font-size="14" lengthAdjust="spacing" textLength="144" x="1436" y="457.1132">registra cliente</text><ellipse cx="1427" cy="471.5363" fill="none" rx="3" ry="3" style="stroke:#038048;stroke-width:1.0;"/><text fill="#000000" font-family="sans-serif" font-size="14" lengthAdjust="spacing" textLength="117" x="1436" y="474.344">genera report</text><ellipse cx="1427" cy="488.7671" fill="none" rx="3" ry="3" style="stroke:#038048;stroke-width:1.0;"/><text fill="#000000" font-family="sans-serif" font-size="14" lengthAdjust="spacing" textLength="198" x="1436" y="491.5748">genera e invia fatture</text><line style="stroke:#181818;stroke-width:0.5;" x1="1417" x2="1639" y1="499.8825" y2="499.8825"/></g><!--class FattureManager--><g id="elem_FattureManager"><rect codeLine="83" fill="#F1F1F1" height="48" id="FattureManager" rx="2.5" ry="2.5" style="stroke:#181818;stroke-width:0.5;" width="167" x="1232.5" y="750.4977"/><ellipse cx="1247.5" cy="766.4977" fill="#B4A7E5" rx="11" ry="11" style="stroke:#181818;stroke-width:1.0;"/><path d="M1251.6563,760.9196 L1251.6563,763.0133 L1249.1563,763.0133 L1249.1563,770.9039 L1251.6563,770.9039 L1251.6563,772.9977 L1243.8125,772.9977 L1243.8125,770.9039 L1246.2969,770.9039 L1246.2969,763.0133 L1243.8125,763.0133 L1243.8125,760.9196 L1251.6563,760.9196 Z " fill="#000000"/><text fill="#000000" font-family="sans-serif" font-size="14" font-style="italic" lengthAdjust="spacing" textLength="135" x="1261.5" y="770.8054">Fatture Manager</text><line style="stroke:#181818;stroke-width:0.5;" x1="1233.5" x2="1398.5" y1="782.4977" y2="782.4977"/><line style="stroke:#181818;stroke-width:0.5;" x1="1233.5" x2="1398.5" y1="790.4977" y2="790.4977"/></g><!--class ClienteDAO--><g id="elem_ClienteDAO"><rect codeLine="88" fill="#F1F1F1" height="48" id="ClienteDAO" rx="2.5" ry="2.5" style="stroke:#181818;stroke-width:0.5;" width="131" x="1271.5" y="608.8777"/><ellipse cx="1286.5" cy="624.8777" fill="#B4A7E5" rx="11" ry="11" style="stroke:#181818;stroke-width:1.0;"/><path d="M1290.6563,619.2996 L1290.6563,621.3933 L1288.1563,621.3933 L1288.1563,629.2839 L1290.6563,629.2839 L1290.6563,631.3777 L1282.8125,631.3777 L1282.8125,629.2839 L1285.2969,629.2839 L1285.2969,621.3933 L1282.8125,621.3933 L1282.8125,619.2996 L1290.6563,619.2996 Z " fill="#000000"/><text fill="#000000" font-family="sans-serif" font-size="14" font-style="italic" lengthAdjust="spacing" textLength="99" x="1300.5" y="629.1854">Cliente DAO</text><line style="stroke:#181818;stroke-width:0.5;" x1="1272.5" x2="1401.5" y1="640.8777" y2="640.8777"/><line style="stroke:#181818;stroke-width:0.5;" x1="1272.5" x2="1401.5" y1="648.8777" y2="648.8777"/></g><!--class ProdottoDAO--><g id="elem_ProdottoDAO"><rect codeLine="90" fill="#F1F1F1" height="48" id="ProdottoDAO" rx="2.5" ry="2.5" style="stroke:#181818;stroke-width:0.5;" width="140" x="1097" y="608.8777"/><ellipse cx="1112" cy="624.8777" fill="#B4A7E5" rx="11" ry="11" style="stroke:#181818;stroke-width:1.0;"/><path d="M1116.1563,619.2996 L1116.1563,621.3933 L1113.6563,621.3933 L1113.6563,629.2839 L1116.1563,629.2839 L1116.1563,631.3777 L1108.3125,631.3777 L1108.3125,629.2839 L1110.7969,629.2839 L1110.7969,621.3933 L1108.3125,621.3933 L1108.3125,619.2996 L1116.1563,619.2996 Z " fill="#000000"/><text fill="#000000" font-family="sans-serif" font-size="14" font-style="italic" lengthAdjust="spacing" textLength="108" x="1126" y="629.1854">Prodotto DAO</text><line style="stroke:#181818;stroke-width:0.5;" x1="1098" x2="1236" y1="640.8777" y2="640.8777"/><line style="stroke:#181818;stroke-width:0.5;" x1="1098" x2="1236" y1="648.8777" y2="648.8777"/></g><!--class UtenteDAO--><g id="elem_UtenteDAO"><rect codeLine="92" fill="#F1F1F1" height="48" id="UtenteDAO" rx="2.5" ry="2.5" style="stroke:#181818;stroke-width:0.5;" width="122" x="1437" y="608.8777"/><ellipse cx="1452" cy="624.8777" fill="#B4A7E5" rx="11" ry="11" style="stroke:#181818;stroke-width:1.0;"/><path d="M1456.1563,619.2996 L1456.1563,621.3933 L1453.6563,621.3933 L1453.6563,629.2839 L1456.1563,629.2839 L1456.1563,631.3777 L1448.3125,631.3777 L1448.3125,629.2839 L1450.7969,629.2839 L1450.7969,621.3933 L1448.3125,621.3933 L1448.3125,619.2996 L1456.1563,619.2996 Z " fill="#000000"/><text fill="#000000" font-family="sans-serif" font-size="14" font-style="italic" lengthAdjust="spacing" textLength="90" x="1466" y="629.1854">Utente DAO</text><line style="stroke:#181818;stroke-width:0.5;" x1="1438" x2="1558" y1="640.8777" y2="640.8777"/><line style="stroke:#181818;stroke-width:0.5;" x1="1438" x2="1558" y1="648.8777" y2="648.8777"/></g><!--reverse link Utente to Cliente--><g id="link_Utente_Cliente"><path codeLine="38" d="M786.36,250.6777 C732.99,263.9177 661.96,284.6177 603,312.4977 C572.56,326.8877 541.4,346.0477 513.87,364.7677 " fill="none" id="Utente-backto-Cliente" style="stroke:#181818;stroke-width:1.0;"/><polygon fill="#181818" points="791.12,249.2577,781.4281,247.5062,786.2626,250.4435,783.3254,255.278,791.12,249.2577" style="stroke:#181818;stroke-width:1.0;"/></g><!--reverse link Utente to Impiegato--><g id="link_Utente_Impiegato"><path codeLine="39" d="M840.79,279.0377 C823.82,309.8477 801.47,350.4477 784.12,381.9577 " fill="none" id="Utente-backto-Impiegato" style="stroke:#181818;stroke-width:1.0;"/><polygon fill="#181818" points="843.68,274.7977,835.8356,280.753,841.2688,279.1779,842.8439,284.611,843.68,274.7977" style="stroke:#181818;stroke-width:1.0;"/></g><!--reverse link Utente to Fattorino--><g id="link_Utente_Fattorino"><path codeLine="40" d="M893.27,278.6177 C917.46,318.8677 951.85,376.0477 970.91,407.7477 " fill="none" id="Utente-backto-Fattorino" style="stroke:#181818;stroke-width:1.0;"/><polygon fill="#181818" points="890.37,274.7977,891.6089,284.5683,892.9593,279.075,898.4526,280.4255,890.37,274.7977" style="stroke:#181818;stroke-width:1.0;"/></g><!--link Prodotto to CategoriaProdotto--><g id="link_Prodotto_CategoriaProdotto"><path codeLine="42" d="M166.31,508.2477 C175.76,524.6577 186.26,541.6577 197,556.8777 C204.74,567.8577 213.79,579.0977 222.64,589.4277 " fill="none" id="Prodotto-to-CategoriaProdotto" style="stroke:#181818;stroke-width:1.0;"/><polygon fill="none" points="231.72,598.8077,230.7815,591.6579,223.8207,589.7743,224.7592,596.9241,231.72,598.8077" style="stroke:#181818;stroke-width:1.0;"/><text fill="#000000" font-family="sans-serif" font-size="13" lengthAdjust="spacing" textLength="72" x="198" y="552.8777">categoria</text></g><!--link Prodotto to Fattura--><g id="link_Prodotto_Fattura"><path codeLine="43" d="M211.44,508.1377 C223.56,516.8877 236.26,525.0977 249,531.8777 C259.67,537.5677 263.47,536.2577 275,539.8777 C298.6,547.2977 304,550.8777 328,556.8777 C347.28,561.7077 353.65,557.2377 372,564.8777 C388.43,571.7277 404.86,581.7277 419.36,591.9277 " fill="none" id="Prodotto-to-Fattura" style="stroke:#181818;stroke-width:1.0;"/><polygon fill="none" points="429.54,600.0977,427.049,593.3305,419.8443,593.0271,422.3353,599.7943,429.54,600.0977" style="stroke:#181818;stroke-width:1.0;"/><text fill="#000000" font-family="sans-serif" font-size="13" lengthAdjust="spacing" textLength="112" x="329" y="552.8777">codice fattura</text></g><!--link Prodotto to Pescatore--><g id="link_Prodotto_Pescatore"><path codeLine="44" d="M85.27,508.2777 C81.05,518.6377 77.43,529.3377 75,539.8777 C71.57,554.7477 71.12,571.3277 71.89,586.2677 " fill="none" id="Prodotto-to-Pescatore" style="stroke:#181818;stroke-width:1.0;"/><polygon fill="none" points="72.96,598.9877,76.4796,592.6938,72.0235,587.0243,68.504,593.3182,72.96,598.9877" style="stroke:#181818;stroke-width:1.0;"/><text fill="#000000" font-family="sans-serif" font-size="13" lengthAdjust="spacing" textLength="80" x="76" y="552.8777">pescato da</text></g><!--link Cliente to Fattura--><g id="link_Cliente_Fattura"><path codeLine="46" d="M440.04,499.6277 C446.06,528.0877 452.93,560.6077 458.36,586.2877 " fill="none" id="Cliente-to-Fattura" style="stroke:#181818;stroke-width:1.0;"/><polygon fill="none" points="461.21,598.7777,463.8851,592.0811,458.7326,587.0362,456.0575,593.7328,461.21,598.7777" style="stroke:#181818;stroke-width:1.0;"/><text fill="#000000" font-family="sans-serif" font-size="13" lengthAdjust="spacing" textLength="72" x="453" y="552.8777">categoria</text></g><!--reverse link BuondaryImpiegato to LoginBoundary--><g id="link_BuondaryImpiegato_LoginBoundary"><path codeLine="66" d="M1247.62,116.9177 C1281.61,142.5977 1324.98,175.3577 1356.58,199.2277 " fill="none" id="BuondaryImpiegato-backto-LoginBoundary" style="stroke:#181818;stroke-width:1.0;"/><polygon fill="#181818" points="1237.48,108.5077,1239.8591,115.3151,1247.0578,115.7372,1244.6787,108.9299,1237.48,108.5077" style="stroke:#181818;stroke-width:1.0;"/></g><!--reverse link BoundaryGestore to LoginBoundary--><g id="link_BoundaryGestore_LoginBoundary"><path codeLine="67" d="M1409.55,122.3777 C1407.15,147.1177 1404.26,177.0177 1402.1,199.2277 " fill="none" id="BoundaryGestore-backto-LoginBoundary" style="stroke:#181818;stroke-width:1.0;"/><polygon fill="#181818" points="1410.89,109.5077,1406.3287,115.0929,1409.7299,121.4515,1414.2912,115.8663,1410.89,109.5077" style="stroke:#181818;stroke-width:1.0;"/></g><!--reverse link BoundaryFattorino to LoginBoundary--><g id="link_BoundaryFattorino_LoginBoundary"><path codeLine="68" d="M1573.8,116.0877 C1534.65,141.8877 1484.24,175.0977 1447.63,199.2277 " fill="none" id="BoundaryFattorino-backto-LoginBoundary" style="stroke:#181818;stroke-width:1.0;"/><polygon fill="#181818" points="1584.31,108.5077,1577.099,108.4703,1574.2911,115.1123,1581.5021,115.1496,1584.31,108.5077" style="stroke:#181818;stroke-width:1.0;"/></g><!--link LoginBoundary to MainController--><g id="link_LoginBoundary_MainController"><path codeLine="96" d="M1419.73,265.0677 C1433.81,286.6777 1453.17,316.3777 1471.62,344.6877 " fill="none" id="LoginBoundary-to-MainController" style="stroke:#181818;stroke-width:1.0;"/><polygon fill="none" points="1479.18,355.2877,1479.2569,348.077,1472.6304,345.2327,1472.5535,352.4434,1479.18,355.2877" style="stroke:#181818;stroke-width:1.0;"/></g><!--link BoundaryBackgroundScheduler to MainController--><g id="link_BoundaryBackgroundScheduler_MainController"><path codeLine="97" d="M1877.25,108.5277 C1819.56,161.8277 1702.21,270.2477 1619.5,346.6577 " fill="none" id="BoundaryBackgroundScheduler-to-MainController" style="stroke:#181818;stroke-width:1.0;"/><polygon fill="none" points="1610.34,355.0477,1617.4624,353.9203,1619.1612,346.9122,1612.0387,348.0395,1610.34,355.0477" style="stroke:#181818;stroke-width:1.0;"/></g><!--link BoundaryGestore to MainController--><g id="link_BoundaryGestore_MainController"><path codeLine="98" d="M1462.14,108.2477 C1474.84,119.0377 1487.18,132.1777 1495,147.0377 C1526.6,207.0377 1533.88,283.8777 1533.79,342.5277 " fill="none" id="BoundaryGestore-to-MainController" style="stroke:#181818;stroke-width:1.0;"/><polygon fill="none" points="1533.63,355.2577,1537.6957,349.302,1533.7619,343.2584,1529.6962,349.2141,1533.63,355.2577" style="stroke:#181818;stroke-width:1.0;"/></g><!--link BoundaryFattorino to MainController--><g id="link_BoundaryFattorino_MainController"><path codeLine="99" d="M1624.41,108.5277 C1608.76,160.9077 1577.2,266.5077 1554.45,342.6677 " fill="none" id="BoundaryFattorino-to-MainController" style="stroke:#181818;stroke-width:1.0;"/><polygon fill="none" points="1550.45,355.0477,1555.9976,350.4408,1553.8788,343.548,1548.3312,348.1549,1550.45,355.0477" style="stroke:#181818;stroke-width:1.0;"/></g><!--link MainController to FattureManager--><g id="link_MainController_FattureManager"><path codeLine="101" d="M1569.62,508.3377 C1593.92,563.3277 1613.04,637.1677 1575,689.4977 C1538.34,739.9177 1470.72,760.6877 1413.77,768.9677 " fill="none" id="MainController-to-FattureManager" style="stroke:#181818;stroke-width:1.0;"/><polygon fill="none" points="1400.92,770.7677,1407.3877,773.9565,1412.8188,769.2128,1406.3511,766.024,1400.92,770.7677" style="stroke:#181818;stroke-width:1.0;"/></g><!--link MainController to ClienteDAO--><g id="link_MainController_ClienteDAO"><path codeLine="103" d="M1455.79,508.3077 C1425.84,539.4577 1392.64,574.0077 1368.97,598.6277 " fill="none" id="MainController-to-ClienteDAO" style="stroke:#181818;stroke-width:1.0;"/><polygon fill="none" points="1360.44,607.5377,1367.4823,605.9864,1368.7589,598.8892,1361.7166,600.4405,1360.44,607.5377" style="stroke:#181818;stroke-width:1.0;"/></g><!--link MainController to ProdottoDAO--><g id="link_MainController_ProdottoDAO"><path codeLine="104" d="M1415.56,480.8177 C1364.9,503.8877 1305.11,533.3977 1254,564.8777 C1237.19,575.2377 1219.73,588.1877 1204.91,599.9277 " fill="none" id="MainController-to-ProdottoDAO" style="stroke:#181818;stroke-width:1.0;"/><polygon fill="none" points="1195.15,608.6177,1202.3319,607.9696,1204.4959,601.0909,1197.314,601.739,1195.15,608.6177" style="stroke:#181818;stroke-width:1.0;"/></g><!--link MainController to UtenteDAO--><g id="link_MainController_UtenteDAO"><path codeLine="105" d="M1516.66,508.3077 C1512.19,537.9277 1507.25,570.6177 1503.58,594.9277 " fill="none" id="MainController-to-UtenteDAO" style="stroke:#181818;stroke-width:1.0;"/><polygon fill="none" points="1501.52,607.5377,1506.3725,602.2035,1503.3149,595.6727,1498.4625,601.0069,1501.52,607.5377" style="stroke:#181818;stroke-width:1.0;"/></g><!--link Cliente to ClienteDAO--><g id="link_Cliente_ClienteDAO"><path codeLine="107" d="M525.83,499.5977 C550.14,512.6777 576.72,524.5977 603,531.8777 C629.57,539.2477 823.46,538.5877 851,539.8777 C940.63,544.1077 1170.36,532.3877 1254,564.8777 C1277.99,574.2077 1300.4,593.1577 1315.87,608.5277 " fill="none" id="Cliente-ClienteDAO" style="stroke:#181818;stroke-width:1.0;"/></g><!--link Prodotto to ProdottoDAO--><g id="link_Prodotto_ProdottoDAO"><path codeLine="108" d="M205.07,508.1877 C218.82,517.7777 233.67,526.2177 249,531.8777 C278.71,542.8677 502.35,538.5777 534,539.8777 C673.2,545.6177 707.83,550.4477 847,556.8777 C870.33,557.9577 1034.64,558.1477 1057,564.8777 C1086.97,573.9077 1117.06,593.0977 1138.18,608.6377 " fill="none" id="Prodotto-ProdottoDAO" style="stroke:#181818;stroke-width:1.0;"/></g><!--link Utente to UtenteDAO--><g id="link_Utente_UtenteDAO"><path codeLine="109" d="M939.7,259.1277 C976.43,273.1077 1021.01,291.7477 1059,312.4977 C1230.82,406.3277 1265.33,444.8677 1420,564.8777 C1437.91,578.7777 1457.25,595.3777 1472.19,608.5777 " fill="none" id="Utente-UtenteDAO" style="stroke:#181818;stroke-width:1.0;"/></g><!--link Fattura to FattureManager--><g id="link_Fattura_FattureManager"><path codeLine="110" d="M519.45,642.3577 C661.11,665.6777 1057.83,730.9877 1232.1,759.6877 " fill="none" id="Fattura-FattureManager" style="stroke:#181818;stroke-width:1.0;"/></g><!--SRC=[bLLBZjim3Dtd54AM3NA1O3QTwGS3TD02xHn0iHcN64SqP3b5KynzkkuLvcAbRFqiULpKYoGc7v_89vBfPFKa6n3lbK7pK_pQ27wgLlQzk9C66j8elsYgoHXoNllqHgDgXA8pZBRdyLCUsIuh8nuDA0CbVkX1A-bY4dl7v_qWNITSBeSMCwPls94m_E5ShwQKs53LgF5wfTm1PubjRgoenWh4eF125OcJD6RGyegaeCZl_jmXD79L6_iSYLhH3Iz_X8O6hKeQcC9MWEiWT2TWSVO7JeolH_7PkPdpJH92PLnH1SV2rMRefA8Q-efb34BOvzIIDABJmEeAsOgd9dT1JyoPEiOwNtuphHNk0geU3BtYrNpJslvogQUvSphiqB3Qb-ENwyUR_LwaRPEOmqNcZg3on1G4s-zfOK8EelAs4kvlvk1RpBLMYOob7Qo0zhUevPI17ucCCHpB9NTkg6zfKBNKyx7U1kijmnfjtyJNwZlKGmjwAsGVuY8W-1EjTpvA5cqLpmYwJiG3ZUQbiTc91ubgXUeZz5QIMOREzZyquK9dHCam_PFg4pNSq3vof1bDcTm5nVXLIl26ksmMF-6o2jTHCVqIbpJ47IcZgOttE5LaSonSK_hTr9OeQkmxKdZ45XCtd4x0BIX5QuzC77w3UG9QybNP2j-91XImGuET-jBEwr1TKBh1yIEU5FXeEB_mFyQh3FH9ygHjfqa1BbKnRcfpPtCc5pEZU_VsSqdb1v2T8urxZzZdF2BCjW_nXfKOju9ynFIQuZdDUTVPXJ2_oStQ8A_0VS-jG6B3BO0sMKF5LUN5NeH48PUyYMPBxY3GPXCtP4gPBDWPbnEQhP72xrMt_sFUVm40]--></g></svg>