<?xml version="1.0" encoding="us-ascii" standalone="no"?><svg xmlns="http://www.w3.org/2000/svg" xmlns:xlink="http://www.w3.org/1999/xlink" contentStyleType="text/css" height="1168px" preserveAspectRatio="none" style="width:3771px;height:1168px;background:#FFFFFF;" version="1.1" viewBox="0 0 3771 1168" width="3771px" zoomAndPan="magnify"><defs/><g><!--cluster Entity--><g id="cluster_Entity"><path d="M925.5,534.8877 L980.5,534.8877 A3.75,3.75 0 0 1 983,537.3877 L990,558.1185 L1971.5,558.1185 A2.5,2.5 0 0 1 1974,560.6185 L1974,1159.3077 A2.5,2.5 0 0 1 1971.5,1161.8077 L925.5,1161.8077 A2.5,2.5 0 0 1 923,1159.3077 L923,537.3877 A2.5,2.5 0 0 1 925.5,534.8877 " fill="none" style="stroke:#000000;stroke-width:1.5;"/><line style="stroke:#000000;stroke-width:1.5;" x1="923" x2="990" y1="558.1185" y2="558.1185"/><text fill="#000000" font-family="sans-serif" font-size="14" font-weight="bold" lengthAdjust="spacing" textLength="54" x="927" y="549.8108">Entity</text></g><!--cluster Boundary--><g id="cluster_Boundary"><path d="M8.5,6.8077 L81.5,6.8077 A3.75,3.75 0 0 1 84,9.3077 L91,30.0385 L996.5,30.0385 A2.5,2.5 0 0 1 999,32.5385 L999,247.7677 A2.5,2.5 0 0 1 996.5,250.2677 L8.5,250.2677 A2.5,2.5 0 0 1 6,247.7677 L6,9.3077 A2.5,2.5 0 0 1 8.5,6.8077 " fill="none" style="stroke:#000000;stroke-width:1.5;"/><line style="stroke:#000000;stroke-width:1.5;" x1="6" x2="91" y1="30.0385" y2="30.0385"/><text fill="#000000" font-family="sans-serif" font-size="14" font-weight="bold" lengthAdjust="spacing" textLength="72" x="10" y="21.7308">Boundary</text></g><!--cluster Controller--><g id="cluster_Controller"><path d="M516.5,283.2677 L607.5,283.2677 A3.75,3.75 0 0 1 610,285.7677 L617,306.4985 L896.5,306.4985 A2.5,2.5 0 0 1 899,308.9985 L899,761.6177 A2.5,2.5 0 0 1 896.5,764.1177 L516.5,764.1177 A2.5,2.5 0 0 1 514,761.6177 L514,285.7677 A2.5,2.5 0 0 1 516.5,283.2677 " fill="none" style="stroke:#000000;stroke-width:1.5;"/><line style="stroke:#000000;stroke-width:1.5;" x1="514" x2="617" y1="306.4985" y2="306.4985"/><text fill="#000000" font-family="sans-serif" font-size="14" font-weight="bold" lengthAdjust="spacing" textLength="90" x="518" y="298.1908">Controller</text></g><!--cluster Utility--><g id="cluster_Utility"><path d="M2000.5,560.7277 L2064.5,560.7277 A3.75,3.75 0 0 1 2067,563.2277 L2074,583.9585 L3683.5,583.9585 A2.5,2.5 0 0 1 3686,586.4585 L3686,956.7677 A2.5,2.5 0 0 1 3683.5,959.2677 L2000.5,959.2677 A2.5,2.5 0 0 1 1998,956.7677 L1998,563.2277 A2.5,2.5 0 0 1 2000.5,560.7277 " fill="none" style="stroke:#000000;stroke-width:1.5;"/><line style="stroke:#000000;stroke-width:1.5;" x1="1998" x2="2074" y1="583.9585" y2="583.9585"/><text fill="#000000" font-family="sans-serif" font-size="14" font-weight="bold" lengthAdjust="spacing" textLength="63" x="2002" y="575.6508">Utility</text></g><!--cluster DAO--><g id="cluster_DAO"><path d="M407.5,859.2677 L435.5,859.2677 A3.75,3.75 0 0 1 438,861.7677 L445,882.4985 L896.5,882.4985 A2.5,2.5 0 0 1 899,884.9985 L899,1150.6877 A2.5,2.5 0 0 1 896.5,1153.1877 L407.5,1153.1877 A2.5,2.5 0 0 1 405,1150.6877 L405,861.7677 A2.5,2.5 0 0 1 407.5,859.2677 " fill="none" style="stroke:#000000;stroke-width:1.5;"/><line style="stroke:#000000;stroke-width:1.5;" x1="405" x2="445" y1="882.4985" y2="882.4985"/><text fill="#000000" font-family="sans-serif" font-size="14" font-weight="bold" lengthAdjust="spacing" textLength="27" x="409" y="874.1908">DAO</text></g><!--class CategoriaProdotto--><g id="elem_CategoriaProdotto"><rect codeLine="2" fill="#F1F1F1" height="65.2308" id="CategoriaProdotto" rx="2.5" ry="2.5" style="stroke:#181818;stroke-width:0.5;" width="185" x="951.5" y="1080.5777"/><ellipse cx="966.5" cy="1096.5777" fill="#ADD1B2" rx="11" ry="11" style="stroke:#181818;stroke-width:1.0;"/><path d="M966.2344,1090.6871 Q967.5469,1090.6871 968.4531,1091.0308 Q969.3594,1091.3746 970.125,1091.9996 L968.7188,1093.7027 Q968.2188,1093.2808 967.6094,1093.0464 Q967.0156,1092.8121 966.3125,1092.8121 Q965.5469,1092.8121 964.9219,1093.2496 Q964.2969,1093.6714 963.9219,1094.6089 Q963.5469,1095.5308 963.5469,1097.0152 Q963.5469,1099.1871 964.3281,1100.1871 Q965.125,1101.1714 966.3594,1101.1714 Q967.2656,1101.1714 967.8594,1100.8277 Q968.4688,1100.4839 968.9844,1100.0933 L970.2813,1101.7496 Q969.5938,1102.4214 968.5938,1102.9058 Q967.6094,1103.3746 966.2031,1103.3746 Q964.5625,1103.3746 963.2969,1102.6558 Q962.0313,1101.9214 961.3125,1100.4996 Q960.5938,1099.0777 960.5938,1097.0152 Q960.5938,1094.9839 961.3281,1093.5777 Q962.0781,1092.1558 963.3594,1091.4214 Q964.6406,1090.6871 966.2344,1090.6871 Z " fill="#000000"/><text fill="#000000" font-family="sans-serif" font-size="14" lengthAdjust="spacing" textLength="153" x="980.5" y="1100.8854">CategoriaProdotto</text><line style="stroke:#181818;stroke-width:0.5;" x1="952.5" x2="1135.5" y1="1112.5777" y2="1112.5777"/><text fill="#000000" font-family="sans-serif" font-size="14" lengthAdjust="spacing" textLength="99" x="957.5" y="1129.5008">string nome</text><line style="stroke:#181818;stroke-width:0.5;" x1="952.5" x2="1135.5" y1="1137.8085" y2="1137.8085"/></g><!--class Utente--><g id="elem_Utente"><rect codeLine="5" fill="#F1F1F1" height="82.4616" id="Utente" rx="2.5" ry="2.5" style="stroke:#181818;stroke-width:0.5;" width="147" x="1356.5" y="631.1877"/><ellipse cx="1398.95" cy="647.1877" fill="#A9DCDF" rx="11" ry="11" style="stroke:#181818;stroke-width:1.0;"/><path d="M1400.6688,650.0783 L1397.1375,650.0783 L1396.4969,652.6877 L1393.5125,652.6877 L1397.2,640.6096 L1400.6688,640.6096 L1404.3719,652.6877 L1401.3094,652.6877 L1400.6688,650.0783 Z M1397.5906,648.0002 L1400.2,648.0002 L1398.9031,642.6564 L1397.5906,648.0002 Z " fill="#000000"/><text fill="#000000" font-family="sans-serif" font-size="14" font-style="italic" lengthAdjust="spacing" textLength="54" x="1419.05" y="651.4954">Utente</text><line style="stroke:#181818;stroke-width:0.5;" x1="1357.5" x2="1502.5" y1="663.1877" y2="663.1877"/><text fill="#000000" font-family="sans-serif" font-size="14" lengthAdjust="spacing" textLength="135" x="1362.5" y="680.1108">string username</text><text fill="#000000" font-family="sans-serif" font-size="14" lengthAdjust="spacing" textLength="135" x="1362.5" y="697.3416">string password</text><line style="stroke:#181818;stroke-width:0.5;" x1="1357.5" x2="1502.5" y1="705.6493" y2="705.6493"/></g><!--class Cliente--><g id="elem_Cliente"><rect codeLine="9" fill="#F1F1F1" height="134.154" id="Cliente" rx="2.5" ry="2.5" style="stroke:#181818;stroke-width:0.5;" width="318" x="1640" y="852.1877"/><ellipse cx="1763.25" cy="868.1877" fill="#ADD1B2" rx="11" ry="11" style="stroke:#181818;stroke-width:1.0;"/><path d="M1762.9844,862.2971 Q1764.2969,862.2971 1765.2031,862.6408 Q1766.1094,862.9846 1766.875,863.6096 L1765.4688,865.3127 Q1764.9688,864.8908 1764.3594,864.6564 Q1763.7656,864.4221 1763.0625,864.4221 Q1762.2969,864.4221 1761.6719,864.8596 Q1761.0469,865.2814 1760.6719,866.2189 Q1760.2969,867.1408 1760.2969,868.6252 Q1760.2969,870.7971 1761.0781,871.7971 Q1761.875,872.7814 1763.1094,872.7814 Q1764.0156,872.7814 1764.6094,872.4377 Q1765.2188,872.0939 1765.7344,871.7033 L1767.0313,873.3596 Q1766.3438,874.0314 1765.3438,874.5158 Q1764.3594,874.9846 1762.9531,874.9846 Q1761.3125,874.9846 1760.0469,874.2658 Q1758.7813,873.5314 1758.0625,872.1096 Q1757.3438,870.6877 1757.3438,868.6252 Q1757.3438,866.5939 1758.0781,865.1877 Q1758.8281,863.7658 1760.1094,863.0314 Q1761.3906,862.2971 1762.9844,862.2971 Z " fill="#000000"/><text fill="#000000" font-family="sans-serif" font-size="14" lengthAdjust="spacing" textLength="63" x="1783.75" y="872.4954">Cliente</text><line style="stroke:#181818;stroke-width:0.5;" x1="1641" x2="1957" y1="884.1877" y2="884.1877"/><text fill="#000000" font-family="sans-serif" font-size="14" lengthAdjust="spacing" textLength="144" x="1646" y="901.1108">Tipo tipoCliente</text><text fill="#000000" font-family="sans-serif" font-size="14" lengthAdjust="spacing" textLength="99" x="1646" y="918.3416">string nome</text><text fill="#000000" font-family="sans-serif" font-size="14" lengthAdjust="spacing" textLength="144" x="1646" y="935.5724">string indirizzo</text><text fill="#000000" font-family="sans-serif" font-size="14" lengthAdjust="spacing" textLength="108" x="1646" y="952.8032">string email</text><text fill="#000000" font-family="sans-serif" font-size="14" lengthAdjust="spacing" textLength="306" x="1646" y="970.034">string codice univoco fatturazione</text><line style="stroke:#181818;stroke-width:0.5;" x1="1641" x2="1957" y1="978.3417" y2="978.3417"/></g><!--class ClienteBuilder--><g id="elem_ClienteBuilder"><rect codeLine="17" fill="#F1F1F1" height="203.0772" id="ClienteBuilder" rx="2.5" ry="2.5" style="stroke:#181818;stroke-width:0.5;" width="233" x="1704.5" y="570.8877"/><ellipse cx="1749.25" cy="586.8877" fill="#ADD1B2" rx="11" ry="11" style="stroke:#181818;stroke-width:1.0;"/><path d="M1748.9844,580.9971 Q1750.2969,580.9971 1751.2031,581.3408 Q1752.1094,581.6846 1752.875,582.3096 L1751.4688,584.0127 Q1750.9688,583.5908 1750.3594,583.3564 Q1749.7656,583.1221 1749.0625,583.1221 Q1748.2969,583.1221 1747.6719,583.5596 Q1747.0469,583.9814 1746.6719,584.9189 Q1746.2969,585.8408 1746.2969,587.3252 Q1746.2969,589.4971 1747.0781,590.4971 Q1747.875,591.4814 1749.1094,591.4814 Q1750.0156,591.4814 1750.6094,591.1377 Q1751.2188,590.7939 1751.7344,590.4033 L1753.0313,592.0596 Q1752.3438,592.7314 1751.3438,593.2158 Q1750.3594,593.6846 1748.9531,593.6846 Q1747.3125,593.6846 1746.0469,592.9658 Q1744.7813,592.2314 1744.0625,590.8096 Q1743.3438,589.3877 1743.3438,587.3252 Q1743.3438,585.2939 1744.0781,583.8877 Q1744.8281,582.4658 1746.1094,581.7314 Q1747.3906,580.9971 1748.9844,580.9971 Z " fill="#000000"/><text fill="#000000" font-family="sans-serif" font-size="14" lengthAdjust="spacing" textLength="135" x="1769.75" y="591.1954">Cliente.Builder</text><line style="stroke:#181818;stroke-width:0.5;" x1="1705.5" x2="1936.5" y1="602.8877" y2="602.8877"/><ellipse cx="1715.5" cy="617.0031" fill="none" rx="3" ry="3" style="stroke:#038048;stroke-width:1.0;"/><text fill="#000000" font-family="sans-serif" font-size="14" lengthAdjust="spacing" textLength="45" x="1724.5" y="619.8108">nuovo</text><ellipse cx="1715.5" cy="634.2339" fill="none" rx="3" ry="3" style="stroke:#038048;stroke-width:1.0;"/><text fill="#000000" font-family="sans-serif" font-size="14" lengthAdjust="spacing" textLength="72" x="1724.5" y="637.0416">con Tipo</text><ellipse cx="1715.5" cy="651.4647" fill="none" rx="3" ry="3" style="stroke:#038048;stroke-width:1.0;"/><text fill="#000000" font-family="sans-serif" font-size="14" lengthAdjust="spacing" textLength="72" x="1724.5" y="654.2724">con Nome</text><ellipse cx="1715.5" cy="668.6955" fill="none" rx="3" ry="3" style="stroke:#038048;stroke-width:1.0;"/><text fill="#000000" font-family="sans-serif" font-size="14" lengthAdjust="spacing" textLength="117" x="1724.5" y="671.5032">con Indirizzo</text><ellipse cx="1715.5" cy="685.9263" fill="none" rx="3" ry="3" style="stroke:#038048;stroke-width:1.0;"/><text fill="#000000" font-family="sans-serif" font-size="14" lengthAdjust="spacing" textLength="81" x="1724.5" y="688.734">con Email</text><ellipse cx="1715.5" cy="703.1571" fill="none" rx="3" ry="3" style="stroke:#038048;stroke-width:1.0;"/><text fill="#000000" font-family="sans-serif" font-size="14" lengthAdjust="spacing" textLength="207" x="1724.5" y="705.9648">con Codice Fatturazione</text><ellipse cx="1715.5" cy="720.3879" fill="none" rx="3" ry="3" style="stroke:#038048;stroke-width:1.0;"/><text fill="#000000" font-family="sans-serif" font-size="14" lengthAdjust="spacing" textLength="108" x="1724.5" y="723.1956">con Username</text><ellipse cx="1715.5" cy="737.6187" fill="none" rx="3" ry="3" style="stroke:#038048;stroke-width:1.0;"/><text fill="#000000" font-family="sans-serif" font-size="14" lengthAdjust="spacing" textLength="108" x="1724.5" y="740.4264">con Password</text><ellipse cx="1715.5" cy="754.8495" fill="none" rx="3" ry="3" style="stroke:#038048;stroke-width:1.0;"/><text fill="#000000" font-family="sans-serif" font-size="14" lengthAdjust="spacing" textLength="90" x="1724.5" y="757.6572">costruisci</text><line style="stroke:#181818;stroke-width:0.5;" x1="1705.5" x2="1936.5" y1="765.9649" y2="765.9649"/></g><!--class Impiegato--><g id="elem_Impiegato"><rect codeLine="30" fill="#F1F1F1" height="99.6924" id="Impiegato" rx="2.5" ry="2.5" style="stroke:#181818;stroke-width:0.5;" width="273" x="1184.5" y="869.4277"/><ellipse cx="1276.25" cy="885.4277" fill="#ADD1B2" rx="11" ry="11" style="stroke:#181818;stroke-width:1.0;"/><path d="M1275.9844,879.5371 Q1277.2969,879.5371 1278.2031,879.8808 Q1279.1094,880.2246 1279.875,880.8496 L1278.4688,882.5527 Q1277.9688,882.1308 1277.3594,881.8964 Q1276.7656,881.6621 1276.0625,881.6621 Q1275.2969,881.6621 1274.6719,882.0996 Q1274.0469,882.5214 1273.6719,883.4589 Q1273.2969,884.3808 1273.2969,885.8652 Q1273.2969,888.0371 1274.0781,889.0371 Q1274.875,890.0214 1276.1094,890.0214 Q1277.0156,890.0214 1277.6094,889.6777 Q1278.2188,889.3339 1278.7344,888.9433 L1280.0313,890.5996 Q1279.3438,891.2714 1278.3438,891.7558 Q1277.3594,892.2246 1275.9531,892.2246 Q1274.3125,892.2246 1273.0469,891.5058 Q1271.7813,890.7714 1271.0625,889.3496 Q1270.3438,887.9277 1270.3438,885.8652 Q1270.3438,883.8339 1271.0781,882.4277 Q1271.8281,881.0058 1273.1094,880.2714 Q1274.3906,879.5371 1275.9844,879.5371 Z " fill="#000000"/><text fill="#000000" font-family="sans-serif" font-size="14" lengthAdjust="spacing" textLength="81" x="1296.75" y="889.7354">Impiegato</text><line style="stroke:#181818;stroke-width:0.5;" x1="1185.5" x2="1456.5" y1="901.4277" y2="901.4277"/><text fill="#000000" font-family="sans-serif" font-size="14" lengthAdjust="spacing" textLength="99" x="1190.5" y="918.3508">string nome</text><text fill="#000000" font-family="sans-serif" font-size="14" lengthAdjust="spacing" textLength="243" x="1190.5" y="935.5816">bool pu&#242; registrare clienti</text><text fill="#000000" font-family="sans-serif" font-size="14" lengthAdjust="spacing" textLength="261" x="1190.5" y="952.8124">bool pu&#242; registrare impiegati</text><line style="stroke:#181818;stroke-width:0.5;" x1="1185.5" x2="1456.5" y1="961.1201" y2="961.1201"/></g><!--class Fattorino--><g id="elem_Fattorino"><rect codeLine="35" fill="#F1F1F1" height="48" id="Fattorino" rx="2.5" ry="2.5" style="stroke:#181818;stroke-width:0.5;" width="113" x="1492.5" y="895.2677"/><ellipse cx="1507.5" cy="911.2677" fill="#ADD1B2" rx="11" ry="11" style="stroke:#181818;stroke-width:1.0;"/><path d="M1507.2344,905.3771 Q1508.5469,905.3771 1509.4531,905.7208 Q1510.3594,906.0646 1511.125,906.6896 L1509.7188,908.3927 Q1509.2188,907.9708 1508.6094,907.7364 Q1508.0156,907.5021 1507.3125,907.5021 Q1506.5469,907.5021 1505.9219,907.9396 Q1505.2969,908.3614 1504.9219,909.2989 Q1504.5469,910.2208 1504.5469,911.7052 Q1504.5469,913.8771 1505.3281,914.8771 Q1506.125,915.8614 1507.3594,915.8614 Q1508.2656,915.8614 1508.8594,915.5177 Q1509.4688,915.1739 1509.9844,914.7833 L1511.2813,916.4396 Q1510.5938,917.1114 1509.5938,917.5958 Q1508.6094,918.0646 1507.2031,918.0646 Q1505.5625,918.0646 1504.2969,917.3458 Q1503.0313,916.6114 1502.3125,915.1896 Q1501.5938,913.7677 1501.5938,911.7052 Q1501.5938,909.6739 1502.3281,908.2677 Q1503.0781,906.8458 1504.3594,906.1114 Q1505.6406,905.3771 1507.2344,905.3771 Z " fill="#000000"/><text fill="#000000" font-family="sans-serif" font-size="14" lengthAdjust="spacing" textLength="81" x="1521.5" y="915.5754">Fattorino</text><line style="stroke:#181818;stroke-width:0.5;" x1="1493.5" x2="1604.5" y1="927.2677" y2="927.2677"/><line style="stroke:#181818;stroke-width:0.5;" x1="1493.5" x2="1604.5" y1="935.2677" y2="935.2677"/></g><!--class Fattura--><g id="elem_Fattura"><rect codeLine="36" fill="#F1F1F1" height="65.2308" id="Fattura" rx="2.5" ry="2.5" style="stroke:#181818;stroke-width:0.5;" width="102" x="1748" y="1080.5777"/><ellipse cx="1766.15" cy="1096.5777" fill="#ADD1B2" rx="11" ry="11" style="stroke:#181818;stroke-width:1.0;"/><path d="M1765.8844,1090.6871 Q1767.1969,1090.6871 1768.1031,1091.0308 Q1769.0094,1091.3746 1769.775,1091.9996 L1768.3688,1093.7027 Q1767.8688,1093.2808 1767.2594,1093.0464 Q1766.6656,1092.8121 1765.9625,1092.8121 Q1765.1969,1092.8121 1764.5719,1093.2496 Q1763.9469,1093.6714 1763.5719,1094.6089 Q1763.1969,1095.5308 1763.1969,1097.0152 Q1763.1969,1099.1871 1763.9781,1100.1871 Q1764.775,1101.1714 1766.0094,1101.1714 Q1766.9156,1101.1714 1767.5094,1100.8277 Q1768.1188,1100.4839 1768.6344,1100.0933 L1769.9313,1101.7496 Q1769.2438,1102.4214 1768.2438,1102.9058 Q1767.2594,1103.3746 1765.8531,1103.3746 Q1764.2125,1103.3746 1762.9469,1102.6558 Q1761.6813,1101.9214 1760.9625,1100.4996 Q1760.2438,1099.0777 1760.2438,1097.0152 Q1760.2438,1094.9839 1760.9781,1093.5777 Q1761.7281,1092.1558 1763.0094,1091.4214 Q1764.2906,1090.6871 1765.8844,1090.6871 Z " fill="#000000"/><text fill="#000000" font-family="sans-serif" font-size="14" lengthAdjust="spacing" textLength="63" x="1780.85" y="1100.8854">Fattura</text><line style="stroke:#181818;stroke-width:0.5;" x1="1749" x2="1849" y1="1112.5777" y2="1112.5777"/><text fill="#000000" font-family="sans-serif" font-size="14" lengthAdjust="spacing" textLength="90" x="1754" y="1129.5008">int codice</text><line style="stroke:#181818;stroke-width:0.5;" x1="1749" x2="1849" y1="1137.8085" y2="1137.8085"/></g><!--class Prodotto--><g id="elem_Prodotto"><rect codeLine="39" fill="#F1F1F1" height="168.6156" id="Prodotto" rx="2.5" ry="2.5" style="stroke:#181818;stroke-width:0.5;" width="210" x="939" y="834.9577"/><ellipse cx="1003.75" cy="850.9577" fill="#ADD1B2" rx="11" ry="11" style="stroke:#181818;stroke-width:1.0;"/><path d="M1003.4844,845.0671 Q1004.7969,845.0671 1005.7031,845.4108 Q1006.6094,845.7546 1007.375,846.3796 L1005.9688,848.0827 Q1005.4688,847.6608 1004.8594,847.4264 Q1004.2656,847.1921 1003.5625,847.1921 Q1002.7969,847.1921 1002.1719,847.6296 Q1001.5469,848.0514 1001.1719,848.9889 Q1000.7969,849.9108 1000.7969,851.3952 Q1000.7969,853.5671 1001.5781,854.5671 Q1002.375,855.5514 1003.6094,855.5514 Q1004.5156,855.5514 1005.1094,855.2077 Q1005.7188,854.8639 1006.2344,854.4733 L1007.5313,856.1296 Q1006.8438,856.8014 1005.8438,857.2858 Q1004.8594,857.7546 1003.4531,857.7546 Q1001.8125,857.7546 1000.5469,857.0358 Q999.2813,856.3014 998.5625,854.8796 Q997.8438,853.4577 997.8438,851.3952 Q997.8438,849.3639 998.5781,847.9577 Q999.3281,846.5358 1000.6094,845.8014 Q1001.8906,845.0671 1003.4844,845.0671 Z " fill="#000000"/><text fill="#000000" font-family="sans-serif" font-size="14" lengthAdjust="spacing" textLength="72" x="1024.25" y="855.2654">Prodotto</text><line style="stroke:#181818;stroke-width:0.5;" x1="940" x2="1148" y1="866.9577" y2="866.9577"/><text fill="#000000" font-family="sans-serif" font-size="14" lengthAdjust="spacing" textLength="90" x="945" y="883.8808">int codice</text><text fill="#000000" font-family="sans-serif" font-size="14" lengthAdjust="spacing" textLength="162" x="945" y="901.1116">string descrizione</text><text fill="#000000" font-family="sans-serif" font-size="14" lengthAdjust="spacing" textLength="162" x="945" y="918.3424">float prezzo al kg</text><text fill="#000000" font-family="sans-serif" font-size="14" lengthAdjust="spacing" textLength="144" x="945" y="935.5732">float peso in kg</text><text fill="#000000" font-family="sans-serif" font-size="14" lengthAdjust="spacing" textLength="180" x="945" y="952.804">bool &#232; stato venduto</text><text fill="#000000" font-family="sans-serif" font-size="14" lengthAdjust="spacing" textLength="198" x="945" y="970.0348">bool &#232; stato riportato</text><text fill="#000000" font-family="sans-serif" font-size="14" lengthAdjust="spacing" textLength="144" x="945" y="987.2656">String pescatore</text><line style="stroke:#181818;stroke-width:0.5;" x1="940" x2="1148" y1="995.5733" y2="995.5733"/></g><g id="elem_GMN12"><path d="M938.5,659.4277 L938.5,685.4277 A0,0 0 0 0 938.5,685.4277 L1101.69,685.4277 L1066.21,834.5977 L1109.69,685.4277 L1279.5,685.4277 A0,0 0 0 0 1279.5,685.4277 L1279.5,669.4277 L1269.5,659.4277 L938.5,659.4277 A0,0 0 0 0 938.5,659.4277 " fill="#FEFFDD" style="stroke:#181818;stroke-width:0.5;"/><path d="M1269.5,659.4277 L1269.5,669.4277 L1279.5,669.4277 L1269.5,659.4277 " fill="#FEFFDD" style="stroke:#181818;stroke-width:0.5;"/><text fill="#000000" font-family="sans-serif" font-size="13" lengthAdjust="spacing" textLength="320" x="944.5" y="676.4277">Il Pescatore &#232; stato incluso in Prodotto</text></g><!--class BoundaryBackgroundScheduler--><g id="elem_BoundaryBackgroundScheduler"><rect codeLine="62" fill="#F1F1F1" height="65.2308" id="BoundaryBackgroundScheduler" rx="2.5" ry="2.5" style="stroke:#181818;stroke-width:0.5;" width="293" x="21.5" y="42.8077"/><ellipse cx="36.5" cy="58.8077" fill="#ADD1B2" rx="11" ry="11" style="stroke:#181818;stroke-width:1.0;"/><path d="M36.2344,52.9171 Q37.5469,52.9171 38.4531,53.2608 Q39.3594,53.6046 40.125,54.2296 L38.7188,55.9327 Q38.2188,55.5108 37.6094,55.2764 Q37.0156,55.0421 36.3125,55.0421 Q35.5469,55.0421 34.9219,55.4796 Q34.2969,55.9014 33.9219,56.8389 Q33.5469,57.7608 33.5469,59.2452 Q33.5469,61.4171 34.3281,62.4171 Q35.125,63.4014 36.3594,63.4014 Q37.2656,63.4014 37.8594,63.0577 Q38.4688,62.7139 38.9844,62.3233 L40.2813,63.9796 Q39.5938,64.6514 38.5938,65.1358 Q37.6094,65.6046 36.2031,65.6046 Q34.5625,65.6046 33.2969,64.8858 Q32.0313,64.1514 31.3125,62.7296 Q30.5938,61.3077 30.5938,59.2452 Q30.5938,57.2139 31.3281,55.8077 Q32.0781,54.3858 33.3594,53.6514 Q34.6406,52.9171 36.2344,52.9171 Z " fill="#000000"/><text fill="#000000" font-family="sans-serif" font-size="14" lengthAdjust="spacing" textLength="261" x="50.5" y="63.1154">Boundary Background Scheduler</text><line style="stroke:#181818;stroke-width:0.5;" x1="22.5" x2="313.5" y1="74.8077" y2="74.8077"/><ellipse cx="32.5" cy="88.9231" fill="none" rx="3" ry="3" style="stroke:#038048;stroke-width:1.0;"/><text fill="#000000" font-family="sans-serif" font-size="14" lengthAdjust="spacing" textLength="72" x="41.5" y="91.7308">Schedula</text><line style="stroke:#181818;stroke-width:0.5;" x1="22.5" x2="313.5" y1="100.0385" y2="100.0385"/></g><!--class BuondaryImpiegato--><g id="elem_BuondaryImpiegato"><rect codeLine="65" fill="#F1F1F1" height="65.2308" id="BuondaryImpiegato" rx="2.5" ry="2.5" style="stroke:#181818;stroke-width:0.5;" width="194" x="789" y="42.8077"/><ellipse cx="804" cy="58.8077" fill="#ADD1B2" rx="11" ry="11" style="stroke:#181818;stroke-width:1.0;"/><path d="M803.7344,52.9171 Q805.0469,52.9171 805.9531,53.2608 Q806.8594,53.6046 807.625,54.2296 L806.2188,55.9327 Q805.7188,55.5108 805.1094,55.2764 Q804.5156,55.0421 803.8125,55.0421 Q803.0469,55.0421 802.4219,55.4796 Q801.7969,55.9014 801.4219,56.8389 Q801.0469,57.7608 801.0469,59.2452 Q801.0469,61.4171 801.8281,62.4171 Q802.625,63.4014 803.8594,63.4014 Q804.7656,63.4014 805.3594,63.0577 Q805.9688,62.7139 806.4844,62.3233 L807.7813,63.9796 Q807.0938,64.6514 806.0938,65.1358 Q805.1094,65.6046 803.7031,65.6046 Q802.0625,65.6046 800.7969,64.8858 Q799.5313,64.1514 798.8125,62.7296 Q798.0938,61.3077 798.0938,59.2452 Q798.0938,57.2139 798.8281,55.8077 Q799.5781,54.3858 800.8594,53.6514 Q802.1406,52.9171 803.7344,52.9171 Z " fill="#000000"/><text fill="#000000" font-family="sans-serif" font-size="14" lengthAdjust="spacing" textLength="162" x="818" y="63.1154">Boundary Impiegato</text><line style="stroke:#181818;stroke-width:0.5;" x1="790" x2="982" y1="74.8077" y2="74.8077"/><ellipse cx="800" cy="88.9231" fill="none" rx="3" ry="3" style="stroke:#038048;stroke-width:1.0;"/><text fill="#000000" font-family="sans-serif" font-size="14" lengthAdjust="spacing" textLength="36" x="809" y="91.7308">Main</text><line style="stroke:#181818;stroke-width:0.5;" x1="790" x2="982" y1="100.0385" y2="100.0385"/></g><!--class BoundaryGestore--><g id="elem_BoundaryGestore"><rect codeLine="68" fill="#F1F1F1" height="65.2308" id="BoundaryGestore" rx="2.5" ry="2.5" style="stroke:#181818;stroke-width:0.5;" width="176" x="349" y="42.8077"/><ellipse cx="364" cy="58.8077" fill="#ADD1B2" rx="11" ry="11" style="stroke:#181818;stroke-width:1.0;"/><path d="M363.7344,52.9171 Q365.0469,52.9171 365.9531,53.2608 Q366.8594,53.6046 367.625,54.2296 L366.2188,55.9327 Q365.7188,55.5108 365.1094,55.2764 Q364.5156,55.0421 363.8125,55.0421 Q363.0469,55.0421 362.4219,55.4796 Q361.7969,55.9014 361.4219,56.8389 Q361.0469,57.7608 361.0469,59.2452 Q361.0469,61.4171 361.8281,62.4171 Q362.625,63.4014 363.8594,63.4014 Q364.7656,63.4014 365.3594,63.0577 Q365.9688,62.7139 366.4844,62.3233 L367.7813,63.9796 Q367.0938,64.6514 366.0938,65.1358 Q365.1094,65.6046 363.7031,65.6046 Q362.0625,65.6046 360.7969,64.8858 Q359.5313,64.1514 358.8125,62.7296 Q358.0938,61.3077 358.0938,59.2452 Q358.0938,57.2139 358.8281,55.8077 Q359.5781,54.3858 360.8594,53.6514 Q362.1406,52.9171 363.7344,52.9171 Z " fill="#000000"/><text fill="#000000" font-family="sans-serif" font-size="14" lengthAdjust="spacing" textLength="144" x="378" y="63.1154">Boundary Gestore</text><line style="stroke:#181818;stroke-width:0.5;" x1="350" x2="524" y1="74.8077" y2="74.8077"/><ellipse cx="360" cy="88.9231" fill="none" rx="3" ry="3" style="stroke:#038048;stroke-width:1.0;"/><text fill="#000000" font-family="sans-serif" font-size="14" lengthAdjust="spacing" textLength="36" x="369" y="91.7308">Main</text><line style="stroke:#181818;stroke-width:0.5;" x1="350" x2="524" y1="100.0385" y2="100.0385"/></g><!--class BoundaryFattorino--><g id="elem_BoundaryFattorino"><rect codeLine="71" fill="#F1F1F1" height="65.2308" id="BoundaryFattorino" rx="2.5" ry="2.5" style="stroke:#181818;stroke-width:0.5;" width="194" x="560" y="42.8077"/><ellipse cx="575" cy="58.8077" fill="#ADD1B2" rx="11" ry="11" style="stroke:#181818;stroke-width:1.0;"/><path d="M574.7344,52.9171 Q576.0469,52.9171 576.9531,53.2608 Q577.8594,53.6046 578.625,54.2296 L577.2188,55.9327 Q576.7188,55.5108 576.1094,55.2764 Q575.5156,55.0421 574.8125,55.0421 Q574.0469,55.0421 573.4219,55.4796 Q572.7969,55.9014 572.4219,56.8389 Q572.0469,57.7608 572.0469,59.2452 Q572.0469,61.4171 572.8281,62.4171 Q573.625,63.4014 574.8594,63.4014 Q575.7656,63.4014 576.3594,63.0577 Q576.9688,62.7139 577.4844,62.3233 L578.7813,63.9796 Q578.0938,64.6514 577.0938,65.1358 Q576.1094,65.6046 574.7031,65.6046 Q573.0625,65.6046 571.7969,64.8858 Q570.5313,64.1514 569.8125,62.7296 Q569.0938,61.3077 569.0938,59.2452 Q569.0938,57.2139 569.8281,55.8077 Q570.5781,54.3858 571.8594,53.6514 Q573.1406,52.9171 574.7344,52.9171 Z " fill="#000000"/><text fill="#000000" font-family="sans-serif" font-size="14" lengthAdjust="spacing" textLength="162" x="589" y="63.1154">Boundary Fattorino</text><line style="stroke:#181818;stroke-width:0.5;" x1="561" x2="753" y1="74.8077" y2="74.8077"/><ellipse cx="571" cy="88.9231" fill="none" rx="3" ry="3" style="stroke:#038048;stroke-width:1.0;"/><text fill="#000000" font-family="sans-serif" font-size="14" lengthAdjust="spacing" textLength="36" x="580" y="91.7308">Main</text><line style="stroke:#181818;stroke-width:0.5;" x1="561" x2="753" y1="100.0385" y2="100.0385"/></g><!--class LoginBoundary--><g id="elem_LoginBoundary"><rect codeLine="74" fill="#F1F1F1" height="65.2308" id="LoginBoundary" rx="2.5" ry="2.5" style="stroke:#181818;stroke-width:0.5;" width="158" x="574" y="169.0377"/><ellipse cx="589" cy="185.0377" fill="#ADD1B2" rx="11" ry="11" style="stroke:#181818;stroke-width:1.0;"/><path d="M588.7344,179.1471 Q590.0469,179.1471 590.9531,179.4908 Q591.8594,179.8346 592.625,180.4596 L591.2188,182.1627 Q590.7188,181.7408 590.1094,181.5064 Q589.5156,181.2721 588.8125,181.2721 Q588.0469,181.2721 587.4219,181.7096 Q586.7969,182.1314 586.4219,183.0689 Q586.0469,183.9908 586.0469,185.4752 Q586.0469,187.6471 586.8281,188.6471 Q587.625,189.6314 588.8594,189.6314 Q589.7656,189.6314 590.3594,189.2877 Q590.9688,188.9439 591.4844,188.5533 L592.7813,190.2096 Q592.0938,190.8814 591.0938,191.3658 Q590.1094,191.8346 588.7031,191.8346 Q587.0625,191.8346 585.7969,191.1158 Q584.5313,190.3814 583.8125,188.9596 Q583.0938,187.5377 583.0938,185.4752 Q583.0938,183.4439 583.8281,182.0377 Q584.5781,180.6158 585.8594,179.8814 Q587.1406,179.1471 588.7344,179.1471 Z " fill="#000000"/><text fill="#000000" font-family="sans-serif" font-size="14" lengthAdjust="spacing" textLength="126" x="603" y="189.3454">Login Boundary</text><line style="stroke:#181818;stroke-width:0.5;" x1="575" x2="731" y1="201.0377" y2="201.0377"/><ellipse cx="585" cy="215.1531" fill="none" rx="3" ry="3" style="stroke:#038048;stroke-width:1.0;"/><text fill="#000000" font-family="sans-serif" font-size="14" lengthAdjust="spacing" textLength="36" x="594" y="217.9608">Main</text><line style="stroke:#181818;stroke-width:0.5;" x1="575" x2="731" y1="226.2685" y2="226.2685"/></g><!--class MainController--><g id="elem_MainController"><rect codeLine="84" fill="#F1F1F1" height="151.3848" id="MainController" rx="2.5" ry="2.5" style="stroke:#181818;stroke-width:0.5;" width="224" x="530" y="596.7277"/><ellipse cx="574.75" cy="612.7277" fill="#ADD1B2" rx="11" ry="11" style="stroke:#181818;stroke-width:1.0;"/><path d="M574.4844,606.8371 Q575.7969,606.8371 576.7031,607.1808 Q577.6094,607.5246 578.375,608.1496 L576.9688,609.8527 Q576.4688,609.4308 575.8594,609.1964 Q575.2656,608.9621 574.5625,608.9621 Q573.7969,608.9621 573.1719,609.3996 Q572.5469,609.8214 572.1719,610.7589 Q571.7969,611.6808 571.7969,613.1652 Q571.7969,615.3371 572.5781,616.3371 Q573.375,617.3214 574.6094,617.3214 Q575.5156,617.3214 576.1094,616.9777 Q576.7188,616.6339 577.2344,616.2433 L578.5313,617.8996 Q577.8438,618.5714 576.8438,619.0558 Q575.8594,619.5246 574.4531,619.5246 Q572.8125,619.5246 571.5469,618.8058 Q570.2813,618.0714 569.5625,616.6496 Q568.8438,615.2277 568.8438,613.1652 Q568.8438,611.1339 569.5781,609.7277 Q570.3281,608.3058 571.6094,607.5714 Q572.8906,606.8371 574.4844,606.8371 Z " fill="#000000"/><text fill="#000000" font-family="sans-serif" font-size="14" lengthAdjust="spacing" textLength="126" x="595.25" y="617.0354">MainController</text><line style="stroke:#181818;stroke-width:0.5;" x1="531" x2="753" y1="628.7277" y2="628.7277"/><ellipse cx="541" cy="642.8431" fill="none" rx="3" ry="3" style="stroke:#038048;stroke-width:1.0;"/><text fill="#000000" font-family="sans-serif" font-size="14" lengthAdjust="spacing" textLength="180" x="550" y="645.6508">prodotti disponibili</text><ellipse cx="541" cy="660.0739" fill="none" rx="3" ry="3" style="stroke:#038048;stroke-width:1.0;"/><text fill="#000000" font-family="sans-serif" font-size="14" lengthAdjust="spacing" textLength="126" x="550" y="662.8816">effettua login</text><ellipse cx="541" cy="677.3047" fill="none" rx="3" ry="3" style="stroke:#038048;stroke-width:1.0;"/><text fill="#000000" font-family="sans-serif" font-size="14" lengthAdjust="spacing" textLength="153" x="550" y="680.1124">registra prodotto</text><ellipse cx="541" cy="694.5355" fill="none" rx="3" ry="3" style="stroke:#038048;stroke-width:1.0;"/><text fill="#000000" font-family="sans-serif" font-size="14" lengthAdjust="spacing" textLength="144" x="550" y="697.3432">registra cliente</text><ellipse cx="541" cy="711.7663" fill="none" rx="3" ry="3" style="stroke:#038048;stroke-width:1.0;"/><text fill="#000000" font-family="sans-serif" font-size="14" lengthAdjust="spacing" textLength="117" x="550" y="714.574">genera report</text><ellipse cx="541" cy="728.9971" fill="none" rx="3" ry="3" style="stroke:#038048;stroke-width:1.0;"/><text fill="#000000" font-family="sans-serif" font-size="14" lengthAdjust="spacing" textLength="198" x="550" y="731.8048">genera e invia fatture</text><line style="stroke:#181818;stroke-width:0.5;" x1="531" x2="753" y1="740.1125" y2="740.1125"/></g><!--class MainControllerBuilder--><g id="elem_MainControllerBuilder"><rect codeLine="93" fill="#F1F1F1" height="168.6156" id="MainControllerBuilder" rx="2.5" ry="2.5" style="stroke:#181818;stroke-width:0.5;" width="242" x="641" y="319.2677"/><ellipse cx="661.4" cy="335.2677" fill="#ADD1B2" rx="11" ry="11" style="stroke:#181818;stroke-width:1.0;"/><path d="M661.1344,329.3771 Q662.4469,329.3771 663.3531,329.7208 Q664.2594,330.0646 665.025,330.6896 L663.6188,332.3927 Q663.1188,331.9708 662.5094,331.7364 Q661.9156,331.5021 661.2125,331.5021 Q660.4469,331.5021 659.8219,331.9396 Q659.1969,332.3614 658.8219,333.2989 Q658.4469,334.2208 658.4469,335.7052 Q658.4469,337.8771 659.2281,338.8771 Q660.025,339.8614 661.2594,339.8614 Q662.1656,339.8614 662.7594,339.5177 Q663.3688,339.1739 663.8844,338.7833 L665.1813,340.4396 Q664.4938,341.1114 663.4938,341.5958 Q662.5094,342.0646 661.1031,342.0646 Q659.4625,342.0646 658.1969,341.3458 Q656.9313,340.6114 656.2125,339.1896 Q655.4938,337.7677 655.4938,335.7052 Q655.4938,333.6739 656.2281,332.2677 Q656.9781,330.8458 658.2594,330.1114 Q659.5406,329.3771 661.1344,329.3771 Z " fill="#000000"/><text fill="#000000" font-family="sans-serif" font-size="14" lengthAdjust="spacing" textLength="198" x="676.6" y="339.5754">MainController.Builder</text><line style="stroke:#181818;stroke-width:0.5;" x1="642" x2="882" y1="351.2677" y2="351.2677"/><text fill="#000000" font-family="sans-serif" font-size="14" lengthAdjust="spacing" textLength="45" x="661" y="368.1908">nuovo</text><ellipse cx="652" cy="382.6139" fill="none" rx="3" ry="3" style="stroke:#038048;stroke-width:1.0;"/><text fill="#000000" font-family="sans-serif" font-size="14" lengthAdjust="spacing" textLength="90" x="661" y="385.4216">con Logger</text><ellipse cx="652" cy="399.8447" fill="none" rx="3" ry="3" style="stroke:#038048;stroke-width:1.0;"/><text fill="#000000" font-family="sans-serif" font-size="14" lengthAdjust="spacing" textLength="135" x="661" y="402.6524">con ProdottoDAO</text><ellipse cx="652" cy="417.0755" fill="none" rx="3" ry="3" style="stroke:#038048;stroke-width:1.0;"/><text fill="#000000" font-family="sans-serif" font-size="14" lengthAdjust="spacing" textLength="117" x="661" y="419.8832">con UtenteDAO</text><ellipse cx="652" cy="434.3063" fill="none" rx="3" ry="3" style="stroke:#038048;stroke-width:1.0;"/><text fill="#000000" font-family="sans-serif" font-size="14" lengthAdjust="spacing" textLength="126" x="661" y="437.114">con ClienteDAO</text><ellipse cx="652" cy="451.5371" fill="none" rx="3" ry="3" style="stroke:#038048;stroke-width:1.0;"/><text fill="#000000" font-family="sans-serif" font-size="14" lengthAdjust="spacing" textLength="171" x="661" y="454.3448">con Fatture Manager</text><ellipse cx="652" cy="468.7679" fill="none" rx="3" ry="3" style="stroke:#038048;stroke-width:1.0;"/><text fill="#000000" font-family="sans-serif" font-size="14" lengthAdjust="spacing" textLength="216" x="661" y="471.5756">costruisci E Sostituisci</text><line style="stroke:#181818;stroke-width:0.5;" x1="642" x2="882" y1="479.8833" y2="479.8833"/></g><g id="elem_GMN34"><path d="M789.5,659.4277 L789.5,668.4277 L754.16,672.4277 L789.5,676.4277 L789.5,685.4277 A0,0 0 0 0 789.5,685.4277 L882.5,685.4277 A0,0 0 0 0 882.5,685.4277 L882.5,669.4277 L872.5,659.4277 L789.5,659.4277 A0,0 0 0 0 789.5,659.4277 " fill="#FEFFDD" style="stroke:#181818;stroke-width:0.5;"/><path d="M872.5,659.4277 L872.5,669.4277 L882.5,669.4277 L872.5,659.4277 " fill="#FEFFDD" style="stroke:#181818;stroke-width:0.5;"/><text fill="#000000" font-family="sans-serif" font-size="13" lengthAdjust="spacing" textLength="72" x="795.5" y="676.4277">Singleton</text></g><!--class FattureManager--><g id="elem_FattureManager"><rect codeLine="108" fill="#F1F1F1" height="48" id="FattureManager" rx="2.5" ry="2.5" style="stroke:#181818;stroke-width:0.5;" width="167" x="2332.5" y="895.2677"/><ellipse cx="2347.5" cy="911.2677" fill="#B4A7E5" rx="11" ry="11" style="stroke:#181818;stroke-width:1.0;"/><path d="M2351.6563,905.6896 L2351.6563,907.7833 L2349.1563,907.7833 L2349.1563,915.6739 L2351.6563,915.6739 L2351.6563,917.7677 L2343.8125,917.7677 L2343.8125,915.6739 L2346.2969,915.6739 L2346.2969,907.7833 L2343.8125,907.7833 L2343.8125,905.6896 L2351.6563,905.6896 Z " fill="#000000"/><text fill="#000000" font-family="sans-serif" font-size="14" font-style="italic" lengthAdjust="spacing" textLength="135" x="2361.5" y="915.5754">Fatture Manager</text><line style="stroke:#181818;stroke-width:0.5;" x1="2333.5" x2="2498.5" y1="927.2677" y2="927.2677"/><line style="stroke:#181818;stroke-width:0.5;" x1="2333.5" x2="2498.5" y1="935.2677" y2="935.2677"/></g><!--class NoOpFattureManager--><g id="elem_NoOpFattureManager"><rect codeLine="110" fill="#F1F1F1" height="48" id="NoOpFattureManager" rx="2.5" ry="2.5" style="stroke:#181818;stroke-width:0.5;" width="284" x="2623" y="648.4277"/><ellipse cx="2638" cy="664.4277" fill="#ADD1B2" rx="11" ry="11" style="stroke:#181818;stroke-width:1.0;"/><path d="M2637.7344,658.5371 Q2639.0469,658.5371 2639.9531,658.8808 Q2640.8594,659.2246 2641.625,659.8496 L2640.2188,661.5527 Q2639.7188,661.1308 2639.1094,660.8964 Q2638.5156,660.6621 2637.8125,660.6621 Q2637.0469,660.6621 2636.4219,661.0996 Q2635.7969,661.5214 2635.4219,662.4589 Q2635.0469,663.3808 2635.0469,664.8652 Q2635.0469,667.0371 2635.8281,668.0371 Q2636.625,669.0214 2637.8594,669.0214 Q2638.7656,669.0214 2639.3594,668.6777 Q2639.9688,668.3339 2640.4844,667.9433 L2641.7813,669.5996 Q2641.0938,670.2714 2640.0938,670.7558 Q2639.1094,671.2246 2637.7031,671.2246 Q2636.0625,671.2246 2634.7969,670.5058 Q2633.5313,669.7714 2632.8125,668.3496 Q2632.0938,666.9277 2632.0938,664.8652 Q2632.0938,662.8339 2632.8281,661.4277 Q2633.5781,660.0058 2634.8594,659.2714 Q2636.1406,658.5371 2637.7344,658.5371 Z " fill="#000000"/><text fill="#000000" font-family="sans-serif" font-size="14" lengthAdjust="spacing" textLength="252" x="2652" y="668.7354">No Operation Fatture Manager</text><line style="stroke:#181818;stroke-width:0.5;" x1="2624" x2="2906" y1="680.4277" y2="680.4277"/><line style="stroke:#181818;stroke-width:0.5;" x1="2624" x2="2906" y1="688.4277" y2="688.4277"/></g><!--class FileFattureManager--><g id="elem_FileFattureManager"><rect codeLine="112" fill="#F1F1F1" height="48" id="FileFattureManager" rx="2.5" ry="2.5" style="stroke:#181818;stroke-width:0.5;" width="212" x="2376" y="648.4277"/><ellipse cx="2391" cy="664.4277" fill="#ADD1B2" rx="11" ry="11" style="stroke:#181818;stroke-width:1.0;"/><path d="M2390.7344,658.5371 Q2392.0469,658.5371 2392.9531,658.8808 Q2393.8594,659.2246 2394.625,659.8496 L2393.2188,661.5527 Q2392.7188,661.1308 2392.1094,660.8964 Q2391.5156,660.6621 2390.8125,660.6621 Q2390.0469,660.6621 2389.4219,661.0996 Q2388.7969,661.5214 2388.4219,662.4589 Q2388.0469,663.3808 2388.0469,664.8652 Q2388.0469,667.0371 2388.8281,668.0371 Q2389.625,669.0214 2390.8594,669.0214 Q2391.7656,669.0214 2392.3594,668.6777 Q2392.9688,668.3339 2393.4844,667.9433 L2394.7813,669.5996 Q2394.0938,670.2714 2393.0938,670.7558 Q2392.1094,671.2246 2390.7031,671.2246 Q2389.0625,671.2246 2387.7969,670.5058 Q2386.5313,669.7714 2385.8125,668.3496 Q2385.0938,666.9277 2385.0938,664.8652 Q2385.0938,662.8339 2385.8281,661.4277 Q2386.5781,660.0058 2387.8594,659.2714 Q2389.1406,658.5371 2390.7344,658.5371 Z " fill="#000000"/><text fill="#000000" font-family="sans-serif" font-size="14" lengthAdjust="spacing" textLength="180" x="2405" y="668.7354">File Fatture Manager</text><line style="stroke:#181818;stroke-width:0.5;" x1="2377" x2="2587" y1="680.4277" y2="680.4277"/><line style="stroke:#181818;stroke-width:0.5;" x1="2377" x2="2587" y1="688.4277" y2="688.4277"/></g><!--class Risultato--><g id="elem_Risultato"><rect codeLine="115" fill="#F1F1F1" height="116.9232" id="Risultato" rx="2.5" ry="2.5" style="stroke:#181818;stroke-width:0.5;" width="179" x="2941.5" y="613.9577"/><ellipse cx="2981.25" cy="629.9577" fill="#ADD1B2" rx="11" ry="11" style="stroke:#181818;stroke-width:1.0;"/><path d="M2980.9844,624.0671 Q2982.2969,624.0671 2983.2031,624.4108 Q2984.1094,624.7546 2984.875,625.3796 L2983.4688,627.0827 Q2982.9688,626.6608 2982.3594,626.4264 Q2981.7656,626.1921 2981.0625,626.1921 Q2980.2969,626.1921 2979.6719,626.6296 Q2979.0469,627.0514 2978.6719,627.9889 Q2978.2969,628.9108 2978.2969,630.3952 Q2978.2969,632.5671 2979.0781,633.5671 Q2979.875,634.5514 2981.1094,634.5514 Q2982.0156,634.5514 2982.6094,634.2077 Q2983.2188,633.8639 2983.7344,633.4733 L2985.0313,635.1296 Q2984.3438,635.8014 2983.3438,636.2858 Q2982.3594,636.7546 2980.9531,636.7546 Q2979.3125,636.7546 2978.0469,636.0358 Q2976.7813,635.3014 2976.0625,633.8796 Q2975.3438,632.4577 2975.3438,630.3952 Q2975.3438,628.3639 2976.0781,626.9577 Q2976.8281,625.5358 2978.1094,624.8014 Q2979.3906,624.0671 2980.9844,624.0671 Z " fill="#000000"/><text fill="#000000" font-family="sans-serif" font-size="14" lengthAdjust="spacing" textLength="81" x="3000.75" y="634.2654">Risultato</text><rect fill="#FFFFFF" height="16.7692" style="stroke:#181818;stroke-width:1.0;stroke-dasharray:2.0,2.0;" width="9" x="3114.5" y="610.9577"/><text fill="#000000" font-family="sans-serif" font-size="12" font-style="italic" lengthAdjust="spacing" textLength="7" x="3115.5" y="623.0346">T</text><line style="stroke:#181818;stroke-width:0.5;" x1="2942.5" x2="3119.5" y1="645.9577" y2="645.9577"/><ellipse cx="2952.5" cy="660.0731" fill="none" rx="3" ry="3" style="stroke:#038048;stroke-width:1.0;"/><text fill="#000000" font-family="sans-serif" font-size="14" lengthAdjust="spacing" textLength="153" x="2961.5" y="662.8808">ha avuto successo</text><ellipse cx="2952.5" cy="677.3039" fill="none" rx="3" ry="3" style="stroke:#038048;stroke-width:1.0;"/><text fill="#000000" font-family="sans-serif" font-size="14" lengthAdjust="spacing" textLength="117" x="2961.5" y="680.1116">get Risultato</text><ellipse cx="2952.5" cy="694.5347" fill="none" rx="3" ry="3" style="stroke:#038048;stroke-width:1.0;"/><text fill="#000000" font-family="sans-serif" font-size="14" lengthAdjust="spacing" textLength="90" x="2961.5" y="697.3424">get Errore</text><ellipse cx="2952.5" cy="711.7655" fill="none" rx="3" ry="3" style="stroke:#038048;stroke-width:1.0;"/><text fill="#000000" font-family="sans-serif" font-size="14" lengthAdjust="spacing" textLength="117" x="2961.5" y="714.5732">come Optional</text><line style="stroke:#181818;stroke-width:0.5;" x1="2942.5" x2="3119.5" y1="722.8809" y2="722.8809"/></g><!--class ClienteBuilderException--><g id="elem_ClienteBuilderException"><rect codeLine="122" fill="#F1F1F1" height="48" id="ClienteBuilderException" rx="2.5" ry="2.5" style="stroke:#181818;stroke-width:0.5;" width="239" x="2025.5" y="895.2677"/><ellipse cx="2040.5" cy="911.2677" fill="#ADD1B2" rx="11" ry="11" style="stroke:#181818;stroke-width:1.0;"/><path d="M2040.2344,905.3771 Q2041.5469,905.3771 2042.4531,905.7208 Q2043.3594,906.0646 2044.125,906.6896 L2042.7188,908.3927 Q2042.2188,907.9708 2041.6094,907.7364 Q2041.0156,907.5021 2040.3125,907.5021 Q2039.5469,907.5021 2038.9219,907.9396 Q2038.2969,908.3614 2037.9219,909.2989 Q2037.5469,910.2208 2037.5469,911.7052 Q2037.5469,913.8771 2038.3281,914.8771 Q2039.125,915.8614 2040.3594,915.8614 Q2041.2656,915.8614 2041.8594,915.5177 Q2042.4688,915.1739 2042.9844,914.7833 L2044.2813,916.4396 Q2043.5938,917.1114 2042.5938,917.5958 Q2041.6094,918.0646 2040.2031,918.0646 Q2038.5625,918.0646 2037.2969,917.3458 Q2036.0313,916.6114 2035.3125,915.1896 Q2034.5938,913.7677 2034.5938,911.7052 Q2034.5938,909.6739 2035.3281,908.2677 Q2036.0781,906.8458 2037.3594,906.1114 Q2038.6406,905.3771 2040.2344,905.3771 Z " fill="#000000"/><text fill="#000000" font-family="sans-serif" font-size="14" lengthAdjust="spacing" textLength="207" x="2054.5" y="915.5754">ClienteBuilderException</text><line style="stroke:#181818;stroke-width:0.5;" x1="2026.5" x2="2263.5" y1="927.2677" y2="927.2677"/><line style="stroke:#181818;stroke-width:0.5;" x1="2026.5" x2="2263.5" y1="935.2677" y2="935.2677"/></g><!--class ClienteBuilderExceptionTipo--><g id="elem_ClienteBuilderExceptionTipo"><rect codeLine="123" fill="#F1F1F1" height="151.3848" id="ClienteBuilderExceptionTipo" rx="2.5" ry="2.5" style="stroke:#181818;stroke-width:0.5;" width="327" x="2014.5" y="596.7277"/><ellipse cx="2048.85" cy="612.7277" fill="#EB937F" rx="11" ry="11" style="stroke:#181818;stroke-width:1.0;"/><path d="M2047.3344,609.1808 L2047.3344,612.0871 L2051.5219,612.0871 L2051.5219,614.0871 L2047.3344,614.0871 L2047.3344,617.1808 L2052.3813,617.1808 L2052.3813,619.2277 L2044.475,619.2277 L2044.475,607.1496 L2052.3656,607.1496 L2052.0844,609.1808 L2047.3344,609.1808 Z " fill="#000000"/><text fill="#000000" font-family="sans-serif" font-size="14" lengthAdjust="spacing" textLength="252" x="2067.15" y="617.0354">ClienteBuilderException.Tipo</text><line style="stroke:#181818;stroke-width:0.5;" x1="2015.5" x2="2340.5" y1="628.7277" y2="628.7277"/><text fill="#000000" font-family="sans-serif" font-size="14" lengthAdjust="spacing" textLength="243" x="2020.5" y="645.6508">Tipo Cliente NonSpecificato</text><text fill="#000000" font-family="sans-serif" font-size="14" lengthAdjust="spacing" textLength="90" x="2020.5" y="662.8816">Nome Vuoto</text><text fill="#000000" font-family="sans-serif" font-size="14" lengthAdjust="spacing" textLength="126" x="2020.5" y="680.1124">Username Vuoto</text><text fill="#000000" font-family="sans-serif" font-size="14" lengthAdjust="spacing" textLength="126" x="2020.5" y="697.3432">Password Vuota</text><text fill="#000000" font-family="sans-serif" font-size="14" lengthAdjust="spacing" textLength="315" x="2020.5" y="714.574">Codice Fatturazione Non Specificato</text><text fill="#000000" font-family="sans-serif" font-size="14" lengthAdjust="spacing" textLength="189" x="2020.5" y="731.8048">Cliente Gi&#224; Costruito</text><line style="stroke:#181818;stroke-width:0.5;" x1="2015.5" x2="2340.5" y1="740.1125" y2="740.1125"/></g><!--class MainControllerBuilderException--><g id="elem_MainControllerBuilderException"><rect codeLine="134" fill="#F1F1F1" height="48" id="MainControllerBuilderException" rx="2.5" ry="2.5" style="stroke:#181818;stroke-width:0.5;" width="302" x="3357" y="895.2677"/><ellipse cx="3372" cy="911.2677" fill="#ADD1B2" rx="11" ry="11" style="stroke:#181818;stroke-width:1.0;"/><path d="M3371.7344,905.3771 Q3373.0469,905.3771 3373.9531,905.7208 Q3374.8594,906.0646 3375.625,906.6896 L3374.2188,908.3927 Q3373.7188,907.9708 3373.1094,907.7364 Q3372.5156,907.5021 3371.8125,907.5021 Q3371.0469,907.5021 3370.4219,907.9396 Q3369.7969,908.3614 3369.4219,909.2989 Q3369.0469,910.2208 3369.0469,911.7052 Q3369.0469,913.8771 3369.8281,914.8771 Q3370.625,915.8614 3371.8594,915.8614 Q3372.7656,915.8614 3373.3594,915.5177 Q3373.9688,915.1739 3374.4844,914.7833 L3375.7813,916.4396 Q3375.0938,917.1114 3374.0938,917.5958 Q3373.1094,918.0646 3371.7031,918.0646 Q3370.0625,918.0646 3368.7969,917.3458 Q3367.5313,916.6114 3366.8125,915.1896 Q3366.0938,913.7677 3366.0938,911.7052 Q3366.0938,909.6739 3366.8281,908.2677 Q3367.5781,906.8458 3368.8594,906.1114 Q3370.1406,905.3771 3371.7344,905.3771 Z " fill="#000000"/><text fill="#000000" font-family="sans-serif" font-size="14" lengthAdjust="spacing" textLength="270" x="3386" y="915.5754">MainControllerBuilderException</text><line style="stroke:#181818;stroke-width:0.5;" x1="3358" x2="3658" y1="927.2677" y2="927.2677"/><line style="stroke:#181818;stroke-width:0.5;" x1="3358" x2="3658" y1="935.2677" y2="935.2677"/></g><!--class MainControllerBuilderExceptionTipo--><g id="elem_MainControllerBuilderExceptionTipo"><rect codeLine="135" fill="#F1F1F1" height="116.9232" id="MainControllerBuilderExceptionTipo" rx="2.5" ry="2.5" style="stroke:#181818;stroke-width:0.5;" width="347" x="3323.5" y="613.9577"/><ellipse cx="3338.5" cy="629.9577" fill="#EB937F" rx="11" ry="11" style="stroke:#181818;stroke-width:1.0;"/><path d="M3336.9844,626.4108 L3336.9844,629.3171 L3341.1719,629.3171 L3341.1719,631.3171 L3336.9844,631.3171 L3336.9844,634.4108 L3342.0313,634.4108 L3342.0313,636.4577 L3334.125,636.4577 L3334.125,624.3796 L3342.0156,624.3796 L3341.7344,626.4108 L3336.9844,626.4108 Z " fill="#000000"/><text fill="#000000" font-family="sans-serif" font-size="14" lengthAdjust="spacing" textLength="315" x="3352.5" y="634.2654">MainControllerBuilderException.Tipo</text><line style="stroke:#181818;stroke-width:0.5;" x1="3324.5" x2="3669.5" y1="645.9577" y2="645.9577"/><text fill="#000000" font-family="sans-serif" font-size="14" lengthAdjust="spacing" textLength="216" x="3329.5" y="662.8808">ProdottoDAO Non Definito</text><text fill="#000000" font-family="sans-serif" font-size="14" lengthAdjust="spacing" textLength="198" x="3329.5" y="680.1116">UtenteDAO Non Definito</text><text fill="#000000" font-family="sans-serif" font-size="14" lengthAdjust="spacing" textLength="252" x="3329.5" y="697.3424">MainController Gia Costruito</text><text fill="#000000" font-family="sans-serif" font-size="14" lengthAdjust="spacing" textLength="207" x="3329.5" y="714.5732">ClienteDAO Non Definito</text><line style="stroke:#181818;stroke-width:0.5;" x1="3324.5" x2="3669.5" y1="722.8809" y2="722.8809"/></g><!--class Input--><g id="elem_Input"><rect codeLine="147" fill="#F1F1F1" height="151.3848" id="Input" rx="2.5" ry="2.5" style="stroke:#181818;stroke-width:0.5;" width="134" x="3155" y="596.7277"/><ellipse cx="3195.65" cy="612.7277" fill="#ADD1B2" rx="11" ry="11" style="stroke:#181818;stroke-width:1.0;"/><path d="M3195.3844,606.8371 Q3196.6969,606.8371 3197.6031,607.1808 Q3198.5094,607.5246 3199.275,608.1496 L3197.8688,609.8527 Q3197.3688,609.4308 3196.7594,609.1964 Q3196.1656,608.9621 3195.4625,608.9621 Q3194.6969,608.9621 3194.0719,609.3996 Q3193.4469,609.8214 3193.0719,610.7589 Q3192.6969,611.6808 3192.6969,613.1652 Q3192.6969,615.3371 3193.4781,616.3371 Q3194.275,617.3214 3195.5094,617.3214 Q3196.4156,617.3214 3197.0094,616.9777 Q3197.6188,616.6339 3198.1344,616.2433 L3199.4313,617.8996 Q3198.7438,618.5714 3197.7438,619.0558 Q3196.7594,619.5246 3195.3531,619.5246 Q3193.7125,619.5246 3192.4469,618.8058 Q3191.1813,618.0714 3190.4625,616.6496 Q3189.7438,615.2277 3189.7438,613.1652 Q3189.7438,611.1339 3190.4781,609.7277 Q3191.2281,608.3058 3192.5094,607.5714 Q3193.7906,606.8371 3195.3844,606.8371 Z " fill="#000000"/><text fill="#000000" font-family="sans-serif" font-size="14" lengthAdjust="spacing" textLength="45" x="3215.35" y="617.0354">Input</text><line style="stroke:#181818;stroke-width:0.5;" x1="3156" x2="3288" y1="628.7277" y2="628.7277"/><ellipse cx="3166" cy="642.8431" fill="none" rx="3" ry="3" style="stroke:#038048;stroke-width:1.0;"/><text fill="#000000" font-family="sans-serif" font-size="14" lengthAdjust="spacing" textLength="72" x="3175" y="645.6508">next Int</text><ellipse cx="3166" cy="660.0739" fill="none" rx="3" ry="3" style="stroke:#038048;stroke-width:1.0;"/><text fill="#000000" font-family="sans-serif" font-size="14" lengthAdjust="spacing" textLength="81" x="3175" y="662.8816">next Line</text><ellipse cx="3166" cy="677.3047" fill="none" rx="3" ry="3" style="stroke:#038048;stroke-width:1.0;"/><text fill="#000000" font-family="sans-serif" font-size="14" lengthAdjust="spacing" textLength="81" x="3175" y="680.1124">next Long</text><ellipse cx="3166" cy="694.5355" fill="none" rx="3" ry="3" style="stroke:#038048;stroke-width:1.0;"/><text fill="#000000" font-family="sans-serif" font-size="14" lengthAdjust="spacing" textLength="108" x="3175" y="697.3432">next Boolean</text><ellipse cx="3166" cy="711.7663" fill="none" rx="3" ry="3" style="stroke:#038048;stroke-width:1.0;"/><text fill="#000000" font-family="sans-serif" font-size="14" lengthAdjust="spacing" textLength="81" x="3175" y="714.574">next Date</text><ellipse cx="3166" cy="728.9971" fill="none" rx="3" ry="3" style="stroke:#038048;stroke-width:1.0;"/><text fill="#000000" font-family="sans-serif" font-size="14" lengthAdjust="spacing" textLength="90" x="3175" y="731.8048">next Float</text><line style="stroke:#181818;stroke-width:0.5;" x1="3156" x2="3288" y1="740.1125" y2="740.1125"/></g><!--class None--><g id="elem_None"><rect codeLine="156" fill="#F1F1F1" height="48" id="None" rx="2.5" ry="2.5" style="stroke:#181818;stroke-width:0.5;" width="68" x="2997" y="895.2677"/><ellipse cx="3012" cy="911.2677" fill="#ADD1B2" rx="11" ry="11" style="stroke:#181818;stroke-width:1.0;"/><path d="M3011.7344,905.3771 Q3013.0469,905.3771 3013.9531,905.7208 Q3014.8594,906.0646 3015.625,906.6896 L3014.2188,908.3927 Q3013.7188,907.9708 3013.1094,907.7364 Q3012.5156,907.5021 3011.8125,907.5021 Q3011.0469,907.5021 3010.4219,907.9396 Q3009.7969,908.3614 3009.4219,909.2989 Q3009.0469,910.2208 3009.0469,911.7052 Q3009.0469,913.8771 3009.8281,914.8771 Q3010.625,915.8614 3011.8594,915.8614 Q3012.7656,915.8614 3013.3594,915.5177 Q3013.9688,915.1739 3014.4844,914.7833 L3015.7813,916.4396 Q3015.0938,917.1114 3014.0938,917.5958 Q3013.1094,918.0646 3011.7031,918.0646 Q3010.0625,918.0646 3008.7969,917.3458 Q3007.5313,916.6114 3006.8125,915.1896 Q3006.0938,913.7677 3006.0938,911.7052 Q3006.0938,909.6739 3006.8281,908.2677 Q3007.5781,906.8458 3008.8594,906.1114 Q3010.1406,905.3771 3011.7344,905.3771 Z " fill="#000000"/><text fill="#000000" font-family="sans-serif" font-size="14" lengthAdjust="spacing" textLength="36" x="3026" y="915.5754">None</text><line style="stroke:#181818;stroke-width:0.5;" x1="2998" x2="3064" y1="927.2677" y2="927.2677"/><line style="stroke:#181818;stroke-width:0.5;" x1="2998" x2="3064" y1="935.2677" y2="935.2677"/></g><!--class ClienteDAO--><g id="elem_ClienteDAO"><rect codeLine="160" fill="#F1F1F1" height="48" id="ClienteDAO" rx="2.5" ry="2.5" style="stroke:#181818;stroke-width:0.5;" width="131" x="752.5" y="1089.1877"/><ellipse cx="767.5" cy="1105.1877" fill="#B4A7E5" rx="11" ry="11" style="stroke:#181818;stroke-width:1.0;"/><path d="M771.6563,1099.6096 L771.6563,1101.7033 L769.1563,1101.7033 L769.1563,1109.5939 L771.6563,1109.5939 L771.6563,1111.6877 L763.8125,1111.6877 L763.8125,1109.5939 L766.2969,1109.5939 L766.2969,1101.7033 L763.8125,1101.7033 L763.8125,1099.6096 L771.6563,1099.6096 Z " fill="#000000"/><text fill="#000000" font-family="sans-serif" font-size="14" font-style="italic" lengthAdjust="spacing" textLength="99" x="781.5" y="1109.4954">Cliente DAO</text><line style="stroke:#181818;stroke-width:0.5;" x1="753.5" x2="882.5" y1="1121.1877" y2="1121.1877"/><line style="stroke:#181818;stroke-width:0.5;" x1="753.5" x2="882.5" y1="1129.1877" y2="1129.1877"/></g><!--class ProdottoDAO--><g id="elem_ProdottoDAO"><rect codeLine="162" fill="#F1F1F1" height="48" id="ProdottoDAO" rx="2.5" ry="2.5" style="stroke:#181818;stroke-width:0.5;" width="140" x="421" y="1089.1877"/><ellipse cx="436" cy="1105.1877" fill="#B4A7E5" rx="11" ry="11" style="stroke:#181818;stroke-width:1.0;"/><path d="M440.1563,1099.6096 L440.1563,1101.7033 L437.6563,1101.7033 L437.6563,1109.5939 L440.1563,1109.5939 L440.1563,1111.6877 L432.3125,1111.6877 L432.3125,1109.5939 L434.7969,1109.5939 L434.7969,1101.7033 L432.3125,1101.7033 L432.3125,1099.6096 L440.1563,1099.6096 Z " fill="#000000"/><text fill="#000000" font-family="sans-serif" font-size="14" font-style="italic" lengthAdjust="spacing" textLength="108" x="450" y="1109.4954">Prodotto DAO</text><line style="stroke:#181818;stroke-width:0.5;" x1="422" x2="560" y1="1121.1877" y2="1121.1877"/><line style="stroke:#181818;stroke-width:0.5;" x1="422" x2="560" y1="1129.1877" y2="1129.1877"/></g><!--class UtenteDAO--><g id="elem_UtenteDAO"><rect codeLine="164" fill="#F1F1F1" height="48" id="UtenteDAO" rx="2.5" ry="2.5" style="stroke:#181818;stroke-width:0.5;" width="122" x="596" y="1089.1877"/><ellipse cx="611" cy="1105.1877" fill="#B4A7E5" rx="11" ry="11" style="stroke:#181818;stroke-width:1.0;"/><path d="M615.1563,1099.6096 L615.1563,1101.7033 L612.6563,1101.7033 L612.6563,1109.5939 L615.1563,1109.5939 L615.1563,1111.6877 L607.3125,1111.6877 L607.3125,1109.5939 L609.7969,1109.5939 L609.7969,1101.7033 L607.3125,1101.7033 L607.3125,1099.6096 L615.1563,1099.6096 Z " fill="#000000"/><text fill="#000000" font-family="sans-serif" font-size="14" font-style="italic" lengthAdjust="spacing" textLength="90" x="625" y="1109.4954">Utente DAO</text><line style="stroke:#181818;stroke-width:0.5;" x1="597" x2="717" y1="1121.1877" y2="1121.1877"/><line style="stroke:#181818;stroke-width:0.5;" x1="597" x2="717" y1="1129.1877" y2="1129.1877"/></g><!--class SqlDaoImpl--><g id="elem_SqlDaoImpl"><rect codeLine="167" fill="#F1F1F1" height="48" id="SqlDaoImpl" rx="2.5" ry="2.5" style="stroke:#181818;stroke-width:0.5;" width="230" x="453" y="895.2677"/><ellipse cx="468" cy="911.2677" fill="#ADD1B2" rx="11" ry="11" style="stroke:#181818;stroke-width:1.0;"/><path d="M467.7344,905.3771 Q469.0469,905.3771 469.9531,905.7208 Q470.8594,906.0646 471.625,906.6896 L470.2188,908.3927 Q469.7188,907.9708 469.1094,907.7364 Q468.5156,907.5021 467.8125,907.5021 Q467.0469,907.5021 466.4219,907.9396 Q465.7969,908.3614 465.4219,909.2989 Q465.0469,910.2208 465.0469,911.7052 Q465.0469,913.8771 465.8281,914.8771 Q466.625,915.8614 467.8594,915.8614 Q468.7656,915.8614 469.3594,915.5177 Q469.9688,915.1739 470.4844,914.7833 L471.7813,916.4396 Q471.0938,917.1114 470.0938,917.5958 Q469.1094,918.0646 467.7031,918.0646 Q466.0625,918.0646 464.7969,917.3458 Q463.5313,916.6114 462.8125,915.1896 Q462.0938,913.7677 462.0938,911.7052 Q462.0938,909.6739 462.8281,908.2677 Q463.5781,906.8458 464.8594,906.1114 Q466.1406,905.3771 467.7344,905.3771 Z " fill="#000000"/><text fill="#000000" font-family="sans-serif" font-size="14" lengthAdjust="spacing" textLength="198" x="482" y="915.5754">SQL DAO Implementation</text><line style="stroke:#181818;stroke-width:0.5;" x1="454" x2="682" y1="927.2677" y2="927.2677"/><line style="stroke:#181818;stroke-width:0.5;" x1="454" x2="682" y1="935.2677" y2="935.2677"/></g><!--link ClienteBuilder to Cliente--><g id="link_ClienteBuilder_Cliente"><path codeLine="28" d="M1811.92,774.4277 C1809.58,800.5077 1807.12,827.9277 1804.98,851.7577 " fill="none" id="ClienteBuilder-Cliente" style="stroke:#181818;stroke-width:1.0;"/></g><!--reverse link Utente to Cliente--><g id="link_Utente_Cliente"><path codeLine="51" d="M1496.04,717.2477 C1552.43,754.6577 1634.39,809.0477 1698.85,851.8177 " fill="none" id="Utente-backto-Cliente" style="stroke:#181818;stroke-width:1.0;"/><polygon fill="#181818" points="1492.35,714.1277,1497.6395,722.4356,1496.5168,716.8913,1502.0612,715.7687,1492.35,714.1277" style="stroke:#181818;stroke-width:1.0;"/></g><!--reverse link Utente to Impiegato--><g id="link_Utente_Impiegato"><path codeLine="52" d="M1409.49,719.4877 C1390.51,762.1377 1362.36,825.3777 1342.93,869.0177 " fill="none" id="Utente-backto-Impiegato" style="stroke:#181818;stroke-width:1.0;"/><polygon fill="#181818" points="1411.88,715.1277,1404.5657,721.7232,1409.8467,719.6956,1411.8743,724.9766,1411.88,715.1277" style="stroke:#181818;stroke-width:1.0;"/></g><!--link Utente to Fattorino--><g id="link_Utente_Fattorino"><path codeLine="53" d="M1449.78,714.1277 C1474.9,765.7977 1517.39,853.2177 1537.62,894.8677 " fill="none" id="Utente-Fattorino" style="stroke:#181818;stroke-width:1.0;"/></g><!--link Prodotto to CategoriaProdotto--><g id="link_Prodotto_CategoriaProdotto"><path codeLine="55" d="M1044,1003.8877 C1044,1025.3577 1044,1047.6677 1044,1066.4077 " fill="none" id="Prodotto-to-CategoriaProdotto" style="stroke:#181818;stroke-width:1.0;"/><polygon fill="none" points="1044,1079.2877,1048,1073.2877,1044,1067.2877,1040,1073.2877,1044,1079.2877" style="stroke:#181818;stroke-width:1.0;"/><text fill="#000000" font-family="sans-serif" font-size="13" lengthAdjust="spacing" textLength="72" x="1045" y="1046.5777">categoria</text></g><!--link Prodotto to Fattura--><g id="link_Prodotto_Fattura"><path codeLine="56" d="M1149.46,995.6477 C1155.27,998.5477 1161.14,1001.2177 1167,1003.5777 C1363.3,1082.6077 1616.5,1104.1577 1733.9,1110.0177 " fill="none" id="Prodotto-to-Fattura" style="stroke:#181818;stroke-width:1.0;"/><polygon fill="none" points="1746.87,1110.6677,1741.061,1106.395,1734.8828,1110.1138,1740.6918,1114.3865,1746.87,1110.6677" style="stroke:#181818;stroke-width:1.0;"/><text fill="#000000" font-family="sans-serif" font-size="13" lengthAdjust="spacing" textLength="112" x="1300" y="1046.5777">codice fattura</text></g><!--link Cliente to Fattura--><g id="link_Cliente_Fattura"><path codeLine="58" d="M1799,986.5877 C1799,1012.9977 1799,1042.7377 1799,1066.6477 " fill="none" id="Cliente-to-Fattura" style="stroke:#181818;stroke-width:1.0;"/><polygon fill="none" points="1799,1079.3377,1803,1073.3377,1799,1067.3377,1795,1073.3377,1799,1079.3377" style="stroke:#181818;stroke-width:1.0;"/><text fill="#000000" font-family="sans-serif" font-size="13" lengthAdjust="spacing" textLength="72" x="1800" y="1046.5777">categoria</text></g><!--reverse link BuondaryImpiegato to LoginBoundary--><g id="link_BuondaryImpiegato_LoginBoundary"><path codeLine="78" d="M813.91,114.8577 C781.61,132.0777 743.96,152.1577 713.2,168.5577 " fill="none" id="BuondaryImpiegato-backto-LoginBoundary" style="stroke:#181818;stroke-width:1.0;"/><polygon fill="#181818" points="825,108.4177,817.823,107.7169,814.4158,114.0723,821.5928,114.7731,825,108.4177" style="stroke:#181818;stroke-width:1.0;"/></g><!--reverse link BoundaryGestore to LoginBoundary--><g id="link_BoundaryGestore_LoginBoundary"><path codeLine="79" d="M504.63,115.3177 C534.39,132.4377 568.93,152.2977 597.19,168.5577 " fill="none" id="BoundaryGestore-backto-LoginBoundary" style="stroke:#181818;stroke-width:1.0;"/><polygon fill="#181818" points="493.63,108.4177,496.8417,114.8741,504.0367,114.3927,500.825,107.9363,493.63,108.4177" style="stroke:#181818;stroke-width:1.0;"/></g><!--reverse link BoundaryFattorino to LoginBoundary--><g id="link_BoundaryFattorino_LoginBoundary"><path codeLine="80" d="M655.53,122.1177 C655.03,137.6177 654.48,154.5777 654.03,168.7677 " fill="none" id="BoundaryFattorino-backto-LoginBoundary" style="stroke:#181818;stroke-width:1.0;"/><polygon fill="#181818" points="655.97,109.4177,651.7745,115.2826,655.5746,121.4112,659.7701,115.5462,655.97,109.4177" style="stroke:#181818;stroke-width:1.0;"/></g><!--link MainControllerBuilder to MainController--><g id="link_MainControllerBuilder_MainController"><path codeLine="102" d="M724.36,488.2777 C708.76,522.9677 690.8,562.9077 675.64,596.6077 " fill="none" id="MainControllerBuilder-MainController" style="stroke:#181818;stroke-width:1.0;"/></g><!--reverse link ClienteBuilderExceptionTipo to ClienteBuilderException--><g id="link_ClienteBuilderExceptionTipo_ClienteBuilderException"><path codeLine="131" d="M2166.01,762.3477 C2159.62,809.7677 2152.25,864.4477 2148.16,894.8177 " fill="none" id="ClienteBuilderExceptionTipo-backto-ClienteBuilderException" style="stroke:#181818;stroke-width:1.0;"/><polygon fill="#181818" points="2167.87,749.5477,2163.1078,754.9626,2166.2745,761.4412,2171.0368,756.0263,2167.87,749.5477" style="stroke:#181818;stroke-width:1.0;"/></g><!--link ClienteBuilderException to ClienteBuilder--><g id="link_ClienteBuilderException_ClienteBuilder"><path codeLine="132" d="M2113.95,894.8077 C2073.6,864.3177 2000.87,809.3477 1937.97,761.8177 " fill="none" id="ClienteBuilderException-ClienteBuilder" style="stroke:#181818;stroke-width:1.0;"/></g><!--reverse link MainControllerBuilderExceptionTipo to MainControllerBuilderException--><g id="link_MainControllerBuilderExceptionTipo_MainControllerBuilderException"><path codeLine="141" d="M3500.22,745.0377 C3502.5,795.7877 3505.41,860.6877 3506.95,894.8377 " fill="none" id="MainControllerBuilderExceptionTipo-backto-MainControllerBuilderException" style="stroke:#181818;stroke-width:1.0;"/><polygon fill="#181818" points="3499.59,732.1377,3495.8644,738.3118,3500.1307,744.1255,3503.8563,737.9514,3499.59,732.1377" style="stroke:#181818;stroke-width:1.0;"/></g><!--link MainControllerBuilderException to MainControllerBuilder--><g id="link_MainControllerBuilderException_MainControllerBuilder"><path codeLine="142" d="M3556.98,894.9677 C3600.43,871.2877 3661.05,830.1077 3688,773.9577 C3735.52,674.9577 3764.01,606.1377 3688,526.8877 C3589.46,424.1377 1423.15,407.5577 883.11,405.0177 " fill="none" id="MainControllerBuilderException-MainControllerBuilder" style="stroke:#181818;stroke-width:1.0;"/></g><!--link NoOpFattureManager to FattureManager--><g id="link_NoOpFattureManager_FattureManager"><path codeLine="144" d="M2731.54,696.8977 C2664.83,743.6977 2515.99,848.1177 2449.36,894.8677 " fill="none" id="NoOpFattureManager-FattureManager" style="stroke:#181818;stroke-width:1.0;"/></g><!--link FileFattureManager to FattureManager--><g id="link_FileFattureManager_FattureManager"><path codeLine="145" d="M2475.67,696.8977 C2463.55,741.8677 2437.08,840.0477 2423.86,889.1277 " fill="none" id="FileFattureManager-to-FattureManager" style="stroke:#181818;stroke-width:1.0;"/><polygon fill="#181818" points="2422.31,893.8677,2428.5122,886.2171,2423.6099,889.0396,2420.7873,884.1373,2422.31,893.8677" style="stroke:#181818;stroke-width:1.0;"/></g><!--link SqlDaoImpl to ClienteDAO--><g id="link_SqlDaoImpl_ClienteDAO"><path codeLine="169" d="M598.16,943.4177 C644.71,979.1577 733.82,1047.5677 783.1,1085.3977 " fill="none" id="SqlDaoImpl-to-ClienteDAO" style="stroke:#181818;stroke-width:1.0;"/><polygon fill="#181818" points="786.74,1088.9577,782.0287,1080.3088,782.771,1085.9167,777.1631,1086.6591,786.74,1088.9577" style="stroke:#181818;stroke-width:1.0;"/></g><!--link SqlDaoImpl to ProdottoDAO--><g id="link_SqlDaoImpl_ProdottoDAO"><path codeLine="170" d="M558.71,943.4177 C544.61,978.5777 517.81,1045.3777 502.49,1083.5477 " fill="none" id="SqlDaoImpl-to-ProdottoDAO" style="stroke:#181818;stroke-width:1.0;"/><polygon fill="#181818" points="500.32,1087.9577,507.3764,1081.087,502.177,1083.3153,499.9486,1078.1158,500.32,1087.9577" style="stroke:#181818;stroke-width:1.0;"/></g><!--link SqlDaoImpl to UtenteDAO--><g id="link_SqlDaoImpl_UtenteDAO"><path codeLine="171" d="M578.74,943.4177 C595.04,978.5777 626.01,1045.3777 643.71,1083.5477 " fill="none" id="SqlDaoImpl-to-UtenteDAO" style="stroke:#181818;stroke-width:1.0;"/><polygon fill="#181818" points="646.23,1087.9577,646.0726,1078.1101,644.1265,1083.4217,638.815,1081.4756,646.23,1087.9577" style="stroke:#181818;stroke-width:1.0;"/></g><!--link LoginBoundary to MainController--><g id="link_LoginBoundary_MainController"><path codeLine="174" d="M637.14,234.7477 C631.85,247.0977 626.64,261.5377 624,275.2677 C603.94,379.6077 614.6,502.1077 626.24,582.9577 " fill="none" id="LoginBoundary-to-MainController" style="stroke:#181818;stroke-width:1.0;stroke-dasharray:7.0,7.0;"/><polygon fill="none" points="628.27,595.5677,631.3428,589.0441,626.5028,583.6985,623.43,590.2222,628.27,595.5677" style="stroke:#181818;stroke-width:1.0;"/></g><!--link BoundaryBackgroundScheduler to MainController--><g id="link_BoundaryBackgroundScheduler_MainController"><path codeLine="175" d="M187.37,108.3177 C231.18,179.4377 342.81,355.1977 455,487.8877 C483.76,521.8977 517.87,556.7377 549.03,586.7977 " fill="none" id="BoundaryBackgroundScheduler-to-MainController" style="stroke:#181818;stroke-width:1.0;stroke-dasharray:7.0,7.0;"/><polygon fill="none" points="558.04,595.3777,556.4778,588.3378,549.3786,587.0723,550.9408,594.1121,558.04,595.3777" style="stroke:#181818;stroke-width:1.0;"/></g><!--link BoundaryGestore to MainController--><g id="link_BoundaryGestore_MainController"><path codeLine="176" d="M439.64,108.2977 C446.35,179.0177 467.63,353.4277 523,487.8877 C536.79,521.3677 556.81,555.3677 576.51,584.8577 " fill="none" id="BoundaryGestore-to-MainController" style="stroke:#181818;stroke-width:1.0;stroke-dasharray:7.0,7.0;"/><polygon fill="none" points="584.33,595.3477,584.2597,588.1369,577.5765,585.4285,577.6469,592.6393,584.33,595.3477" style="stroke:#181818;stroke-width:1.0;"/></g><!--link BoundaryFattorino to MainController--><g id="link_BoundaryFattorino_MainController"><path codeLine="177" d="M607.48,108.5277 C587.89,124.1777 567.56,144.8577 557,169.0377 C497.26,305.7977 553.18,480.4977 598.26,583.7377 " fill="none" id="BoundaryFattorino-to-MainController" style="stroke:#181818;stroke-width:1.0;stroke-dasharray:7.0,7.0;"/><polygon fill="none" points="603.83,595.2677,605.0468,588.16,598.9539,584.303,597.7371,591.4107,603.83,595.2677" style="stroke:#181818;stroke-width:1.0;"/></g><!--link MainController to FattureManager--><g id="link_MainController_FattureManager"><path codeLine="179" d="M723.82,748.4477 C738.92,758.7377 755.24,767.8577 772,773.9577 C1087.55,888.9077 1961,736.2677 2282,834.9577 C2316.85,845.6777 2351.69,867.7777 2377.11,886.5177 " fill="none" id="MainController-to-FattureManager" style="stroke:#181818;stroke-width:1.0;"/><polygon fill="none" points="2387.09,894.8377,2384.7169,888.0283,2377.5186,887.5998,2379.8916,894.4092,2387.09,894.8377" style="stroke:#181818;stroke-width:1.0;"/></g><!--link MainController to ClienteDAO--><g id="link_MainController_ClienteDAO"><path codeLine="181" d="M689.13,748.5477 C699.55,766.4077 710.11,785.6077 719,803.9577 C764.28,897.4177 795.77,1016.5377 809.79,1075.5877 " fill="none" id="MainController-to-ClienteDAO" style="stroke:#181818;stroke-width:1.0;"/><polygon fill="none" points="812.9,1087.9177,815.4373,1081.1677,810.1824,1076.2295,807.6451,1082.9794,812.9,1087.9177" style="stroke:#181818;stroke-width:1.0;"/></g><!--link MainController to ProdottoDAO--><g id="link_MainController_ProdottoDAO"><path codeLine="182" d="M529.53,733.5877 C492.75,759.4977 456.19,793.4777 436,834.9577 C403.21,902.3477 418.6,930.6877 436,1003.5777 C442.22,1029.6277 455.76,1056.4977 467.84,1076.9977 " fill="none" id="MainController-to-ProdottoDAO" style="stroke:#181818;stroke-width:1.0;"/><polygon fill="none" points="475.1,1087.8677,475.3859,1080.6623,468.8447,1077.627,468.5588,1084.8324,475.1,1087.8677" style="stroke:#181818;stroke-width:1.0;"/></g><!--link MainController to UtenteDAO--><g id="link_MainController_UtenteDAO"><path codeLine="183" d="M674.98,748.3777 C685.12,775.1577 694.94,805.8977 700,834.9577 C712.85,908.7877 714.04,929.9677 700,1003.5777 C695.2,1028.7477 684.67,1055.5177 675.23,1076.1877 " fill="none" id="MainController-to-UtenteDAO" style="stroke:#181818;stroke-width:1.0;"/><polygon fill="none" points="669.25,1087.8177,675.4304,1084.1024,674.378,1076.9686,668.1976,1080.6838,669.25,1087.8177" style="stroke:#181818;stroke-width:1.0;"/></g><!--link Cliente to ClienteDAO--><g id="link_Cliente_ClienteDAO"><path codeLine="185" d="M1673.82,986.6877 C1657.1,993.4177 1639.88,999.3277 1623,1003.5777 C1369.67,1067.3377 1292.1,982.0377 1036,1033.5777 C977.03,1045.4477 912.59,1070.2577 869.18,1088.8577 " fill="none" id="Cliente-ClienteDAO" style="stroke:#181818;stroke-width:1.0;"/></g><!--link Prodotto to ProdottoDAO--><g id="link_Prodotto_ProdottoDAO"><path codeLine="186" d="M938.83,985.2677 C925.69,992.0177 912.22,998.3177 899,1003.5777 C763.09,1057.6777 719.15,1038.6777 579,1080.5777 C570.76,1083.0377 562.15,1085.8377 553.7,1088.7277 " fill="none" id="Prodotto-ProdottoDAO" style="stroke:#181818;stroke-width:1.0;"/></g><!--link Utente to UtenteDAO--><g id="link_Utente_UtenteDAO"><path codeLine="187" d="M1387.59,714.0277 C1363.02,735.2377 1330.4,759.6777 1297,773.9577 C1141.34,840.5177 1070.75,755.9877 921,834.9577 C917.14,836.9977 741.96,1022.2477 679.13,1088.7577 " fill="none" id="Utente-UtenteDAO" style="stroke:#181818;stroke-width:1.0;"/></g><!--link Fattura to FattureManager--><g id="link_Fattura_FattureManager"><path codeLine="188" d="M1850.4,1106.3777 C1940.56,1094.9277 2131.88,1065.0577 2282,1003.5777 C2319.77,988.1077 2358.97,962.4277 2385.14,943.6577 " fill="none" id="Fattura-FattureManager" style="stroke:#181818;stroke-width:1.0;"/></g><!--SRC=[bLVDRjms43vdduBmCSRw0OmWG6sl3GFkskd6lTCILnv4or4eoarTv5rwxBclu1Vha2B5FwsIxi69lldH_C-euzKNtWYsaHhqd-ol5QDVrVA-PvTSYmOLy0U5DMgDZcf-lLOW6oRn82pstVxbJuJpIhD7BQGM9V_G2oMvaudmZjxt1wewqkLiQ27Jz1awP9h-ED9Hao8CP0qANbyn9uW3XpO7AwoX4coGy88LiZtNUb3y5L1wNoC3JvmPPnS3jBLG9unFLZieClwKoG5VC7gkK5gNCcWRUp52juKJ8xv9V1Ynoz65wzpqmF6OPsA47-94U9ZYCa1VGPITpCFrsYDnR6uF7OY6BnQE-JqXjgmRtlvbIZHWIaW9Kc7qmJ8Jk3T0KJZ6TQfTIU_EOOf8P118xJ9Uw9Yf-umxygWMVKNfIKAzRv5hrYb1MMEyPL-Qd2Hw99qnmVhvzW-fDO5x4R8UD1wXAYeSPVutqNUkdyWOWbLIi1AfaJHs3FV1jNDssx87pnvKWwpQOJJEyuvQN6j_Y5AUmLFQOmBXKqf6HPC9wpNEp9fpLdciPFTfFFVDwffq5HTdpZcfetXqRknTu21hhjB1TpAX5yJMAFF4TjMpg8VMTRZd20mJFMbtX_AYji8xfd2DYWUqy5pldB9VESW5LJUYDrbCB7JO_r4p9IfH57NK3rNTOKE5uoMj6WjbuIvKs7_A4BodwadaHxxCmsMkO7x95nN49Kgji0rv73qoDXQaqVnkB4nWDVGTIdY25YAosEy5bI1dhNbbHF1Zp2l0ELgLBRbJrWWfYA24QVqIfvaeNu2xXfXRMAahoTvAIUNw6fVNktVZhg0ODa9DZxv1htwvdx2n-MF4zMOCZIqgwEsI1uL-wR0Dsz43w7m5pHjBkKq9qUnJq3nhC_rIZdEsevdP2eqoheH7JOcSJY8Q_4BjEOsQaynU6pc7ESZ992snHNRVKOOqb2vR5Lkyxr8rCrgkeHMpqePmn8XO_ZVeXzOC-0-VFrgv2KXg-fap_a9xX_L3LOc-nwJGT93Ay8rIVkduu-4Wo6_ZD6zBUz8pOlEj4fRLxsmXXyDqOULCP-PicZct9WPxAMQ7eryDMvIxJbIm1xFugEJCmSL-7z0- -EDe0lnPP05EmCo1PNIoLAb_smsy_KsJnPQqYzdS6PLQ_Zvis9o-9CiAiTNHEROSzsNU4FvbFfS5Yc6O3pPKLs8F4iPu-p6H4xAnUqE3BOHnYcyX-8CXKSPvcUqdDB5ZIiRWbxtj3wA0MCQPDbwlF-QSyOqjkq6dNnZYcoPOvz0T91y18uQooR4BEZ45bpbynNKXVcsEsBAhjwORg9IYOMfIL0nItnv4ZFiuy7xF9QOZq8l4HNL4nXsWNYBKsjnyt7swixRIxT6A0t7QUMq5Tr_RAuw6aBmfWascelqsGurtv0mvh4koAZsOrcTqp6QRRUa8NUBt1zCIJpYNvhXMMME6IplKQC6onZWwS-GuF7Fq49zLkF5ZfT57Gg8iV8G45VxBe6Z4_m00]--></g></svg>