<?xml version="1.0" encoding="us-ascii" standalone="no"?><svg xmlns="http://www.w3.org/2000/svg" xmlns:xlink="http://www.w3.org/1999/xlink" contentStyleType="text/css" height="1250px" preserveAspectRatio="none" style="width:1513px;height:1250px;background:#FFFFFF;" version="1.1" viewBox="0 0 1513 1250" width="1513px" zoomAndPan="magnify"><defs/><g><text fill="#000000" font-family="sans-serif" font-size="14" font-weight="bold" lengthAdjust="spacing" textLength="189" x="658.25" y="27.9231">Registrazione Cliente</text><rect fill="#FFFFFF" height="285.7691" style="stroke:#181818;stroke-width:1.0;" width="10" x="1462" y="874.4612"/><rect fill="none" height="233.9999" style="stroke:#000000;stroke-width:1.5;" width="1418.5" x="14" y="241.4615"/><rect fill="none" height="113.9999" style="stroke:#000000;stroke-width:1.5;" width="407" x="25" y="489.4614"/><rect fill="none" height="113.9999" style="stroke:#000000;stroke-width:1.5;" width="422" x="10" y="677.4613"/><rect fill="none" height="213.5383" style="stroke:#000000;stroke-width:1.5;" width="1391.5" x="41" y="938.692"/><line style="stroke:#181818;stroke-width:0.5;stroke-dasharray:5.0,5.0;" x1="94" x2="94" y1="120.4616" y2="1169.2303"/><line style="stroke:#181818;stroke-width:0.5;stroke-dasharray:5.0,5.0;" x1="342" x2="342" y1="120.4616" y2="1169.2303"/><line style="stroke:#181818;stroke-width:0.5;stroke-dasharray:5.0,5.0;" x1="862.5" x2="862.5" y1="120.4616" y2="1169.2303"/><line style="stroke:#181818;stroke-width:0.5;stroke-dasharray:5.0,5.0;" x1="1374.5" x2="1374.5" y1="120.4616" y2="1169.2303"/><line style="stroke:#181818;stroke-width:0.5;stroke-dasharray:5.0,5.0;" x1="1466.5" x2="1466.5" y1="898.0766" y2="1169.2303"/><text fill="#000000" font-family="sans-serif" font-size="14" lengthAdjust="spacing" textLength="81" x="51" y="116.1539">Impiegato</text><ellipse cx="94.5" cy="51.7308" fill="#E2E2F0" rx="8" ry="8" style="stroke:#181818;stroke-width:0.5;"/><path d="M94.5,59.7308 L94.5,86.7308 M81.5,67.7308 L107.5,67.7308 M94.5,86.7308 L81.5,101.7308 M94.5,86.7308 L107.5,101.7308 " fill="none" style="stroke:#181818;stroke-width:0.5;"/><text fill="#000000" font-family="sans-serif" font-size="14" lengthAdjust="spacing" textLength="81" x="51" y="1181.1534">Impiegato</text><ellipse cx="94.5" cy="1193.9611" fill="#E2E2F0" rx="8" ry="8" style="stroke:#181818;stroke-width:0.5;"/><path d="M94.5,1201.9611 L94.5,1228.9611 M81.5,1209.9611 L107.5,1209.9611 M94.5,1228.9611 L81.5,1243.9611 M94.5,1228.9611 L107.5,1243.9611 " fill="none" style="stroke:#181818;stroke-width:0.5;"/><text fill="#000000" font-family="sans-serif" font-size="14" lengthAdjust="spacing" textLength="153" x="263" y="116.1539">ImpiegatoBoundary</text><path d="M322,75.2308 L322,99.2308 M322,87.2308 L339,87.2308 " fill="none" style="stroke:#181818;stroke-width:0.5;"/><ellipse cx="351" cy="87.2308" fill="#E2E2F0" rx="12" ry="12" style="stroke:#181818;stroke-width:0.5;"/><text fill="#000000" font-family="sans-serif" font-size="14" lengthAdjust="spacing" textLength="153" x="263" y="1181.1534">ImpiegatoBoundary</text><path d="M322,1189.4611 L322,1213.4611 M322,1201.4611 L339,1201.4611 " fill="none" style="stroke:#181818;stroke-width:0.5;"/><ellipse cx="351" cy="1201.4611" fill="#E2E2F0" rx="12" ry="12" style="stroke:#181818;stroke-width:0.5;"/><text fill="#000000" font-family="sans-serif" font-size="14" lengthAdjust="spacing" textLength="126" x="796.5" y="116.1539">MainController</text><ellipse cx="862.5" cy="87.2308" fill="#E2E2F0" rx="12" ry="12" style="stroke:#181818;stroke-width:0.5;"/><polygon fill="#181818" points="858.5,75.2308,864.5,70.2308,862.5,75.2308,864.5,80.2308,858.5,75.2308" style="stroke:#181818;stroke-width:1.0;"/><text fill="#000000" font-family="sans-serif" font-size="14" lengthAdjust="spacing" textLength="126" x="796.5" y="1181.1534">MainController</text><ellipse cx="862.5" cy="1201.4611" fill="#E2E2F0" rx="12" ry="12" style="stroke:#181818;stroke-width:0.5;"/><polygon fill="#181818" points="858.5,1189.4611,864.5,1184.4611,862.5,1189.4611,864.5,1194.4611,858.5,1189.4611" style="stroke:#181818;stroke-width:1.0;"/><text fill="#000000" font-family="sans-serif" font-size="14" lengthAdjust="spacing" textLength="90" x="1326.5" y="116.1539">ClienteDAO</text><path d="M1356.5,67.2308 C1356.5,57.2308 1374.5,57.2308 1374.5,57.2308 C1374.5,57.2308 1392.5,57.2308 1392.5,67.2308 L1392.5,93.2308 C1392.5,103.2308 1374.5,103.2308 1374.5,103.2308 C1374.5,103.2308 1356.5,103.2308 1356.5,93.2308 L1356.5,67.2308 " fill="#E2E2F0" style="stroke:#181818;stroke-width:1.5;"/><path d="M1356.5,67.2308 C1356.5,77.2308 1374.5,77.2308 1374.5,77.2308 C1374.5,77.2308 1392.5,77.2308 1392.5,67.2308 " fill="none" style="stroke:#181818;stroke-width:1.5;"/><text fill="#000000" font-family="sans-serif" font-size="14" lengthAdjust="spacing" textLength="90" x="1326.5" y="1181.1534">ClienteDAO</text><path d="M1356.5,1195.4611 C1356.5,1185.4611 1374.5,1185.4611 1374.5,1185.4611 C1374.5,1185.4611 1392.5,1185.4611 1392.5,1195.4611 L1392.5,1221.4611 C1392.5,1231.4611 1374.5,1231.4611 1374.5,1231.4611 C1374.5,1231.4611 1356.5,1231.4611 1356.5,1221.4611 L1356.5,1195.4611 " fill="#E2E2F0" style="stroke:#181818;stroke-width:1.5;"/><path d="M1356.5,1195.4611 C1356.5,1205.4611 1374.5,1205.4611 1374.5,1205.4611 C1374.5,1205.4611 1392.5,1205.4611 1392.5,1195.4611 " fill="none" style="stroke:#181818;stroke-width:1.5;"/><text fill="#000000" font-family="sans-serif" font-size="14" lengthAdjust="spacing" textLength="63" x="1432.5" y="1181.1534">Cliente</text><ellipse cx="1467" cy="1201.4611" fill="#E2E2F0" rx="12" ry="12" style="stroke:#181818;stroke-width:0.5;"/><line style="stroke:#181818;stroke-width:0.5;" x1="1455" x2="1479" y1="1215.4611" y2="1215.4611"/><rect fill="#FFFFFF" height="285.7691" style="stroke:#181818;stroke-width:1.0;" width="10" x="1462" y="874.4612"/><rect fill="#EEEEEE" height="3" style="stroke:#EEEEEE;stroke-width:1.0;" width="1506.5" x="0" y="151.4616"/><line style="stroke:#000000;stroke-width:1.0;" x1="0" x2="1506.5" y1="151.4616" y2="151.4616"/><line style="stroke:#000000;stroke-width:1.0;" x1="0" x2="1506.5" y1="154.4616" y2="154.4616"/><rect fill="#EEEEEE" height="24" style="stroke:#000000;stroke-width:2.0;" width="278" x="614.25" y="140.4616"/><text fill="#000000" font-family="sans-serif" font-size="13" font-weight="bold" lengthAdjust="spacing" textLength="256" x="620.25" y="156.4616">L'utente arriva da LoginBoundary</text><polygon fill="#181818" points="105.5,192.4616,95.5,196.4616,105.5,200.4616,101.5,196.4616" style="stroke:#181818;stroke-width:1.0;"/><line style="stroke:#181818;stroke-width:1.0;" x1="99.5" x2="341.5" y1="196.4616" y2="196.4616"/><text fill="#000000" font-family="sans-serif" font-size="13" lengthAdjust="spacing" textLength="192" x="111.5" y="190.4616">Selezionare l'operazione</text><polygon fill="#181818" points="330.5,222.4615,340.5,226.4615,330.5,230.4615,334.5,226.4615" style="stroke:#181818;stroke-width:1.0;"/><line style="stroke:#181818;stroke-width:1.0;" x1="94.5" x2="336.5" y1="226.4615" y2="226.4615"/><text fill="#000000" font-family="sans-serif" font-size="13" lengthAdjust="spacing" textLength="168" x="101.5" y="220.4616">Registrazione cliente</text><path d="M14,241.4615 L91,241.4615 L91,249.4615 L81,259.4615 L14,259.4615 L14,241.4615 " fill="#EEEEEE" style="stroke:#000000;stroke-width:1.5;"/><rect fill="none" height="233.9999" style="stroke:#000000;stroke-width:1.5;" width="1418.5" x="14" y="241.4615"/><text fill="#000000" font-family="sans-serif" font-size="13" font-weight="bold" lengthAdjust="spacing" textLength="32" x="29" y="254.4615">loop</text><text fill="#000000" font-family="sans-serif" font-size="11" font-weight="bold" lengthAdjust="spacing" textLength="126" x="106" y="253.6153">[Inserimento Nome]</text><polygon fill="#181818" points="105.5,277.4615,95.5,281.4615,105.5,285.4615,101.5,281.4615" style="stroke:#181818;stroke-width:1.0;"/><line style="stroke:#181818;stroke-width:1.0;" x1="99.5" x2="341.5" y1="281.4615" y2="281.4615"/><text fill="#000000" font-family="sans-serif" font-size="13" lengthAdjust="spacing" textLength="104" x="111.5" y="275.4615">Inserire nome</text><polygon fill="#181818" points="330.5,307.4615,340.5,311.4615,330.5,315.4615,334.5,311.4615" style="stroke:#181818;stroke-width:1.0;"/><line style="stroke:#181818;stroke-width:1.0;" x1="94.5" x2="336.5" y1="311.4615" y2="311.4615"/><text fill="#000000" font-family="sans-serif" font-size="13" lengthAdjust="spacing" textLength="32" x="101.5" y="305.4615">nome</text><path d="M24,324.4615 L24,349.4615 L413,349.4615 L413,334.4615 L403,324.4615 L24,324.4615 " fill="#FEFFDD" style="stroke:#181818;stroke-width:0.5;"/><path d="M403,324.4615 L403,334.4615 L413,334.4615 L403,324.4615 " fill="#FEFFDD" style="stroke:#181818;stroke-width:0.5;"/><text fill="#000000" font-family="sans-serif" font-size="13" lengthAdjust="spacing" textLength="368" x="30" y="341.4615">Controllo che il nome sia valido e disponibile</text><polygon fill="#181818" points="850.5,373.4615,860.5,377.4615,850.5,381.4615,854.5,377.4615" style="stroke:#181818;stroke-width:1.0;"/><line style="stroke:#181818;stroke-width:1.0;" x1="342.5" x2="856.5" y1="377.4615" y2="377.4615"/><text fill="#000000" font-family="sans-serif" font-size="13" lengthAdjust="spacing" textLength="240" x="349.5" y="371.4615">Nome Cliente Disponibile(nome)</text><polygon fill="#181818" points="1362.5,403.4615,1372.5,407.4615,1362.5,411.4615,1366.5,407.4615" style="stroke:#181818;stroke-width:1.0;"/><line style="stroke:#181818;stroke-width:1.0;" x1="862.5" x2="1368.5" y1="407.4615" y2="407.4615"/><text fill="#000000" font-family="sans-serif" font-size="13" lengthAdjust="spacing" textLength="272" x="869.5" y="401.4615">Controlla Disponibilit&#224; Nome(nome)</text><polygon fill="#181818" points="1362.5,433.4614,1372.5,437.4614,1362.5,441.4614,1366.5,437.4614" style="stroke:#181818;stroke-width:1.0;"/><line style="stroke:#181818;stroke-width:1.0;" x1="862.5" x2="1368.5" y1="437.4614" y2="437.4614"/><text fill="#000000" font-family="sans-serif" font-size="13" lengthAdjust="spacing" textLength="72" x="869.5" y="431.4614">Risultato</text><polygon fill="#181818" points="353.5,463.4614,343.5,467.4614,353.5,471.4614,349.5,467.4614" style="stroke:#181818;stroke-width:1.0;"/><line style="stroke:#181818;stroke-width:1.0;" x1="347.5" x2="861.5" y1="467.4614" y2="467.4614"/><text fill="#000000" font-family="sans-serif" font-size="13" lengthAdjust="spacing" textLength="88" x="359.5" y="461.4614">Ok o Errore</text><path d="M25,489.4614 L102,489.4614 L102,497.4614 L92,507.4614 L25,507.4614 L25,489.4614 " fill="#EEEEEE" style="stroke:#000000;stroke-width:1.5;"/><rect fill="none" height="113.9999" style="stroke:#000000;stroke-width:1.5;" width="407" x="25" y="489.4614"/><text fill="#000000" font-family="sans-serif" font-size="13" font-weight="bold" lengthAdjust="spacing" textLength="32" x="40" y="502.4614">loop</text><text fill="#000000" font-family="sans-serif" font-size="11" font-weight="bold" lengthAdjust="spacing" textLength="126" x="117" y="501.6152">[Inserimento Nome]</text><polygon fill="#181818" points="105.5,525.4614,95.5,529.4614,105.5,533.4614,101.5,529.4614" style="stroke:#181818;stroke-width:1.0;"/><line style="stroke:#181818;stroke-width:1.0;" x1="99.5" x2="341.5" y1="529.4614" y2="529.4614"/><text fill="#000000" font-family="sans-serif" font-size="13" lengthAdjust="spacing" textLength="144" x="111.5" y="523.4614">Inserire indirizzo</text><polygon fill="#181818" points="330.5,555.4614,340.5,559.4614,330.5,563.4614,334.5,559.4614" style="stroke:#181818;stroke-width:1.0;"/><line style="stroke:#181818;stroke-width:1.0;" x1="94.5" x2="336.5" y1="559.4614" y2="559.4614"/><text fill="#000000" font-family="sans-serif" font-size="13" lengthAdjust="spacing" textLength="72" x="101.5" y="553.4614">indirizzo</text><path d="M35,572.4614 L35,597.4614 L401,597.4614 L401,582.4614 L391,572.4614 L35,572.4614 " fill="#FEFFDD" style="stroke:#181818;stroke-width:0.5;"/><path d="M391,572.4614 L391,582.4614 L401,582.4614 L391,572.4614 " fill="#FEFFDD" style="stroke:#181818;stroke-width:0.5;"/><text fill="#000000" font-family="sans-serif" font-size="13" lengthAdjust="spacing" textLength="208" x="109.5" y="589.4614">Controllo che il indirizzo</text><polygon fill="#181818" points="105.5,628.4613,95.5,632.4613,105.5,636.4613,101.5,632.4613" style="stroke:#181818;stroke-width:1.0;"/><line style="stroke:#181818;stroke-width:1.0;" x1="99.5" x2="341.5" y1="632.4613" y2="632.4613"/><text fill="#000000" font-family="sans-serif" font-size="13" lengthAdjust="spacing" textLength="112" x="111.5" y="626.4614">Inserire email</text><polygon fill="#181818" points="330.5,658.4613,340.5,662.4613,330.5,666.4613,334.5,662.4613" style="stroke:#181818;stroke-width:1.0;"/><line style="stroke:#181818;stroke-width:1.0;" x1="94.5" x2="336.5" y1="662.4613" y2="662.4613"/><text fill="#000000" font-family="sans-serif" font-size="13" lengthAdjust="spacing" textLength="40" x="101.5" y="656.4613">email</text><path d="M10,677.4613 L87,677.4613 L87,685.4613 L77,695.4613 L10,695.4613 L10,677.4613 " fill="#EEEEEE" style="stroke:#000000;stroke-width:1.5;"/><rect fill="none" height="113.9999" style="stroke:#000000;stroke-width:1.5;" width="422" x="10" y="677.4613"/><text fill="#000000" font-family="sans-serif" font-size="13" font-weight="bold" lengthAdjust="spacing" textLength="32" x="25" y="690.4613">loop</text><text fill="#000000" font-family="sans-serif" font-size="11" font-weight="bold" lengthAdjust="spacing" textLength="231" x="102" y="689.6151">[Inserimento Codice fatturazione]</text><polygon fill="#181818" points="105.5,713.4613,95.5,717.4613,105.5,721.4613,101.5,717.4613" style="stroke:#181818;stroke-width:1.0;"/><line style="stroke:#181818;stroke-width:1.0;" x1="99.5" x2="341.5" y1="717.4613" y2="717.4613"/><text fill="#000000" font-family="sans-serif" font-size="13" lengthAdjust="spacing" textLength="224" x="111.5" y="711.4613">Inserire codice fatturazione</text><polygon fill="#181818" points="330.5,743.4613,340.5,747.4613,330.5,751.4613,334.5,747.4613" style="stroke:#181818;stroke-width:1.0;"/><line style="stroke:#181818;stroke-width:1.0;" x1="94.5" x2="336.5" y1="747.4613" y2="747.4613"/><text fill="#000000" font-family="sans-serif" font-size="13" lengthAdjust="spacing" textLength="152" x="101.5" y="741.4613">codice fatturazione</text><path d="M20,760.4613 L20,785.4613 L417,785.4613 L417,770.4613 L407,760.4613 L20,760.4613 " fill="#FEFFDD" style="stroke:#181818;stroke-width:0.5;"/><path d="M407,760.4613 L407,770.4613 L417,770.4613 L407,760.4613 " fill="#FEFFDD" style="stroke:#181818;stroke-width:0.5;"/><text fill="#000000" font-family="sans-serif" font-size="13" lengthAdjust="spacing" textLength="376" x="26" y="777.4613">Controllo che il codice fatturazione sia valido</text><polygon fill="#181818" points="850.5,816.4613,860.5,820.4613,850.5,824.4613,854.5,820.4613" style="stroke:#181818;stroke-width:1.0;"/><line style="stroke:#181818;stroke-width:1.0;" x1="342.5" x2="856.5" y1="820.4613" y2="820.4613"/><text fill="#000000" font-family="sans-serif" font-size="13" lengthAdjust="spacing" textLength="496" x="349.5" y="814.4613">registra cliente (nome, indirizzo, email, codice fatturazione)</text><polygon fill="#181818" points="1362.5,846.4612,1372.5,850.4612,1362.5,854.4612,1366.5,850.4612" style="stroke:#181818;stroke-width:1.0;"/><line style="stroke:#181818;stroke-width:1.0;" x1="862.5" x2="1368.5" y1="850.4612" y2="850.4612"/><text fill="#000000" font-family="sans-serif" font-size="13" lengthAdjust="spacing" textLength="488" x="869.5" y="844.4612">registra cliente(nome, indirizzo, email, codice fatturazione)</text><polygon fill="#181818" points="1420.5,860.4612,1430.5,864.4612,1420.5,868.4612,1424.5,864.4612" style="stroke:#181818;stroke-width:1.0;"/><line style="stroke:#181818;stroke-width:1.0;" x1="1374.5" x2="1426.5" y1="864.4612" y2="864.4612"/><text fill="#000000" font-family="sans-serif" font-size="14" lengthAdjust="spacing" textLength="63" x="1432.5" y="903.3843">Cliente</text><ellipse cx="1467" cy="874.4612" fill="#E2E2F0" rx="12" ry="12" style="stroke:#181818;stroke-width:0.5;"/><line style="stroke:#181818;stroke-width:0.5;" x1="1455" x2="1479" y1="888.4612" y2="888.4612"/><polygon fill="#181818" points="1385.5,919.692,1375.5,923.692,1385.5,927.692,1381.5,923.692" style="stroke:#181818;stroke-width:1.0;"/><line style="stroke:#181818;stroke-width:1.0;" x1="1379.5" x2="1461" y1="923.692" y2="923.692"/><path d="M41,938.692 L110,938.692 L110,946.692 L100,956.692 L41,956.692 L41,938.692 " fill="#EEEEEE" style="stroke:#000000;stroke-width:1.5;"/><rect fill="none" height="213.5383" style="stroke:#000000;stroke-width:1.5;" width="1391.5" x="41" y="938.692"/><text fill="#000000" font-family="sans-serif" font-size="13" font-weight="bold" lengthAdjust="spacing" textLength="24" x="56" y="951.692">alt</text><text fill="#000000" font-family="sans-serif" font-size="11" font-weight="bold" lengthAdjust="spacing" textLength="70" x="125" y="950.8458">[Successo]</text><polygon fill="#181818" points="873.5,974.692,863.5,978.692,873.5,982.692,869.5,978.692" style="stroke:#181818;stroke-width:1.0;"/><line style="stroke:#181818;stroke-width:1.0;" x1="867.5" x2="1373.5" y1="978.692" y2="978.692"/><text fill="#000000" font-family="sans-serif" font-size="13" lengthAdjust="spacing" textLength="112" x="879.5" y="972.692">Cliente creato</text><polygon fill="#181818" points="353.5,1004.692,343.5,1008.692,353.5,1012.692,349.5,1008.692" style="stroke:#181818;stroke-width:1.0;"/><line style="stroke:#181818;stroke-width:1.0;" x1="347.5" x2="861.5" y1="1008.692" y2="1008.692"/><text fill="#000000" font-family="sans-serif" font-size="13" lengthAdjust="spacing" textLength="168" x="359.5" y="1002.692">Messaggio di successo</text><polygon fill="#181818" points="105.5,1034.692,95.5,1038.692,105.5,1042.692,101.5,1038.692" style="stroke:#181818;stroke-width:1.0;"/><line style="stroke:#181818;stroke-width:1.0;" x1="99.5" x2="341.5" y1="1038.692" y2="1038.692"/><text fill="#000000" font-family="sans-serif" font-size="13" lengthAdjust="spacing" textLength="64" x="111.5" y="1032.692">Successo</text><line style="stroke:#000000;stroke-width:1.0;stroke-dasharray:2.0,2.0;" x1="41" x2="1432.5" y1="1047.692" y2="1047.692"/><text fill="#000000" font-family="sans-serif" font-size="11" font-weight="bold" lengthAdjust="spacing" textLength="56" x="46" y="1057.8457">[Errore]</text><polygon fill="#181818" points="873.5,1080.2303,863.5,1084.2303,873.5,1088.2303,869.5,1084.2303" style="stroke:#181818;stroke-width:1.0;"/><line style="stroke:#181818;stroke-width:1.0;" x1="867.5" x2="1373.5" y1="1084.2303" y2="1084.2303"/><text fill="#000000" font-family="sans-serif" font-size="13" lengthAdjust="spacing" textLength="48" x="879.5" y="1078.2303">Errore</text><polygon fill="#181818" points="353.5,1110.2303,343.5,1114.2303,353.5,1118.2303,349.5,1114.2303" style="stroke:#181818;stroke-width:1.0;"/><line style="stroke:#181818;stroke-width:1.0;" x1="347.5" x2="861.5" y1="1114.2303" y2="1114.2303"/><text fill="#000000" font-family="sans-serif" font-size="13" lengthAdjust="spacing" textLength="152" x="359.5" y="1108.2303">Messaggio di errore</text><polygon fill="#181818" points="105.5,1140.2303,95.5,1144.2303,105.5,1148.2303,101.5,1144.2303" style="stroke:#181818;stroke-width:1.0;"/><line style="stroke:#181818;stroke-width:1.0;" x1="99.5" x2="341.5" y1="1144.2303" y2="1144.2303"/><text fill="#000000" font-family="sans-serif" font-size="13" lengthAdjust="spacing" textLength="48" x="111.5" y="1138.2303">Errore</text><!--SRC=[hLLTRk8m47xtAUQjMubU02sLTka-L6gtKdk2mPdDZjPuaEqWbTFqBhrOdK2mIG81j7bAdFb-Cdz17SJ1utB5L68GjP3A5kZUqz7FtOdIOeCJ0y_8ThwzD-HKWG4Nw0dcXia6UlZnebJWO0XUgMGV76vOxFwzKhCPFDrKeNu0T8xN20N2avHiMp6OpLJF0TpT9rimXJSoL5EZ8p0tigATKa8U8FOqquuntHep8Yjuj9uSB-E9m6zPae9uZNhPeg8HsuCSCx6Fj18J8MlAwZ0PHBHP5z1_2TWq5E0POOs62m62WlrAB2_Od31-MC58N7zdMnzuI1JVQe7RXgY3YIoftfarpE0SFZyQwemc0ts_wnjvPL-PK3VYiEPGLbx-WS0lvyIH8blydpAoBTZnPYFdrV8m_Fg29fxcIyxtIqjaCzxusx1-XkPIi2RuWo5KxHHTbZ0znd3CqZ7WzKaSOCo6v4HcU-teTdkYNH7GTF8abMcopUXaIFDMZSnCb_qoSgKTORGKaHpUzzirKqXw2dM8QpPGD-pGar8AJO2tIcloNhe3EvIXbgSnSydKFaS5B4kMkBB0vugdUswQx969VvtTu9zXDOkymY8bzEXGPCle2m00]--></g></svg>