<?xml version="1.0" encoding="us-ascii" standalone="no"?><svg xmlns="http://www.w3.org/2000/svg" xmlns:xlink="http://www.w3.org/1999/xlink" contentStyleType="text/css" height="627px" preserveAspectRatio="none" style="width:1057px;height:627px;background:#FFFFFF;" version="1.1" viewBox="0 0 1057 627" width="1057px" zoomAndPan="magnify"><defs/><g><text fill="#000000" font-family="sans-serif" font-size="14" font-weight="bold" lengthAdjust="spacing" textLength="45" x="502" y="27.9231">Login</text><rect fill="none" height="241.5383" style="stroke:#000000;stroke-width:1.5;" width="948" x="10" y="287.4615"/><line style="stroke:#181818;stroke-width:0.5;stroke-dasharray:5.0,5.0;" x1="50" x2="50" y1="120.4616" y2="545.9998"/><line style="stroke:#181818;stroke-width:0.5;stroke-dasharray:5.0,5.0;" x1="577.5" x2="577.5" y1="120.4616" y2="545.9998"/><line style="stroke:#181818;stroke-width:0.5;stroke-dasharray:5.0,5.0;" x1="882" x2="882" y1="120.4616" y2="545.9998"/><line style="stroke:#181818;stroke-width:0.5;stroke-dasharray:5.0,5.0;" x1="1001" x2="1001" y1="120.4616" y2="545.9998"/><text fill="#000000" font-family="sans-serif" font-size="14" lengthAdjust="spacing" textLength="54" x="20" y="116.1539">Utente</text><ellipse cx="50" cy="51.7308" fill="#E2E2F0" rx="8" ry="8" style="stroke:#181818;stroke-width:0.5;"/><path d="M50,59.7308 L50,86.7308 M37,67.7308 L63,67.7308 M50,86.7308 L37,101.7308 M50,86.7308 L63,101.7308 " fill="none" style="stroke:#181818;stroke-width:0.5;"/><text fill="#000000" font-family="sans-serif" font-size="14" lengthAdjust="spacing" textLength="54" x="20" y="557.9229">Utente</text><ellipse cx="50" cy="570.7306" fill="#E2E2F0" rx="8" ry="8" style="stroke:#181818;stroke-width:0.5;"/><path d="M50,578.7306 L50,605.7306 M37,586.7306 L63,586.7306 M50,605.7306 L37,620.7306 M50,605.7306 L63,620.7306 " fill="none" style="stroke:#181818;stroke-width:0.5;"/><text fill="#000000" font-family="sans-serif" font-size="14" lengthAdjust="spacing" textLength="117" x="516.5" y="116.1539">LoginBoundary</text><path d="M557.5,75.2308 L557.5,99.2308 M557.5,87.2308 L574.5,87.2308 " fill="none" style="stroke:#181818;stroke-width:0.5;"/><ellipse cx="586.5" cy="87.2308" fill="#E2E2F0" rx="12" ry="12" style="stroke:#181818;stroke-width:0.5;"/><text fill="#000000" font-family="sans-serif" font-size="14" lengthAdjust="spacing" textLength="117" x="516.5" y="557.9229">LoginBoundary</text><path d="M557.5,566.2306 L557.5,590.2306 M557.5,578.2306 L574.5,578.2306 " fill="none" style="stroke:#181818;stroke-width:0.5;"/><ellipse cx="586.5" cy="578.2306" fill="#E2E2F0" rx="12" ry="12" style="stroke:#181818;stroke-width:0.5;"/><text fill="#000000" font-family="sans-serif" font-size="14" lengthAdjust="spacing" textLength="126" x="816" y="116.1539">MainController</text><ellipse cx="882" cy="87.2308" fill="#E2E2F0" rx="12" ry="12" style="stroke:#181818;stroke-width:0.5;"/><line style="stroke:#181818;stroke-width:0.5;" x1="870" x2="894" y1="101.2308" y2="101.2308"/><text fill="#000000" font-family="sans-serif" font-size="14" lengthAdjust="spacing" textLength="126" x="816" y="557.9229">MainController</text><ellipse cx="882" cy="578.2306" fill="#E2E2F0" rx="12" ry="12" style="stroke:#181818;stroke-width:0.5;"/><line style="stroke:#181818;stroke-width:0.5;" x1="870" x2="894" y1="592.2306" y2="592.2306"/><text fill="#000000" font-family="sans-serif" font-size="14" lengthAdjust="spacing" textLength="81" x="958" y="116.1539">UtenteDAO</text><path d="M983.5,67.2308 C983.5,57.2308 1001.5,57.2308 1001.5,57.2308 C1001.5,57.2308 1019.5,57.2308 1019.5,67.2308 L1019.5,93.2308 C1019.5,103.2308 1001.5,103.2308 1001.5,103.2308 C1001.5,103.2308 983.5,103.2308 983.5,93.2308 L983.5,67.2308 " fill="#E2E2F0" style="stroke:#181818;stroke-width:1.5;"/><path d="M983.5,67.2308 C983.5,77.2308 1001.5,77.2308 1001.5,77.2308 C1001.5,77.2308 1019.5,77.2308 1019.5,67.2308 " fill="none" style="stroke:#181818;stroke-width:1.5;"/><text fill="#000000" font-family="sans-serif" font-size="14" lengthAdjust="spacing" textLength="81" x="958" y="557.9229">UtenteDAO</text><path d="M983.5,572.2306 C983.5,562.2306 1001.5,562.2306 1001.5,562.2306 C1001.5,562.2306 1019.5,562.2306 1019.5,572.2306 L1019.5,598.2306 C1019.5,608.2306 1001.5,608.2306 1001.5,608.2306 C1001.5,608.2306 983.5,608.2306 983.5,598.2306 L983.5,572.2306 " fill="#E2E2F0" style="stroke:#181818;stroke-width:1.5;"/><path d="M983.5,572.2306 C983.5,582.2306 1001.5,582.2306 1001.5,582.2306 C1001.5,582.2306 1019.5,582.2306 1019.5,572.2306 " fill="none" style="stroke:#181818;stroke-width:1.5;"/><polygon fill="#181818" points="566,148.4616,576,152.4616,566,156.4616,570,152.4616" style="stroke:#181818;stroke-width:1.0;"/><line style="stroke:#181818;stroke-width:1.0;" x1="50" x2="572" y1="152.4616" y2="152.4616"/><text fill="#000000" font-family="sans-serif" font-size="13" lengthAdjust="spacing" textLength="184" x="57" y="146.4616">Connessione al software</text><polygon fill="#181818" points="61,178.4616,51,182.4616,61,186.4616,57,182.4616" style="stroke:#181818;stroke-width:1.0;"/><line style="stroke:#181818;stroke-width:1.0;" x1="55" x2="577" y1="182.4616" y2="182.4616"/><text fill="#000000" font-family="sans-serif" font-size="13" lengthAdjust="spacing" textLength="504" x="67" y="176.4616">Inserire credenziali o selezionare di visualizzare l'inventario</text><polygon fill="#181818" points="566,208.4615,576,212.4615,566,216.4615,570,212.4615" style="stroke:#181818;stroke-width:1.0;"/><line style="stroke:#181818;stroke-width:1.0;" x1="50" x2="572" y1="212.4615" y2="212.4615"/><text fill="#000000" font-family="sans-serif" font-size="13" lengthAdjust="spacing" textLength="112" x="57" y="206.4616">Invio username</text><polygon fill="#181818" points="566,238.4615,576,242.4615,566,246.4615,570,242.4615" style="stroke:#181818;stroke-width:1.0;"/><line style="stroke:#181818;stroke-width:1.0;" x1="50" x2="572" y1="242.4615" y2="242.4615"/><text fill="#000000" font-family="sans-serif" font-size="13" lengthAdjust="spacing" textLength="112" x="57" y="236.4615">Invio password</text><polygon fill="#181818" points="870,268.4615,880,272.4615,870,276.4615,874,272.4615" style="stroke:#181818;stroke-width:1.0;"/><line style="stroke:#181818;stroke-width:1.0;" x1="578" x2="876" y1="272.4615" y2="272.4615"/><text fill="#000000" font-family="sans-serif" font-size="13" lengthAdjust="spacing" textLength="280" x="585" y="266.4615">Effettua Login (username, password)</text><path d="M10,287.4615 L79,287.4615 L79,295.4615 L69,305.4615 L10,305.4615 L10,287.4615 " fill="#EEEEEE" style="stroke:#000000;stroke-width:1.5;"/><rect fill="none" height="241.5383" style="stroke:#000000;stroke-width:1.5;" width="948" x="10" y="287.4615"/><text fill="#000000" font-family="sans-serif" font-size="13" font-weight="bold" lengthAdjust="spacing" textLength="24" x="25" y="300.4615">alt</text><text fill="#000000" font-family="sans-serif" font-size="11" font-weight="bold" lengthAdjust="spacing" textLength="217" x="94" y="299.6153">[Login effettuato con successo]</text><polygon fill="#181818" points="589,323.4615,579,327.4615,589,331.4615,585,327.4615" style="stroke:#181818;stroke-width:1.0;"/><line style="stroke:#181818;stroke-width:1.0;" x1="583" x2="881" y1="327.4615" y2="327.4615"/><text fill="#000000" font-family="sans-serif" font-size="13" lengthAdjust="spacing" textLength="64" x="595" y="321.4615">Successo</text><polygon fill="#181818" points="61,353.4615,51,357.4615,61,361.4615,57,357.4615" style="stroke:#181818;stroke-width:1.0;"/><line style="stroke:#181818;stroke-width:1.0;" x1="55" x2="577" y1="357.4615" y2="357.4615"/><text fill="#000000" font-family="sans-serif" font-size="13" lengthAdjust="spacing" textLength="232" x="67" y="351.4615">Login Effettuato con successo</text><rect fill="#EEEEEE" height="3" style="stroke:#EEEEEE;stroke-width:1.0;" width="1050" x="0" y="386.4615"/><line style="stroke:#000000;stroke-width:1.0;" x1="0" x2="1050" y1="386.4615" y2="386.4615"/><line style="stroke:#000000;stroke-width:1.0;" x1="0" x2="1050" y1="389.4615" y2="389.4615"/><rect fill="#EEEEEE" height="24" style="stroke:#000000;stroke-width:2.0;" width="278" x="386" y="375.4615"/><text fill="#000000" font-family="sans-serif" font-size="13" font-weight="bold" lengthAdjust="spacing" textLength="256" x="392" y="391.4615">Connessione al corretto Boundary</text><line style="stroke:#000000;stroke-width:1.0;stroke-dasharray:2.0,2.0;" x1="10" x2="958" y1="410.4615" y2="410.4615"/><text fill="#000000" font-family="sans-serif" font-size="11" font-weight="bold" lengthAdjust="spacing" textLength="126" x="15" y="420.6152">[Errore nel login]</text><polygon fill="#181818" points="589,442.9998,579,446.9998,589,450.9998,585,446.9998" style="stroke:#181818;stroke-width:1.0;"/><line style="stroke:#181818;stroke-width:1.0;" x1="583" x2="881" y1="446.9998" y2="446.9998"/><text fill="#000000" font-family="sans-serif" font-size="13" lengthAdjust="spacing" textLength="48" x="595" y="440.9998">Errore</text><polygon fill="#181818" points="61,472.9998,51,476.9998,61,480.9998,57,476.9998" style="stroke:#181818;stroke-width:1.0;"/><line style="stroke:#181818;stroke-width:1.0;" x1="55" x2="577" y1="476.9998" y2="476.9998"/><text fill="#000000" font-family="sans-serif" font-size="13" lengthAdjust="spacing" textLength="472" x="67" y="470.9998">Impossibile effettuare il login, controllare le credenziali</text><rect fill="#EEEEEE" height="3" style="stroke:#EEEEEE;stroke-width:1.0;" width="1050" x="0" y="505.9998"/><line style="stroke:#000000;stroke-width:1.0;" x1="0" x2="1050" y1="505.9998" y2="505.9998"/><line style="stroke:#000000;stroke-width:1.0;" x1="0" x2="1050" y1="508.9998" y2="508.9998"/><rect fill="#EEEEEE" height="24" style="stroke:#000000;stroke-width:2.0;" width="222" x="414" y="494.9998"/><text fill="#000000" font-family="sans-serif" font-size="13" font-weight="bold" lengthAdjust="spacing" textLength="200" x="420" y="510.9998">Reinserimento credenziali</text><!--SRC=[ZLBRIWD137sVhyYR2lK72YjuwKD14HG_8DrD9J1DIcPsI_VhJVTItAgjypQJSviaM6Or-CWacS9AQwdGzl2idomFmoruZVCUNf3bKIMRnaWMAioumaG3-Ud-DGJ7HUhP8VJlS7itbOCvk8fGIgn2W16IhlCEZS8KvyH1OWvBIMHi1ALHHT8oHWQ5H95Qbt4oL0mDfzeBRNkunokMnkbehEV2BALXXThr1JTq4RZ5b7PgLVYPTjeWPopMQygvnbuAhaUJsL7b9c3CGva6T5OeLI3LPUbDqW1-JgH_IVV-7Vvt8tkhnHcheZYTJwbc3bSuAXP5eEYZNvYfjreeGko6_h-iFUr2qkLcgvvXnRvHOslSYmUhsI5vvz4DUx8Pup_UYBkzsRYaJbRdy06flW00]--></g></svg>